solid CATIA STL
  facet normal  -0.000000e+000  0.000000e+000  1.000000e+000
    outer loop
      vertex  6.500000e+001  3.450000e+001 -1.400000e+001
      vertex  5.412700e+001 -2.700000e+000 -1.400000e+001
      vertex  6.500000e+001 -3.450000e+001 -1.400000e+001
    endloop
  endfacet
  facet normal  0.000000e+000  0.000000e+000  1.000000e+000
    outer loop
      vertex  6.500000e+001 -3.450000e+001 -1.400000e+001
      vertex  5.412700e+001 -2.700000e+000 -1.400000e+001
      vertex  3.062700e+001 -2.700000e+000 -1.400000e+001
    endloop
  endfacet
  facet normal  0.000000e+000  0.000000e+000  1.000000e+000
    outer loop
      vertex  6.500000e+001 -3.450000e+001 -1.400000e+001
      vertex  3.062700e+001 -2.700000e+000 -1.400000e+001
      vertex  2.000000e+001 -3.450000e+001 -1.400000e+001
    endloop
  endfacet
  facet normal  0.000000e+000  0.000000e+000  1.000000e+000
    outer loop
      vertex  5.412700e+001 -2.700000e+000 -1.400000e+001
      vertex  6.500000e+001  3.450000e+001 -1.400000e+001
      vertex  5.412700e+001  2.700000e+000 -1.400000e+001
    endloop
  endfacet
  facet normal  0.000000e+000  -0.000000e+000  1.000000e+000
    outer loop
      vertex  5.412700e+001  2.700000e+000 -1.400000e+001
      vertex  6.500000e+001  3.450000e+001 -1.400000e+001
      vertex  2.000000e+001  3.450000e+001 -1.400000e+001
    endloop
  endfacet
  facet normal  0.000000e+000  0.000000e+000  1.000000e+000
    outer loop
      vertex  5.412700e+001  2.700000e+000 -1.400000e+001
      vertex  2.000000e+001  3.450000e+001 -1.400000e+001
      vertex  3.062700e+001  2.700000e+000 -1.400000e+001
    endloop
  endfacet
  facet normal  0.000000e+000  0.000000e+000  1.000000e+000
    outer loop
      vertex  3.062700e+001  2.700000e+000 -1.400000e+001
      vertex  2.000000e+001  3.450000e+001 -1.400000e+001
      vertex  2.000000e+001 -3.450000e+001 -1.400000e+001
    endloop
  endfacet
  facet normal  0.000000e+000  0.000000e+000  1.000000e+000
    outer loop
      vertex  3.062700e+001  2.700000e+000 -1.400000e+001
      vertex  2.000000e+001 -3.450000e+001 -1.400000e+001
      vertex  3.062700e+001 -2.700000e+000 -1.400000e+001
    endloop
  endfacet
  facet normal  0.000000e+000  0.000000e+000  1.000000e+000
    outer loop
      vertex -2.000000e+001 -3.450000e+001  4.540000e+001
      vertex  2.000000e+001 -3.450000e+001  4.540000e+001
      vertex -2.000000e+001  3.450000e+001  4.540000e+001
    endloop
  endfacet
  facet normal  -0.000000e+000  0.000000e+000  1.000000e+000
    outer loop
      vertex -2.000000e+001  3.450000e+001  4.540000e+001
      vertex  2.000000e+001 -3.450000e+001  4.540000e+001
      vertex  2.000000e+001  3.450000e+001  4.540000e+001
    endloop
  endfacet
  facet normal  9.999999e-001  -0.000000e+000  0.000000e+000
    outer loop
      vertex  2.000000e+001  2.500000e+001  1.240000e+001
      vertex  2.000000e+001  1.550000e+001  1.240000e+001
      vertex  2.000000e+001  1.550000e+001  3.191839e-015
    endloop
  endfacet
  facet normal  1.000000e+000  -0.000000e+000  0.000000e+000
    outer loop
      vertex  2.000000e+001  2.500000e+001  1.240000e+001
      vertex  2.000000e+001  1.550000e+001  3.191839e-015
      vertex  2.000000e+001  3.450000e+001 -1.400000e+001
    endloop
  endfacet
  facet normal  1.000000e+000  0.000000e+000  -0.000000e+000
    outer loop
      vertex  2.000000e+001  2.500000e+001  1.240000e+001
      vertex  2.000000e+001  3.450000e+001 -1.400000e+001
      vertex  2.000000e+001  3.450000e+001  4.540000e+001
    endloop
  endfacet
  facet normal  9.999999e-001  0.000000e+000  0.000000e+000
    outer loop
      vertex  2.000000e+001  2.500000e+001  1.240000e+001
      vertex  2.000000e+001  3.450000e+001  4.540000e+001
      vertex  2.000000e+001  2.500000e+001  3.540000e+001
    endloop
  endfacet
  facet normal  1.000000e+000  0.000000e+000  0.000000e+000
    outer loop
      vertex  2.000000e+001  3.450000e+001 -1.400000e+001
      vertex  2.000000e+001  1.550000e+001  3.191839e-015
      vertex  2.000000e+001 -3.450000e+001 -1.400000e+001
    endloop
  endfacet
  facet normal  1.000000e+000  0.000000e+000  0.000000e+000
    outer loop
      vertex  2.000000e+001 -3.450000e+001 -1.400000e+001
      vertex  2.000000e+001  1.550000e+001  3.191839e-015
      vertex  2.000000e+001 -1.550000e+001  3.191839e-015
    endloop
  endfacet
  facet normal  1.000000e+000  0.000000e+000  0.000000e+000
    outer loop
      vertex  2.000000e+001 -3.450000e+001 -1.400000e+001
      vertex  2.000000e+001 -1.550000e+001  3.191839e-015
      vertex  2.000000e+001 -2.500000e+001  1.240000e+001
    endloop
  endfacet
  facet normal  9.999999e-001  -0.000000e+000  0.000000e+000
    outer loop
      vertex  2.000000e+001 -2.500000e+001  1.240000e+001
      vertex  2.000000e+001 -1.550000e+001  3.191839e-015
      vertex  2.000000e+001 -1.550000e+001  1.240000e+001
    endloop
  endfacet
  facet normal  1.000000e+000  0.000000e+000  0.000000e+000
    outer loop
      vertex  2.000000e+001  2.500000e+001  3.540000e+001
      vertex  2.000000e+001  3.450000e+001  4.540000e+001
      vertex  2.000000e+001 -2.500000e+001  3.540000e+001
    endloop
  endfacet
  facet normal  1.000000e+000  0.000000e+000  -0.000000e+000
    outer loop
      vertex  2.000000e+001 -2.500000e+001  3.540000e+001
      vertex  2.000000e+001  3.450000e+001  4.540000e+001
      vertex  2.000000e+001 -3.450000e+001  4.540000e+001
    endloop
  endfacet
  facet normal  9.999999e-001  0.000000e+000  0.000000e+000
    outer loop
      vertex  2.000000e+001 -2.500000e+001  3.540000e+001
      vertex  2.000000e+001 -3.450000e+001  4.540000e+001
      vertex  2.000000e+001 -2.500000e+001  1.240000e+001
    endloop
  endfacet
  facet normal  1.000000e+000  0.000000e+000  0.000000e+000
    outer loop
      vertex  2.000000e+001 -2.500000e+001  1.240000e+001
      vertex  2.000000e+001 -3.450000e+001  4.540000e+001
      vertex  2.000000e+001 -3.450000e+001 -1.400000e+001
    endloop
  endfacet
  facet normal  0.000000e+000  1.000000e+000  0.000000e+000
    outer loop
      vertex  5.412700e+001 -2.700000e+000 -2.700000e+001
      vertex  3.062700e+001 -2.700000e+000 -2.700000e+001
      vertex  5.412700e+001 -2.700000e+000 -1.400000e+001
    endloop
  endfacet
  facet normal  0.000000e+000  1.000000e+000  0.000000e+000
    outer loop
      vertex  5.412700e+001 -2.700000e+000 -1.400000e+001
      vertex  3.062700e+001 -2.700000e+000 -2.700000e+001
      vertex  3.062700e+001 -2.700000e+000 -1.400000e+001
    endloop
  endfacet
  facet normal -1.000000e+000  0.000000e+000  0.000000e+000
    outer loop
      vertex  5.412700e+001  2.700000e+000 -1.400000e+001
      vertex  5.412700e+001  2.700000e+000 -2.700000e+001
      vertex  5.412700e+001 -2.700000e+000 -1.400000e+001
    endloop
  endfacet
  facet normal -1.000000e+000  0.000000e+000  0.000000e+000
    outer loop
      vertex  5.412700e+001 -2.700000e+000 -1.400000e+001
      vertex  5.412700e+001  2.700000e+000 -2.700000e+001
      vertex  5.412700e+001 -2.700000e+000 -2.700000e+001
    endloop
  endfacet
  facet normal  0.000000e+000 -1.000000e+000  0.000000e+000
    outer loop
      vertex  3.062700e+001  2.700000e+000 -2.700000e+001
      vertex  5.412700e+001  2.700000e+000 -2.700000e+001
      vertex  3.062700e+001  2.700000e+000 -1.400000e+001
    endloop
  endfacet
  facet normal  0.000000e+000 -1.000000e+000  0.000000e+000
    outer loop
      vertex  3.062700e+001  2.700000e+000 -1.400000e+001
      vertex  5.412700e+001  2.700000e+000 -2.700000e+001
      vertex  5.412700e+001  2.700000e+000 -1.400000e+001
    endloop
  endfacet
  facet normal  0.000000e+000 -1.000000e+000  0.000000e+000
    outer loop
      vertex -2.000000e+001 -3.450000e+001  4.540000e+001
      vertex -2.000000e+001 -3.450000e+001 -2.700000e+001
      vertex  2.000000e+001 -3.450000e+001  4.540000e+001
    endloop
  endfacet
  facet normal  0.000000e+000 -1.000000e+000  -0.000000e+000
    outer loop
      vertex  2.000000e+001 -3.450000e+001  4.540000e+001
      vertex -2.000000e+001 -3.450000e+001 -2.700000e+001
      vertex  2.000000e+001 -3.450000e+001 -1.400000e+001
    endloop
  endfacet
  facet normal  0.000000e+000 -1.000000e+000  0.000000e+000
    outer loop
      vertex -2.000000e+001 -3.450000e+001 -2.700000e+001
      vertex  6.500000e+001 -3.450000e+001 -2.700000e+001
      vertex  2.000000e+001 -3.450000e+001 -1.400000e+001
    endloop
  endfacet
  facet normal  0.000000e+000 -1.000000e+000  0.000000e+000
    outer loop
      vertex  2.000000e+001 -3.450000e+001 -1.400000e+001
      vertex  6.500000e+001 -3.450000e+001 -2.700000e+001
      vertex  6.500000e+001 -3.450000e+001 -1.400000e+001
    endloop
  endfacet
  facet normal  1.000000e+000  0.000000e+000  0.000000e+000
    outer loop
      vertex  6.500000e+001 -3.450000e+001 -2.700000e+001
      vertex  6.500000e+001  3.450000e+001 -2.700000e+001
      vertex  6.500000e+001 -3.450000e+001 -1.400000e+001
    endloop
  endfacet
  facet normal  1.000000e+000  -0.000000e+000  0.000000e+000
    outer loop
      vertex  6.500000e+001 -3.450000e+001 -1.400000e+001
      vertex  6.500000e+001  3.450000e+001 -2.700000e+001
      vertex  6.500000e+001  3.450000e+001 -1.400000e+001
    endloop
  endfacet
  facet normal  0.000000e+000  1.000000e+000  0.000000e+000
    outer loop
      vertex -2.000000e+001  3.450000e+001  4.540000e+001
      vertex  2.000000e+001  3.450000e+001  4.540000e+001
      vertex -2.000000e+001  3.450000e+001 -2.700000e+001
    endloop
  endfacet
  facet normal  0.000000e+000  1.000000e+000  0.000000e+000
    outer loop
      vertex -2.000000e+001  3.450000e+001 -2.700000e+001
      vertex  2.000000e+001  3.450000e+001  4.540000e+001
      vertex  2.000000e+001  3.450000e+001 -1.400000e+001
    endloop
  endfacet
  facet normal  0.000000e+000  1.000000e+000  0.000000e+000
    outer loop
      vertex -2.000000e+001  3.450000e+001 -2.700000e+001
      vertex  2.000000e+001  3.450000e+001 -1.400000e+001
      vertex  6.500000e+001  3.450000e+001 -2.700000e+001
    endloop
  endfacet
  facet normal  0.000000e+000  1.000000e+000  -0.000000e+000
    outer loop
      vertex  6.500000e+001  3.450000e+001 -2.700000e+001
      vertex  2.000000e+001  3.450000e+001 -1.400000e+001
      vertex  6.500000e+001  3.450000e+001 -1.400000e+001
    endloop
  endfacet
  facet normal  1.000000e+000  -0.000000e+000  0.000000e+000
    outer loop
      vertex  3.062700e+001  2.700000e+000 -1.400000e+001
      vertex  3.062700e+001 -2.700000e+000 -1.400000e+001
      vertex  3.062700e+001  2.700000e+000 -2.700000e+001
    endloop
  endfacet
  facet normal  1.000000e+000  0.000000e+000  0.000000e+000
    outer loop
      vertex  3.062700e+001  2.700000e+000 -2.700000e+001
      vertex  3.062700e+001 -2.700000e+000 -1.400000e+001
      vertex  3.062700e+001 -2.700000e+000 -2.700000e+001
    endloop
  endfacet
  facet normal  0.000000e+000  0.000000e+000 -9.999999e-001
    outer loop
      vertex  3.062700e+001 -2.700000e+000 -2.700000e+001
      vertex  4.787500e+001 -1.502035e+001 -2.700000e+001
      vertex  4.500000e+001 -1.425000e+001 -2.700000e+001
    endloop
  endfacet
  facet normal  -0.000000e+000  0.000000e+000 -1.000000e+000
    outer loop
      vertex  3.062700e+001 -2.700000e+000 -2.700000e+001
      vertex  4.500000e+001 -1.425000e+001 -2.700000e+001
      vertex  4.212500e+001 -1.502035e+001 -2.700000e+001
    endloop
  endfacet
  facet normal  -0.000000e+000  0.000000e+000 -1.000000e+000
    outer loop
      vertex  3.062700e+001 -2.700000e+000 -2.700000e+001
      vertex  4.212500e+001 -1.502035e+001 -2.700000e+001
      vertex  4.002036e+001 -1.712500e+001 -2.700000e+001
    endloop
  endfacet
  facet normal  -0.000000e+000  0.000000e+000 -1.000000e+000
    outer loop
      vertex  3.062700e+001 -2.700000e+000 -2.700000e+001
      vertex  4.002036e+001 -1.712500e+001 -2.700000e+001
      vertex  3.925000e+001 -2.000000e+001 -2.700000e+001
    endloop
  endfacet
  facet normal  0.000000e+000  0.000000e+000 -1.000000e+000
    outer loop
      vertex  3.062700e+001 -2.700000e+000 -2.700000e+001
      vertex  3.925000e+001 -2.000000e+001 -2.700000e+001
      vertex  7.041487e-016 -5.750000e+000 -2.700000e+001
    endloop
  endfacet
  facet normal  0.000000e+000  0.000000e+000 -1.000000e+000
    outer loop
      vertex  3.062700e+001 -2.700000e+000 -2.700000e+001
      vertex  7.041487e-016 -5.750000e+000 -2.700000e+001
      vertex  2.875000e+000 -4.979646e+000 -2.700000e+001
    endloop
  endfacet
  facet normal  0.000000e+000  0.000000e+000 -1.000000e+000
    outer loop
      vertex  3.062700e+001 -2.700000e+000 -2.700000e+001
      vertex  2.875000e+000 -4.979646e+000 -2.700000e+001
      vertex  4.979646e+000 -2.875000e+000 -2.700000e+001
    endloop
  endfacet
  facet normal  0.000000e+000  0.000000e+000 -1.000000e+000
    outer loop
      vertex  3.062700e+001 -2.700000e+000 -2.700000e+001
      vertex  4.979646e+000 -2.875000e+000 -2.700000e+001
      vertex  5.750000e+000  3.520743e-016 -2.700000e+001
    endloop
  endfacet
  facet normal  0.000000e+000  0.000000e+000 -1.000000e+000
    outer loop
      vertex  3.062700e+001 -2.700000e+000 -2.700000e+001
      vertex  5.750000e+000  3.520743e-016 -2.700000e+001
      vertex  4.979646e+000  2.875000e+000 -2.700000e+001
    endloop
  endfacet
  facet normal  0.000000e+000  0.000000e+000 -1.000000e+000
    outer loop
      vertex  3.062700e+001 -2.700000e+000 -2.700000e+001
      vertex  4.979646e+000  2.875000e+000 -2.700000e+001
      vertex  3.062700e+001  2.700000e+000 -2.700000e+001
    endloop
  endfacet
  facet normal  0.000000e+000  0.000000e+000 -1.000000e+000
    outer loop
      vertex  3.062700e+001  2.700000e+000 -2.700000e+001
      vertex  4.979646e+000  2.875000e+000 -2.700000e+001
      vertex  2.875000e+000  4.979646e+000 -2.700000e+001
    endloop
  endfacet
  facet normal  0.000000e+000  0.000000e+000 -1.000000e+000
    outer loop
      vertex  3.062700e+001  2.700000e+000 -2.700000e+001
      vertex  2.875000e+000  4.979646e+000 -2.700000e+001
      vertex  0.000000e+000  5.750000e+000 -2.700000e+001
    endloop
  endfacet
  facet normal  0.000000e+000  0.000000e+000 -1.000000e+000
    outer loop
      vertex  3.062700e+001  2.700000e+000 -2.700000e+001
      vertex  0.000000e+000  5.750000e+000 -2.700000e+001
      vertex -2.000000e+001  3.450000e+001 -2.700000e+001
    endloop
  endfacet
  facet normal  0.000000e+000  0.000000e+000 -1.000000e+000
    outer loop
      vertex  3.062700e+001  2.700000e+000 -2.700000e+001
      vertex -2.000000e+001  3.450000e+001 -2.700000e+001
      vertex  3.925000e+001  2.000000e+001 -2.700000e+001
    endloop
  endfacet
  facet normal  0.000000e+000  -0.000000e+000 -1.000000e+000
    outer loop
      vertex  3.062700e+001  2.700000e+000 -2.700000e+001
      vertex  3.925000e+001  2.000000e+001 -2.700000e+001
      vertex  4.002036e+001  1.712500e+001 -2.700000e+001
    endloop
  endfacet
  facet normal  0.000000e+000  -0.000000e+000 -1.000000e+000
    outer loop
      vertex  3.062700e+001  2.700000e+000 -2.700000e+001
      vertex  4.002036e+001  1.712500e+001 -2.700000e+001
      vertex  4.212500e+001  1.502035e+001 -2.700000e+001
    endloop
  endfacet
  facet normal  0.000000e+000  -0.000000e+000 -1.000000e+000
    outer loop
      vertex  3.062700e+001  2.700000e+000 -2.700000e+001
      vertex  4.212500e+001  1.502035e+001 -2.700000e+001
      vertex  4.500000e+001  1.425000e+001 -2.700000e+001
    endloop
  endfacet
  facet normal  0.000000e+000  -0.000000e+000 -9.999999e-001
    outer loop
      vertex  3.062700e+001  2.700000e+000 -2.700000e+001
      vertex  4.500000e+001  1.425000e+001 -2.700000e+001
      vertex  4.787500e+001  1.502035e+001 -2.700000e+001
    endloop
  endfacet
  facet normal  0.000000e+000  0.000000e+000 -1.000000e+000
    outer loop
      vertex  5.412700e+001 -2.700000e+000 -2.700000e+001
      vertex  5.075000e+001 -2.000000e+001 -2.700000e+001
      vertex  4.997964e+001 -1.712500e+001 -2.700000e+001
    endloop
  endfacet
  facet normal  0.000000e+000  0.000000e+000 -1.000000e+000
    outer loop
      vertex  5.412700e+001 -2.700000e+000 -2.700000e+001
      vertex  4.997964e+001 -1.712500e+001 -2.700000e+001
      vertex  4.787500e+001 -1.502035e+001 -2.700000e+001
    endloop
  endfacet
  facet normal  0.000000e+000  0.000000e+000 -1.000000e+000
    outer loop
      vertex  5.412700e+001 -2.700000e+000 -2.700000e+001
      vertex  4.787500e+001 -1.502035e+001 -2.700000e+001
      vertex  3.062700e+001 -2.700000e+000 -2.700000e+001
    endloop
  endfacet
  facet normal  0.000000e+000  0.000000e+000 -1.000000e+000
    outer loop
      vertex  6.500000e+001 -3.450000e+001 -2.700000e+001
      vertex -2.000000e+001 -3.450000e+001 -2.700000e+001
      vertex  4.500000e+001 -2.575000e+001 -2.700000e+001
    endloop
  endfacet
  facet normal  0.000000e+000  0.000000e+000 -1.000000e+000
    outer loop
      vertex  6.500000e+001 -3.450000e+001 -2.700000e+001
      vertex  4.500000e+001 -2.575000e+001 -2.700000e+001
      vertex  4.787500e+001 -2.497965e+001 -2.700000e+001
    endloop
  endfacet
  facet normal  0.000000e+000  0.000000e+000 -1.000000e+000
    outer loop
      vertex  6.500000e+001 -3.450000e+001 -2.700000e+001
      vertex  4.787500e+001 -2.497965e+001 -2.700000e+001
      vertex  4.997964e+001 -2.287500e+001 -2.700000e+001
    endloop
  endfacet
  facet normal  0.000000e+000  0.000000e+000 -1.000000e+000
    outer loop
      vertex  6.500000e+001 -3.450000e+001 -2.700000e+001
      vertex  4.997964e+001 -2.287500e+001 -2.700000e+001
      vertex  5.075000e+001 -2.000000e+001 -2.700000e+001
    endloop
  endfacet
  facet normal  0.000000e+000  0.000000e+000 -1.000000e+000
    outer loop
      vertex  6.500000e+001 -3.450000e+001 -2.700000e+001
      vertex  5.075000e+001 -2.000000e+001 -2.700000e+001
      vertex  5.412700e+001 -2.700000e+000 -2.700000e+001
    endloop
  endfacet
  facet normal  0.000000e+000  0.000000e+000 -1.000000e+000
    outer loop
      vertex  6.500000e+001 -3.450000e+001 -2.700000e+001
      vertex  5.412700e+001 -2.700000e+000 -2.700000e+001
      vertex  5.412700e+001  2.700000e+000 -2.700000e+001
    endloop
  endfacet
  facet normal  0.000000e+000  0.000000e+000 -1.000000e+000
    outer loop
      vertex  6.500000e+001 -3.450000e+001 -2.700000e+001
      vertex  5.412700e+001  2.700000e+000 -2.700000e+001
      vertex  5.075000e+001  2.000000e+001 -2.700000e+001
    endloop
  endfacet
  facet normal  0.000000e+000  0.000000e+000 -1.000000e+000
    outer loop
      vertex  6.500000e+001 -3.450000e+001 -2.700000e+001
      vertex  5.075000e+001  2.000000e+001 -2.700000e+001
      vertex  6.500000e+001  3.450000e+001 -2.700000e+001
    endloop
  endfacet
  facet normal  -0.000000e+000  0.000000e+000 -1.000000e+000
    outer loop
      vertex -2.000000e+001  3.450000e+001 -2.700000e+001
      vertex  0.000000e+000  5.750000e+000 -2.700000e+001
      vertex -2.875000e+000  4.979646e+000 -2.700000e+001
    endloop
  endfacet
  facet normal  -0.000000e+000  0.000000e+000 -1.000000e+000
    outer loop
      vertex -2.000000e+001  3.450000e+001 -2.700000e+001
      vertex -2.875000e+000  4.979646e+000 -2.700000e+001
      vertex -4.979646e+000  2.875000e+000 -2.700000e+001
    endloop
  endfacet
  facet normal  -0.000000e+000  0.000000e+000 -1.000000e+000
    outer loop
      vertex -2.000000e+001  3.450000e+001 -2.700000e+001
      vertex -4.979646e+000  2.875000e+000 -2.700000e+001
      vertex -2.000000e+001 -3.450000e+001 -2.700000e+001
    endloop
  endfacet
  facet normal  0.000000e+000  0.000000e+000 -1.000000e+000
    outer loop
      vertex -2.000000e+001 -3.450000e+001 -2.700000e+001
      vertex -4.979646e+000  2.875000e+000 -2.700000e+001
      vertex -5.750000e+000 -1.056223e-015 -2.700000e+001
    endloop
  endfacet
  facet normal  0.000000e+000  -0.000000e+000 -1.000000e+000
    outer loop
      vertex -2.000000e+001 -3.450000e+001 -2.700000e+001
      vertex -5.750000e+000 -1.056223e-015 -2.700000e+001
      vertex -4.979646e+000 -2.875000e+000 -2.700000e+001
    endloop
  endfacet
  facet normal  0.000000e+000  -0.000000e+000 -1.000000e+000
    outer loop
      vertex -2.000000e+001 -3.450000e+001 -2.700000e+001
      vertex -4.979646e+000 -2.875000e+000 -2.700000e+001
      vertex -2.875000e+000 -4.979646e+000 -2.700000e+001
    endloop
  endfacet
  facet normal  0.000000e+000  -0.000000e+000 -1.000000e+000
    outer loop
      vertex -2.000000e+001 -3.450000e+001 -2.700000e+001
      vertex -2.875000e+000 -4.979646e+000 -2.700000e+001
      vertex  7.041487e-016 -5.750000e+000 -2.700000e+001
    endloop
  endfacet
  facet normal  0.000000e+000  -0.000000e+000 -1.000000e+000
    outer loop
      vertex -2.000000e+001 -3.450000e+001 -2.700000e+001
      vertex  7.041487e-016 -5.750000e+000 -2.700000e+001
      vertex  3.925000e+001 -2.000000e+001 -2.700000e+001
    endloop
  endfacet
  facet normal  0.000000e+000  -0.000000e+000 -1.000000e+000
    outer loop
      vertex -2.000000e+001 -3.450000e+001 -2.700000e+001
      vertex  3.925000e+001 -2.000000e+001 -2.700000e+001
      vertex  4.002036e+001 -2.287500e+001 -2.700000e+001
    endloop
  endfacet
  facet normal  0.000000e+000  -0.000000e+000 -1.000000e+000
    outer loop
      vertex -2.000000e+001 -3.450000e+001 -2.700000e+001
      vertex  4.002036e+001 -2.287500e+001 -2.700000e+001
      vertex  4.212500e+001 -2.497965e+001 -2.700000e+001
    endloop
  endfacet
  facet normal  0.000000e+000  -0.000000e+000 -1.000000e+000
    outer loop
      vertex -2.000000e+001 -3.450000e+001 -2.700000e+001
      vertex  4.212500e+001 -2.497965e+001 -2.700000e+001
      vertex  4.500000e+001 -2.575000e+001 -2.700000e+001
    endloop
  endfacet
  facet normal  0.000000e+000  0.000000e+000 -1.000000e+000
    outer loop
      vertex  5.412700e+001  2.700000e+000 -2.700000e+001
      vertex  3.062700e+001  2.700000e+000 -2.700000e+001
      vertex  4.787500e+001  1.502035e+001 -2.700000e+001
    endloop
  endfacet
  facet normal  0.000000e+000  0.000000e+000 -1.000000e+000
    outer loop
      vertex  5.412700e+001  2.700000e+000 -2.700000e+001
      vertex  4.787500e+001  1.502035e+001 -2.700000e+001
      vertex  4.997964e+001  1.712500e+001 -2.700000e+001
    endloop
  endfacet
  facet normal  0.000000e+000  0.000000e+000 -1.000000e+000
    outer loop
      vertex  5.412700e+001  2.700000e+000 -2.700000e+001
      vertex  4.997964e+001  1.712500e+001 -2.700000e+001
      vertex  5.075000e+001  2.000000e+001 -2.700000e+001
    endloop
  endfacet
  facet normal  -0.000000e+000  0.000000e+000 -1.000000e+000
    outer loop
      vertex -2.000000e+001  3.450000e+001 -2.700000e+001
      vertex  4.500000e+001  2.575000e+001 -2.700000e+001
      vertex  4.212500e+001  2.497965e+001 -2.700000e+001
    endloop
  endfacet
  facet normal  -0.000000e+000  0.000000e+000 -1.000000e+000
    outer loop
      vertex -2.000000e+001  3.450000e+001 -2.700000e+001
      vertex  4.212500e+001  2.497965e+001 -2.700000e+001
      vertex  4.002036e+001  2.287500e+001 -2.700000e+001
    endloop
  endfacet
  facet normal  -0.000000e+000  0.000000e+000 -1.000000e+000
    outer loop
      vertex -2.000000e+001  3.450000e+001 -2.700000e+001
      vertex  4.002036e+001  2.287500e+001 -2.700000e+001
      vertex  3.925000e+001  2.000000e+001 -2.700000e+001
    endloop
  endfacet
  facet normal  0.000000e+000  0.000000e+000 -1.000000e+000
    outer loop
      vertex  6.500000e+001  3.450000e+001 -2.700000e+001
      vertex  5.075000e+001  2.000000e+001 -2.700000e+001
      vertex  4.997964e+001  2.287500e+001 -2.700000e+001
    endloop
  endfacet
  facet normal  0.000000e+000  0.000000e+000 -1.000000e+000
    outer loop
      vertex  6.500000e+001  3.450000e+001 -2.700000e+001
      vertex  4.997964e+001  2.287500e+001 -2.700000e+001
      vertex  4.787500e+001  2.497965e+001 -2.700000e+001
    endloop
  endfacet
  facet normal  0.000000e+000  0.000000e+000 -1.000000e+000
    outer loop
      vertex  6.500000e+001  3.450000e+001 -2.700000e+001
      vertex  4.787500e+001  2.497965e+001 -2.700000e+001
      vertex  4.500000e+001  2.575000e+001 -2.700000e+001
    endloop
  endfacet
  facet normal  0.000000e+000  0.000000e+000 -1.000000e+000
    outer loop
      vertex  6.500000e+001  3.450000e+001 -2.700000e+001
      vertex  4.500000e+001  2.575000e+001 -2.700000e+001
      vertex -2.000000e+001  3.450000e+001 -2.700000e+001
    endloop
  endfacet
  facet normal -9.659256e-001  2.588194e-001  0.000000e+000
    outer loop
      vertex  5.075000e+001 -2.000000e+001 -1.700000e+001
      vertex  4.997964e+001 -2.287500e+001 -2.700000e+001
      vertex  4.997964e+001 -2.287500e+001 -1.700000e+001
    endloop
  endfacet
  facet normal -7.071071e-001  7.071065e-001  0.000000e+000
    outer loop
      vertex  4.997964e+001 -2.287500e+001 -1.700000e+001
      vertex  4.997964e+001 -2.287500e+001 -2.700000e+001
      vertex  4.787500e+001 -2.497965e+001 -2.700000e+001
    endloop
  endfacet
  facet normal -7.071071e-001  7.071065e-001  0.000000e+000
    outer loop
      vertex  4.997964e+001 -2.287500e+001 -1.700000e+001
      vertex  4.787500e+001 -2.497965e+001 -2.700000e+001
      vertex  4.787500e+001 -2.497965e+001 -1.700000e+001
    endloop
  endfacet
  facet normal -2.588188e-001  9.659259e-001  0.000000e+000
    outer loop
      vertex  4.787500e+001 -2.497965e+001 -1.700000e+001
      vertex  4.787500e+001 -2.497965e+001 -2.700000e+001
      vertex  4.500000e+001 -2.575000e+001 -2.700000e+001
    endloop
  endfacet
  facet normal -2.588188e-001  9.659259e-001  0.000000e+000
    outer loop
      vertex  4.787500e+001 -2.497965e+001 -1.700000e+001
      vertex  4.500000e+001 -2.575000e+001 -2.700000e+001
      vertex  4.500000e+001 -2.575000e+001 -1.700000e+001
    endloop
  endfacet
  facet normal -9.659256e-001  2.588194e-001  0.000000e+000
    outer loop
      vertex  4.997964e+001 -2.287500e+001 -2.700000e+001
      vertex  5.075000e+001 -2.000000e+001 -1.700000e+001
      vertex  5.075000e+001 -2.000000e+001 -2.700000e+001
    endloop
  endfacet
  facet normal -9.659256e-001 -2.588194e-001  0.000000e+000
    outer loop
      vertex  5.075000e+001 -2.000000e+001 -2.700000e+001
      vertex  5.075000e+001 -2.000000e+001 -1.700000e+001
      vertex  4.997964e+001 -1.712500e+001 -1.700000e+001
    endloop
  endfacet
  facet normal -9.659256e-001 -2.588194e-001  -0.000000e+000
    outer loop
      vertex  5.075000e+001 -2.000000e+001 -2.700000e+001
      vertex  4.997964e+001 -1.712500e+001 -1.700000e+001
      vertex  4.997964e+001 -1.712500e+001 -2.700000e+001
    endloop
  endfacet
  facet normal -7.071069e-001 -7.071066e-001  0.000000e+000
    outer loop
      vertex  4.997964e+001 -1.712500e+001 -2.700000e+001
      vertex  4.997964e+001 -1.712500e+001 -1.700000e+001
      vertex  4.787500e+001 -1.502035e+001 -1.700000e+001
    endloop
  endfacet
  facet normal -7.071069e-001 -7.071066e-001  -0.000000e+000
    outer loop
      vertex  4.997964e+001 -1.712500e+001 -2.700000e+001
      vertex  4.787500e+001 -1.502035e+001 -1.700000e+001
      vertex  4.787500e+001 -1.502035e+001 -2.700000e+001
    endloop
  endfacet
  facet normal -2.588192e-001 -9.659259e-001  0.000000e+000
    outer loop
      vertex  4.787500e+001 -1.502035e+001 -2.700000e+001
      vertex  4.787500e+001 -1.502035e+001 -1.700000e+001
      vertex  4.500000e+001 -1.425000e+001 -1.700000e+001
    endloop
  endfacet
  facet normal -2.588192e-001 -9.659259e-001  -0.000000e+000
    outer loop
      vertex  4.787500e+001 -1.502035e+001 -2.700000e+001
      vertex  4.500000e+001 -1.425000e+001 -1.700000e+001
      vertex  4.500000e+001 -1.425000e+001 -2.700000e+001
    endloop
  endfacet
  facet normal  9.659256e-001 -2.588194e-001  0.000000e+000
    outer loop
      vertex  3.925000e+001 -2.000000e+001 -1.700000e+001
      vertex  4.002036e+001 -1.712500e+001 -2.700000e+001
      vertex  4.002036e+001 -1.712500e+001 -1.700000e+001
    endloop
  endfacet
  facet normal  7.071069e-001 -7.071066e-001  0.000000e+000
    outer loop
      vertex  4.002036e+001 -1.712500e+001 -1.700000e+001
      vertex  4.002036e+001 -1.712500e+001 -2.700000e+001
      vertex  4.212500e+001 -1.502035e+001 -2.700000e+001
    endloop
  endfacet
  facet normal  7.071069e-001 -7.071066e-001  0.000000e+000
    outer loop
      vertex  4.002036e+001 -1.712500e+001 -1.700000e+001
      vertex  4.212500e+001 -1.502035e+001 -2.700000e+001
      vertex  4.212500e+001 -1.502035e+001 -1.700000e+001
    endloop
  endfacet
  facet normal  2.588192e-001 -9.659259e-001  0.000000e+000
    outer loop
      vertex  4.212500e+001 -1.502035e+001 -1.700000e+001
      vertex  4.212500e+001 -1.502035e+001 -2.700000e+001
      vertex  4.500000e+001 -1.425000e+001 -2.700000e+001
    endloop
  endfacet
  facet normal  2.588192e-001 -9.659259e-001  0.000000e+000
    outer loop
      vertex  4.212500e+001 -1.502035e+001 -1.700000e+001
      vertex  4.500000e+001 -1.425000e+001 -2.700000e+001
      vertex  4.500000e+001 -1.425000e+001 -1.700000e+001
    endloop
  endfacet
  facet normal  9.659256e-001 -2.588194e-001  0.000000e+000
    outer loop
      vertex  4.002036e+001 -1.712500e+001 -2.700000e+001
      vertex  3.925000e+001 -2.000000e+001 -1.700000e+001
      vertex  3.925000e+001 -2.000000e+001 -2.700000e+001
    endloop
  endfacet
  facet normal  9.659256e-001  2.588194e-001  -0.000000e+000
    outer loop
      vertex  3.925000e+001 -2.000000e+001 -2.700000e+001
      vertex  3.925000e+001 -2.000000e+001 -1.700000e+001
      vertex  4.002036e+001 -2.287500e+001 -1.700000e+001
    endloop
  endfacet
  facet normal  9.659256e-001  2.588194e-001  0.000000e+000
    outer loop
      vertex  3.925000e+001 -2.000000e+001 -2.700000e+001
      vertex  4.002036e+001 -2.287500e+001 -1.700000e+001
      vertex  4.002036e+001 -2.287500e+001 -2.700000e+001
    endloop
  endfacet
  facet normal  7.071071e-001  7.071065e-001  -0.000000e+000
    outer loop
      vertex  4.002036e+001 -2.287500e+001 -2.700000e+001
      vertex  4.002036e+001 -2.287500e+001 -1.700000e+001
      vertex  4.212500e+001 -2.497965e+001 -1.700000e+001
    endloop
  endfacet
  facet normal  7.071071e-001  7.071065e-001  0.000000e+000
    outer loop
      vertex  4.002036e+001 -2.287500e+001 -2.700000e+001
      vertex  4.212500e+001 -2.497965e+001 -1.700000e+001
      vertex  4.212500e+001 -2.497965e+001 -2.700000e+001
    endloop
  endfacet
  facet normal  2.588188e-001  9.659259e-001  -0.000000e+000
    outer loop
      vertex  4.212500e+001 -2.497965e+001 -2.700000e+001
      vertex  4.212500e+001 -2.497965e+001 -1.700000e+001
      vertex  4.500000e+001 -2.575000e+001 -1.700000e+001
    endloop
  endfacet
  facet normal  2.588188e-001  9.659259e-001  0.000000e+000
    outer loop
      vertex  4.212500e+001 -2.497965e+001 -2.700000e+001
      vertex  4.500000e+001 -2.575000e+001 -1.700000e+001
      vertex  4.500000e+001 -2.575000e+001 -2.700000e+001
    endloop
  endfacet
  facet normal  9.659256e-001 -2.588194e-001  0.000000e+000
    outer loop
      vertex  3.925000e+001  2.000000e+001 -1.700000e+001
      vertex  4.002036e+001  2.287500e+001 -2.700000e+001
      vertex  4.002036e+001  2.287500e+001 -1.700000e+001
    endloop
  endfacet
  facet normal  7.071071e-001 -7.071065e-001  0.000000e+000
    outer loop
      vertex  4.002036e+001  2.287500e+001 -1.700000e+001
      vertex  4.002036e+001  2.287500e+001 -2.700000e+001
      vertex  4.212500e+001  2.497965e+001 -2.700000e+001
    endloop
  endfacet
  facet normal  7.071071e-001 -7.071065e-001  0.000000e+000
    outer loop
      vertex  4.002036e+001  2.287500e+001 -1.700000e+001
      vertex  4.212500e+001  2.497965e+001 -2.700000e+001
      vertex  4.212500e+001  2.497965e+001 -1.700000e+001
    endloop
  endfacet
  facet normal  2.588188e-001 -9.659259e-001  0.000000e+000
    outer loop
      vertex  4.212500e+001  2.497965e+001 -1.700000e+001
      vertex  4.212500e+001  2.497965e+001 -2.700000e+001
      vertex  4.500000e+001  2.575000e+001 -2.700000e+001
    endloop
  endfacet
  facet normal  2.588188e-001 -9.659259e-001  0.000000e+000
    outer loop
      vertex  4.212500e+001  2.497965e+001 -1.700000e+001
      vertex  4.500000e+001  2.575000e+001 -2.700000e+001
      vertex  4.500000e+001  2.575000e+001 -1.700000e+001
    endloop
  endfacet
  facet normal  9.659256e-001 -2.588194e-001  0.000000e+000
    outer loop
      vertex  4.002036e+001  2.287500e+001 -2.700000e+001
      vertex  3.925000e+001  2.000000e+001 -1.700000e+001
      vertex  3.925000e+001  2.000000e+001 -2.700000e+001
    endloop
  endfacet
  facet normal  9.659256e-001  2.588194e-001  -0.000000e+000
    outer loop
      vertex  3.925000e+001  2.000000e+001 -2.700000e+001
      vertex  3.925000e+001  2.000000e+001 -1.700000e+001
      vertex  4.002036e+001  1.712500e+001 -1.700000e+001
    endloop
  endfacet
  facet normal  9.659256e-001  2.588194e-001  0.000000e+000
    outer loop
      vertex  3.925000e+001  2.000000e+001 -2.700000e+001
      vertex  4.002036e+001  1.712500e+001 -1.700000e+001
      vertex  4.002036e+001  1.712500e+001 -2.700000e+001
    endloop
  endfacet
  facet normal  7.071069e-001  7.071066e-001  -0.000000e+000
    outer loop
      vertex  4.002036e+001  1.712500e+001 -2.700000e+001
      vertex  4.002036e+001  1.712500e+001 -1.700000e+001
      vertex  4.212500e+001  1.502035e+001 -1.700000e+001
    endloop
  endfacet
  facet normal  7.071069e-001  7.071066e-001  0.000000e+000
    outer loop
      vertex  4.002036e+001  1.712500e+001 -2.700000e+001
      vertex  4.212500e+001  1.502035e+001 -1.700000e+001
      vertex  4.212500e+001  1.502035e+001 -2.700000e+001
    endloop
  endfacet
  facet normal  2.588192e-001  9.659259e-001  -0.000000e+000
    outer loop
      vertex  4.212500e+001  1.502035e+001 -2.700000e+001
      vertex  4.212500e+001  1.502035e+001 -1.700000e+001
      vertex  4.500000e+001  1.425000e+001 -1.700000e+001
    endloop
  endfacet
  facet normal  2.588192e-001  9.659259e-001  0.000000e+000
    outer loop
      vertex  4.212500e+001  1.502035e+001 -2.700000e+001
      vertex  4.500000e+001  1.425000e+001 -1.700000e+001
      vertex  4.500000e+001  1.425000e+001 -2.700000e+001
    endloop
  endfacet
  facet normal -9.659256e-001  2.588194e-001  0.000000e+000
    outer loop
      vertex  5.075000e+001  2.000000e+001 -1.700000e+001
      vertex  4.997964e+001  1.712500e+001 -2.700000e+001
      vertex  4.997964e+001  1.712500e+001 -1.700000e+001
    endloop
  endfacet
  facet normal -7.071069e-001  7.071066e-001  0.000000e+000
    outer loop
      vertex  4.997964e+001  1.712500e+001 -1.700000e+001
      vertex  4.997964e+001  1.712500e+001 -2.700000e+001
      vertex  4.787500e+001  1.502035e+001 -2.700000e+001
    endloop
  endfacet
  facet normal -7.071069e-001  7.071066e-001  0.000000e+000
    outer loop
      vertex  4.997964e+001  1.712500e+001 -1.700000e+001
      vertex  4.787500e+001  1.502035e+001 -2.700000e+001
      vertex  4.787500e+001  1.502035e+001 -1.700000e+001
    endloop
  endfacet
  facet normal -2.588192e-001  9.659259e-001  0.000000e+000
    outer loop
      vertex  4.787500e+001  1.502035e+001 -1.700000e+001
      vertex  4.787500e+001  1.502035e+001 -2.700000e+001
      vertex  4.500000e+001  1.425000e+001 -2.700000e+001
    endloop
  endfacet
  facet normal -2.588192e-001  9.659259e-001  0.000000e+000
    outer loop
      vertex  4.787500e+001  1.502035e+001 -1.700000e+001
      vertex  4.500000e+001  1.425000e+001 -2.700000e+001
      vertex  4.500000e+001  1.425000e+001 -1.700000e+001
    endloop
  endfacet
  facet normal -9.659256e-001  2.588194e-001  0.000000e+000
    outer loop
      vertex  4.997964e+001  1.712500e+001 -2.700000e+001
      vertex  5.075000e+001  2.000000e+001 -1.700000e+001
      vertex  5.075000e+001  2.000000e+001 -2.700000e+001
    endloop
  endfacet
  facet normal -9.659256e-001 -2.588194e-001  0.000000e+000
    outer loop
      vertex  5.075000e+001  2.000000e+001 -2.700000e+001
      vertex  5.075000e+001  2.000000e+001 -1.700000e+001
      vertex  4.997964e+001  2.287500e+001 -1.700000e+001
    endloop
  endfacet
  facet normal -9.659256e-001 -2.588194e-001  -0.000000e+000
    outer loop
      vertex  5.075000e+001  2.000000e+001 -2.700000e+001
      vertex  4.997964e+001  2.287500e+001 -1.700000e+001
      vertex  4.997964e+001  2.287500e+001 -2.700000e+001
    endloop
  endfacet
  facet normal -7.071071e-001 -7.071065e-001  0.000000e+000
    outer loop
      vertex  4.997964e+001  2.287500e+001 -2.700000e+001
      vertex  4.997964e+001  2.287500e+001 -1.700000e+001
      vertex  4.787500e+001  2.497965e+001 -1.700000e+001
    endloop
  endfacet
  facet normal -7.071071e-001 -7.071065e-001  -0.000000e+000
    outer loop
      vertex  4.997964e+001  2.287500e+001 -2.700000e+001
      vertex  4.787500e+001  2.497965e+001 -1.700000e+001
      vertex  4.787500e+001  2.497965e+001 -2.700000e+001
    endloop
  endfacet
  facet normal -2.588188e-001 -9.659259e-001  0.000000e+000
    outer loop
      vertex  4.787500e+001  2.497965e+001 -2.700000e+001
      vertex  4.787500e+001  2.497965e+001 -1.700000e+001
      vertex  4.500000e+001  2.575000e+001 -1.700000e+001
    endloop
  endfacet
  facet normal -2.588188e-001 -9.659259e-001  -0.000000e+000
    outer loop
      vertex  4.787500e+001  2.497965e+001 -2.700000e+001
      vertex  4.500000e+001  2.575000e+001 -1.700000e+001
      vertex  4.500000e+001  2.575000e+001 -2.700000e+001
    endloop
  endfacet
  facet normal  0.000000e+000  0.000000e+000 -1.000000e+000
    outer loop
      vertex  4.997964e+001 -2.287500e+001 -1.700000e+001
      vertex  4.997964e+001 -1.712500e+001 -1.700000e+001
      vertex  5.075000e+001 -2.000000e+001 -1.700000e+001
    endloop
  endfacet
  facet normal  0.000000e+000  0.000000e+000 -1.000000e+000
    outer loop
      vertex  4.997964e+001 -1.712500e+001 -1.700000e+001
      vertex  4.997964e+001 -2.287500e+001 -1.700000e+001
      vertex  4.787500e+001 -1.502035e+001 -1.700000e+001
    endloop
  endfacet
  facet normal  0.000000e+000  0.000000e+000 -1.000000e+000
    outer loop
      vertex  4.787500e+001 -1.502035e+001 -1.700000e+001
      vertex  4.997964e+001 -2.287500e+001 -1.700000e+001
      vertex  4.787500e+001 -2.497965e+001 -1.700000e+001
    endloop
  endfacet
  facet normal  0.000000e+000  0.000000e+000 -1.000000e+000
    outer loop
      vertex  4.787500e+001 -1.502035e+001 -1.700000e+001
      vertex  4.787500e+001 -2.497965e+001 -1.700000e+001
      vertex  4.500000e+001 -1.425000e+001 -1.700000e+001
    endloop
  endfacet
  facet normal  0.000000e+000  0.000000e+000 -1.000000e+000
    outer loop
      vertex  4.500000e+001 -1.425000e+001 -1.700000e+001
      vertex  4.787500e+001 -2.497965e+001 -1.700000e+001
      vertex  4.500000e+001 -2.575000e+001 -1.700000e+001
    endloop
  endfacet
  facet normal  0.000000e+000  0.000000e+000 -1.000000e+000
    outer loop
      vertex  4.500000e+001 -1.425000e+001 -1.700000e+001
      vertex  4.500000e+001 -2.575000e+001 -1.700000e+001
      vertex  4.212500e+001 -1.502035e+001 -1.700000e+001
    endloop
  endfacet
  facet normal  0.000000e+000  0.000000e+000 -1.000000e+000
    outer loop
      vertex  4.212500e+001 -1.502035e+001 -1.700000e+001
      vertex  4.500000e+001 -2.575000e+001 -1.700000e+001
      vertex  4.212500e+001 -2.497965e+001 -1.700000e+001
    endloop
  endfacet
  facet normal  0.000000e+000  0.000000e+000 -1.000000e+000
    outer loop
      vertex  4.212500e+001 -1.502035e+001 -1.700000e+001
      vertex  4.212500e+001 -2.497965e+001 -1.700000e+001
      vertex  4.002036e+001 -1.712500e+001 -1.700000e+001
    endloop
  endfacet
  facet normal  0.000000e+000  0.000000e+000 -1.000000e+000
    outer loop
      vertex  4.002036e+001 -1.712500e+001 -1.700000e+001
      vertex  4.212500e+001 -2.497965e+001 -1.700000e+001
      vertex  4.002036e+001 -2.287500e+001 -1.700000e+001
    endloop
  endfacet
  facet normal  0.000000e+000  0.000000e+000 -1.000000e+000
    outer loop
      vertex  4.002036e+001 -1.712500e+001 -1.700000e+001
      vertex  4.002036e+001 -2.287500e+001 -1.700000e+001
      vertex  3.925000e+001 -2.000000e+001 -1.700000e+001
    endloop
  endfacet
  facet normal  0.000000e+000  0.000000e+000 -1.000000e+000
    outer loop
      vertex  4.997964e+001  1.712500e+001 -1.700000e+001
      vertex  4.997964e+001  2.287500e+001 -1.700000e+001
      vertex  5.075000e+001  2.000000e+001 -1.700000e+001
    endloop
  endfacet
  facet normal  0.000000e+000  0.000000e+000 -1.000000e+000
    outer loop
      vertex  4.997964e+001  2.287500e+001 -1.700000e+001
      vertex  4.997964e+001  1.712500e+001 -1.700000e+001
      vertex  4.787500e+001  2.497965e+001 -1.700000e+001
    endloop
  endfacet
  facet normal  0.000000e+000  0.000000e+000 -1.000000e+000
    outer loop
      vertex  4.787500e+001  2.497965e+001 -1.700000e+001
      vertex  4.997964e+001  1.712500e+001 -1.700000e+001
      vertex  4.787500e+001  1.502035e+001 -1.700000e+001
    endloop
  endfacet
  facet normal  0.000000e+000  0.000000e+000 -1.000000e+000
    outer loop
      vertex  4.787500e+001  2.497965e+001 -1.700000e+001
      vertex  4.787500e+001  1.502035e+001 -1.700000e+001
      vertex  4.500000e+001  2.575000e+001 -1.700000e+001
    endloop
  endfacet
  facet normal  0.000000e+000  0.000000e+000 -1.000000e+000
    outer loop
      vertex  4.500000e+001  2.575000e+001 -1.700000e+001
      vertex  4.787500e+001  1.502035e+001 -1.700000e+001
      vertex  4.500000e+001  1.425000e+001 -1.700000e+001
    endloop
  endfacet
  facet normal  0.000000e+000  0.000000e+000 -1.000000e+000
    outer loop
      vertex  4.500000e+001  2.575000e+001 -1.700000e+001
      vertex  4.500000e+001  1.425000e+001 -1.700000e+001
      vertex  4.212500e+001  2.497965e+001 -1.700000e+001
    endloop
  endfacet
  facet normal  0.000000e+000  0.000000e+000 -1.000000e+000
    outer loop
      vertex  4.212500e+001  2.497965e+001 -1.700000e+001
      vertex  4.500000e+001  1.425000e+001 -1.700000e+001
      vertex  4.212500e+001  1.502035e+001 -1.700000e+001
    endloop
  endfacet
  facet normal  0.000000e+000  0.000000e+000 -1.000000e+000
    outer loop
      vertex  4.212500e+001  2.497965e+001 -1.700000e+001
      vertex  4.212500e+001  1.502035e+001 -1.700000e+001
      vertex  4.002036e+001  2.287500e+001 -1.700000e+001
    endloop
  endfacet
  facet normal  0.000000e+000  0.000000e+000 -1.000000e+000
    outer loop
      vertex  4.002036e+001  2.287500e+001 -1.700000e+001
      vertex  4.212500e+001  1.502035e+001 -1.700000e+001
      vertex  4.002036e+001  1.712500e+001 -1.700000e+001
    endloop
  endfacet
  facet normal  0.000000e+000  0.000000e+000 -1.000000e+000
    outer loop
      vertex  4.002036e+001  2.287500e+001 -1.700000e+001
      vertex  4.002036e+001  1.712500e+001 -1.700000e+001
      vertex  3.925000e+001  2.000000e+001 -1.700000e+001
    endloop
  endfacet
  facet normal  9.659259e-001 -2.588190e-001  0.000000e+000
    outer loop
      vertex -5.750000e+000 -1.056223e-015 -7.000000e+000
      vertex -4.979646e+000  2.875000e+000 -2.700000e+001
      vertex -4.979646e+000  2.875000e+000 -7.000000e+000
    endloop
  endfacet
  facet normal  7.071067e-001 -7.071067e-001  0.000000e+000
    outer loop
      vertex -4.979646e+000  2.875000e+000 -7.000000e+000
      vertex -4.979646e+000  2.875000e+000 -2.700000e+001
      vertex -2.875000e+000  4.979646e+000 -2.700000e+001
    endloop
  endfacet
  facet normal  7.071067e-001 -7.071067e-001  0.000000e+000
    outer loop
      vertex -4.979646e+000  2.875000e+000 -7.000000e+000
      vertex -2.875000e+000  4.979646e+000 -2.700000e+001
      vertex -2.875000e+000  4.979646e+000 -7.000000e+000
    endloop
  endfacet
  facet normal  2.588190e-001 -9.659259e-001  0.000000e+000
    outer loop
      vertex -2.875000e+000  4.979646e+000 -7.000000e+000
      vertex -2.875000e+000  4.979646e+000 -2.700000e+001
      vertex  0.000000e+000  5.750000e+000 -2.700000e+001
    endloop
  endfacet
  facet normal  2.588190e-001 -9.659259e-001  0.000000e+000
    outer loop
      vertex -2.875000e+000  4.979646e+000 -7.000000e+000
      vertex  0.000000e+000  5.750000e+000 -2.700000e+001
      vertex  0.000000e+000  5.750000e+000 -7.000000e+000
    endloop
  endfacet
  facet normal  9.659259e-001 -2.588190e-001  0.000000e+000
    outer loop
      vertex -4.979646e+000  2.875000e+000 -2.700000e+001
      vertex -5.750000e+000 -1.056223e-015 -7.000000e+000
      vertex -5.750000e+000 -1.056223e-015 -2.700000e+001
    endloop
  endfacet
  facet normal  9.659259e-001  2.588190e-001  -0.000000e+000
    outer loop
      vertex -5.750000e+000 -1.056223e-015 -2.700000e+001
      vertex -5.750000e+000 -1.056223e-015 -7.000000e+000
      vertex -4.979646e+000 -2.875000e+000 -7.000000e+000
    endloop
  endfacet
  facet normal  9.659259e-001  2.588190e-001  0.000000e+000
    outer loop
      vertex -5.750000e+000 -1.056223e-015 -2.700000e+001
      vertex -4.979646e+000 -2.875000e+000 -7.000000e+000
      vertex -4.979646e+000 -2.875000e+000 -2.700000e+001
    endloop
  endfacet
  facet normal  7.071067e-001  7.071067e-001  -0.000000e+000
    outer loop
      vertex -4.979646e+000 -2.875000e+000 -2.700000e+001
      vertex -4.979646e+000 -2.875000e+000 -7.000000e+000
      vertex -2.875000e+000 -4.979646e+000 -7.000000e+000
    endloop
  endfacet
  facet normal  7.071067e-001  7.071067e-001  0.000000e+000
    outer loop
      vertex -4.979646e+000 -2.875000e+000 -2.700000e+001
      vertex -2.875000e+000 -4.979646e+000 -7.000000e+000
      vertex -2.875000e+000 -4.979646e+000 -2.700000e+001
    endloop
  endfacet
  facet normal  2.588190e-001  9.659259e-001  -0.000000e+000
    outer loop
      vertex -2.875000e+000 -4.979646e+000 -2.700000e+001
      vertex -2.875000e+000 -4.979646e+000 -7.000000e+000
      vertex  7.041487e-016 -5.750000e+000 -7.000000e+000
    endloop
  endfacet
  facet normal  2.588190e-001  9.659259e-001  0.000000e+000
    outer loop
      vertex -2.875000e+000 -4.979646e+000 -2.700000e+001
      vertex  7.041487e-016 -5.750000e+000 -7.000000e+000
      vertex  7.041487e-016 -5.750000e+000 -2.700000e+001
    endloop
  endfacet
  facet normal -9.659259e-001  2.588190e-001  0.000000e+000
    outer loop
      vertex  5.750000e+000  3.520743e-016 -7.000000e+000
      vertex  4.979646e+000 -2.875000e+000 -2.700000e+001
      vertex  4.979646e+000 -2.875000e+000 -7.000000e+000
    endloop
  endfacet
  facet normal -7.071067e-001  7.071067e-001  0.000000e+000
    outer loop
      vertex  4.979646e+000 -2.875000e+000 -7.000000e+000
      vertex  4.979646e+000 -2.875000e+000 -2.700000e+001
      vertex  2.875000e+000 -4.979646e+000 -2.700000e+001
    endloop
  endfacet
  facet normal -7.071067e-001  7.071067e-001  0.000000e+000
    outer loop
      vertex  4.979646e+000 -2.875000e+000 -7.000000e+000
      vertex  2.875000e+000 -4.979646e+000 -2.700000e+001
      vertex  2.875000e+000 -4.979646e+000 -7.000000e+000
    endloop
  endfacet
  facet normal -2.588190e-001  9.659259e-001  0.000000e+000
    outer loop
      vertex  2.875000e+000 -4.979646e+000 -7.000000e+000
      vertex  2.875000e+000 -4.979646e+000 -2.700000e+001
      vertex  7.041487e-016 -5.750000e+000 -2.700000e+001
    endloop
  endfacet
  facet normal -2.588190e-001  9.659259e-001  0.000000e+000
    outer loop
      vertex  2.875000e+000 -4.979646e+000 -7.000000e+000
      vertex  7.041487e-016 -5.750000e+000 -2.700000e+001
      vertex  7.041487e-016 -5.750000e+000 -7.000000e+000
    endloop
  endfacet
  facet normal -9.659259e-001  2.588190e-001  0.000000e+000
    outer loop
      vertex  4.979646e+000 -2.875000e+000 -2.700000e+001
      vertex  5.750000e+000  3.520743e-016 -7.000000e+000
      vertex  5.750000e+000  3.520743e-016 -2.700000e+001
    endloop
  endfacet
  facet normal -9.659259e-001 -2.588190e-001  0.000000e+000
    outer loop
      vertex  5.750000e+000  3.520743e-016 -2.700000e+001
      vertex  5.750000e+000  3.520743e-016 -7.000000e+000
      vertex  4.979646e+000  2.875000e+000 -7.000000e+000
    endloop
  endfacet
  facet normal -9.659259e-001 -2.588190e-001  -0.000000e+000
    outer loop
      vertex  5.750000e+000  3.520743e-016 -2.700000e+001
      vertex  4.979646e+000  2.875000e+000 -7.000000e+000
      vertex  4.979646e+000  2.875000e+000 -2.700000e+001
    endloop
  endfacet
  facet normal -7.071067e-001 -7.071067e-001  0.000000e+000
    outer loop
      vertex  4.979646e+000  2.875000e+000 -2.700000e+001
      vertex  4.979646e+000  2.875000e+000 -7.000000e+000
      vertex  2.875000e+000  4.979646e+000 -7.000000e+000
    endloop
  endfacet
  facet normal -7.071067e-001 -7.071067e-001  -0.000000e+000
    outer loop
      vertex  4.979646e+000  2.875000e+000 -2.700000e+001
      vertex  2.875000e+000  4.979646e+000 -7.000000e+000
      vertex  2.875000e+000  4.979646e+000 -2.700000e+001
    endloop
  endfacet
  facet normal -2.588190e-001 -9.659259e-001  0.000000e+000
    outer loop
      vertex  2.875000e+000  4.979646e+000 -2.700000e+001
      vertex  2.875000e+000  4.979646e+000 -7.000000e+000
      vertex  0.000000e+000  5.750000e+000 -7.000000e+000
    endloop
  endfacet
  facet normal -2.588190e-001 -9.659259e-001  -0.000000e+000
    outer loop
      vertex  2.875000e+000  4.979646e+000 -2.700000e+001
      vertex  0.000000e+000  5.750000e+000 -7.000000e+000
      vertex  0.000000e+000  5.750000e+000 -2.700000e+001
    endloop
  endfacet
  facet normal  0.000000e+000  0.000000e+000 -1.000000e+000
    outer loop
      vertex  4.979646e+000 -2.875000e+000 -7.000000e+000
      vertex  4.979646e+000  2.875000e+000 -7.000000e+000
      vertex  5.750000e+000  3.520743e-016 -7.000000e+000
    endloop
  endfacet
  facet normal  0.000000e+000  0.000000e+000 -1.000000e+000
    outer loop
      vertex  4.979646e+000  2.875000e+000 -7.000000e+000
      vertex  4.979646e+000 -2.875000e+000 -7.000000e+000
      vertex  2.875000e+000  4.979646e+000 -7.000000e+000
    endloop
  endfacet
  facet normal  0.000000e+000  0.000000e+000 -1.000000e+000
    outer loop
      vertex  2.875000e+000  4.979646e+000 -7.000000e+000
      vertex  4.979646e+000 -2.875000e+000 -7.000000e+000
      vertex  2.875000e+000 -4.979646e+000 -7.000000e+000
    endloop
  endfacet
  facet normal  0.000000e+000  0.000000e+000 -1.000000e+000
    outer loop
      vertex  2.875000e+000  4.979646e+000 -7.000000e+000
      vertex  2.875000e+000 -4.979646e+000 -7.000000e+000
      vertex  0.000000e+000  5.750000e+000 -7.000000e+000
    endloop
  endfacet
  facet normal  0.000000e+000  0.000000e+000 -1.000000e+000
    outer loop
      vertex  0.000000e+000  5.750000e+000 -7.000000e+000
      vertex  2.875000e+000 -4.979646e+000 -7.000000e+000
      vertex  7.041487e-016 -5.750000e+000 -7.000000e+000
    endloop
  endfacet
  facet normal  0.000000e+000  0.000000e+000 -1.000000e+000
    outer loop
      vertex  0.000000e+000  5.750000e+000 -7.000000e+000
      vertex  7.041487e-016 -5.750000e+000 -7.000000e+000
      vertex -2.875000e+000  4.979646e+000 -7.000000e+000
    endloop
  endfacet
  facet normal  0.000000e+000  0.000000e+000 -1.000000e+000
    outer loop
      vertex -2.875000e+000  4.979646e+000 -7.000000e+000
      vertex  7.041487e-016 -5.750000e+000 -7.000000e+000
      vertex -2.875000e+000 -4.979646e+000 -7.000000e+000
    endloop
  endfacet
  facet normal  0.000000e+000  0.000000e+000 -1.000000e+000
    outer loop
      vertex -2.875000e+000  4.979646e+000 -7.000000e+000
      vertex -2.875000e+000 -4.979646e+000 -7.000000e+000
      vertex -4.979646e+000  2.875000e+000 -7.000000e+000
    endloop
  endfacet
  facet normal  0.000000e+000  0.000000e+000 -1.000000e+000
    outer loop
      vertex -4.979646e+000  2.875000e+000 -7.000000e+000
      vertex -2.875000e+000 -4.979646e+000 -7.000000e+000
      vertex -4.979646e+000 -2.875000e+000 -7.000000e+000
    endloop
  endfacet
  facet normal  0.000000e+000  0.000000e+000 -1.000000e+000
    outer loop
      vertex -4.979646e+000  2.875000e+000 -7.000000e+000
      vertex -4.979646e+000 -2.875000e+000 -7.000000e+000
      vertex -5.750000e+000 -1.056223e-015 -7.000000e+000
    endloop
  endfacet
  facet normal -1.000000e+000  0.000000e+000  0.000000e+000
    outer loop
      vertex -2.000000e+001  3.450000e+001 -2.700000e+001
      vertex -2.000000e+001 -3.450000e+001 -2.700000e+001
      vertex -2.000000e+001  3.450000e+001  4.540000e+001
    endloop
  endfacet
  facet normal -1.000000e+000  -0.000000e+000  0.000000e+000
    outer loop
      vertex -2.000000e+001  3.450000e+001  4.540000e+001
      vertex -2.000000e+001 -3.450000e+001 -2.700000e+001
      vertex -2.000000e+001 -3.450000e+001  4.540000e+001
    endloop
  endfacet
  facet normal  1.000000e+000  0.000000e+000  0.000000e+000
    outer loop
      vertex -1.000000e+001 -2.500000e+001  3.540000e+001
      vertex -1.000000e+001 -2.500000e+001  1.240000e+001
      vertex -1.000000e+001  2.500000e+001  3.540000e+001
    endloop
  endfacet
  facet normal  1.000000e+000  0.000000e+000  0.000000e+000
    outer loop
      vertex -1.000000e+001  2.500000e+001  3.540000e+001
      vertex -1.000000e+001 -2.500000e+001  1.240000e+001
      vertex -1.000000e+001  2.500000e+001  1.240000e+001
    endloop
  endfacet
  facet normal  0.000000e+000  -0.000000e+000  1.000000e+000
    outer loop
      vertex -1.000000e+001  2.500000e+001  1.240000e+001
      vertex  2.000000e+001  1.550000e+001  1.240000e+001
      vertex  2.000000e+001  2.500000e+001  1.240000e+001
    endloop
  endfacet
  facet normal  0.000000e+000  0.000000e+000  1.000000e+000
    outer loop
      vertex  2.000000e+001  1.550000e+001  1.240000e+001
      vertex -1.000000e+001  2.500000e+001  1.240000e+001
      vertex  1.065814e-014  1.550000e+001  1.240000e+001
    endloop
  endfacet
  facet normal  0.000000e+000  0.000000e+000  1.000000e+000
    outer loop
      vertex  1.065814e-014  1.550000e+001  1.240000e+001
      vertex -1.000000e+001  2.500000e+001  1.240000e+001
      vertex -1.000000e+001 -2.500000e+001  1.240000e+001
    endloop
  endfacet
  facet normal  0.000000e+000  0.000000e+000  1.000000e+000
    outer loop
      vertex  1.065814e-014  1.550000e+001  1.240000e+001
      vertex -1.000000e+001 -2.500000e+001  1.240000e+001
      vertex  1.065814e-014 -1.550000e+001  1.240000e+001
    endloop
  endfacet
  facet normal  0.000000e+000  0.000000e+000  1.000000e+000
    outer loop
      vertex  1.065814e-014 -1.550000e+001  1.240000e+001
      vertex -1.000000e+001 -2.500000e+001  1.240000e+001
      vertex  2.000000e+001 -2.500000e+001  1.240000e+001
    endloop
  endfacet
  facet normal  0.000000e+000  -0.000000e+000  1.000000e+000
    outer loop
      vertex  1.065814e-014 -1.550000e+001  1.240000e+001
      vertex  2.000000e+001 -2.500000e+001  1.240000e+001
      vertex  2.000000e+001 -1.550000e+001  1.240000e+001
    endloop
  endfacet
  facet normal  0.000000e+000 -1.000000e+000  -0.000000e+000
    outer loop
      vertex  2.000000e+001  1.550000e+001  3.191839e-015
      vertex  2.000000e+001  1.550000e+001  1.240000e+001
      vertex  0.000000e+000  1.550000e+001  0.000000e+000
    endloop
  endfacet
  facet normal  0.000000e+000 -1.000000e+000  0.000000e+000
    outer loop
      vertex  0.000000e+000  1.550000e+001  0.000000e+000
      vertex  2.000000e+001  1.550000e+001  1.240000e+001
      vertex  1.065814e-014  1.550000e+001  1.240000e+001
    endloop
  endfacet
  facet normal  0.000000e+000 -9.999999e-001  -0.000000e+000
    outer loop
      vertex  2.000000e+001  2.500000e+001  1.240000e+001
      vertex  2.000000e+001  2.500000e+001  3.540000e+001
      vertex -1.000000e+001  2.500000e+001  1.240000e+001
    endloop
  endfacet
  facet normal  0.000000e+000 -9.999999e-001  0.000000e+000
    outer loop
      vertex -1.000000e+001  2.500000e+001  1.240000e+001
      vertex  2.000000e+001  2.500000e+001  3.540000e+001
      vertex -1.000000e+001  2.500000e+001  3.540000e+001
    endloop
  endfacet
  facet normal -1.595919e-016  0.000000e+000  1.000000e+000
    outer loop
      vertex  0.000000e+000 -1.550000e+001  0.000000e+000
      vertex  2.000000e+001 -1.550000e+001  3.191839e-015
      vertex  0.000000e+000  1.550000e+001  0.000000e+000
    endloop
  endfacet
  facet normal -1.595919e-016  0.000000e+000  1.000000e+000
    outer loop
      vertex  0.000000e+000  1.550000e+001  0.000000e+000
      vertex  2.000000e+001 -1.550000e+001  3.191839e-015
      vertex  2.000000e+001  1.550000e+001  3.191839e-015
    endloop
  endfacet
  facet normal  1.000000e+000  0.000000e+000 -8.595275e-016
    outer loop
      vertex  1.065814e-014 -1.550000e+001  1.240000e+001
      vertex  0.000000e+000 -1.550000e+001  0.000000e+000
      vertex  1.065814e-014  1.550000e+001  1.240000e+001
    endloop
  endfacet
  facet normal  1.000000e+000  0.000000e+000 -8.595275e-016
    outer loop
      vertex  1.065814e-014  1.550000e+001  1.240000e+001
      vertex  0.000000e+000 -1.550000e+001  0.000000e+000
      vertex  0.000000e+000  1.550000e+001  0.000000e+000
    endloop
  endfacet
  facet normal  0.000000e+000  1.000000e+000  0.000000e+000
    outer loop
      vertex  2.000000e+001 -1.550000e+001  3.191839e-015
      vertex  0.000000e+000 -1.550000e+001  0.000000e+000
      vertex  2.000000e+001 -1.550000e+001  1.240000e+001
    endloop
  endfacet
  facet normal  0.000000e+000  1.000000e+000  0.000000e+000
    outer loop
      vertex  2.000000e+001 -1.550000e+001  1.240000e+001
      vertex  0.000000e+000 -1.550000e+001  0.000000e+000
      vertex  1.065814e-014 -1.550000e+001  1.240000e+001
    endloop
  endfacet
  facet normal  0.000000e+000  9.999999e-001  0.000000e+000
    outer loop
      vertex  2.000000e+001 -2.500000e+001  1.240000e+001
      vertex -1.000000e+001 -2.500000e+001  1.240000e+001
      vertex  2.000000e+001 -2.500000e+001  3.540000e+001
    endloop
  endfacet
  facet normal  0.000000e+000  9.999999e-001  0.000000e+000
    outer loop
      vertex  2.000000e+001 -2.500000e+001  3.540000e+001
      vertex -1.000000e+001 -2.500000e+001  1.240000e+001
      vertex -1.000000e+001 -2.500000e+001  3.540000e+001
    endloop
  endfacet
  facet normal  0.000000e+000  0.000000e+000 -1.000000e+000
    outer loop
      vertex  2.000000e+001 -2.500000e+001  3.540000e+001
      vertex -1.000000e+001 -2.500000e+001  3.540000e+001
      vertex  2.000000e+001  2.500000e+001  3.540000e+001
    endloop
  endfacet
  facet normal  -0.000000e+000  0.000000e+000 -1.000000e+000
    outer loop
      vertex  2.000000e+001  2.500000e+001  3.540000e+001
      vertex -1.000000e+001 -2.500000e+001  3.540000e+001
      vertex -1.000000e+001  2.500000e+001  3.540000e+001
    endloop
  endfacet
endsolid CATIA STL
