solid CATIA STL
  facet normal  0.000000e+000  1.000000e+000  0.000000e+000
    outer loop
      vertex  3.500000e+001  9.750000e+000  1.800000e+001
      vertex  3.500000e+001  9.750000e+000  2.300000e+001
      vertex  9.102782e+001  9.750000e+000  1.800000e+001
    endloop
  endfacet
  facet normal  0.000000e+000  1.000000e+000  -0.000000e+000
    outer loop
      vertex  9.102782e+001  9.750000e+000  1.800000e+001
      vertex  3.500000e+001  9.750000e+000  2.300000e+001
      vertex  9.102782e+001  9.750000e+000  2.300000e+001
    endloop
  endfacet
  facet normal  0.000000e+000 -1.000000e+000  -0.000000e+000
    outer loop
      vertex  9.102782e+001 -9.750000e+000  1.800000e+001
      vertex  9.102782e+001 -9.750000e+000  2.300000e+001
      vertex  3.500000e+001 -9.750000e+000  1.800000e+001
    endloop
  endfacet
  facet normal  0.000000e+000 -1.000000e+000  0.000000e+000
    outer loop
      vertex  3.500000e+001 -9.750000e+000  1.800000e+001
      vertex  9.102782e+001 -9.750000e+000  2.300000e+001
      vertex  3.500000e+001 -9.750000e+000  2.300000e+001
    endloop
  endfacet
  facet normal  0.000000e+000  0.000000e+000 -1.000000e+000
    outer loop
      vertex  1.068000e+002  0.000000e+000  1.800000e+001
      vertex  1.061266e+002  2.950409e+000  1.800000e+001
      vertex  1.072479e+002  1.109188e+001  1.800000e+001
    endloop
  endfacet
  facet normal  0.000000e+000  -0.000000e+000 -1.000000e+000
    outer loop
      vertex  1.068000e+002  0.000000e+000  1.800000e+001
      vertex  1.072479e+002  1.109188e+001  1.800000e+001
      vertex  1.104565e+002  8.137767e+000  1.800000e+001
    endloop
  endfacet
  facet normal  0.000000e+000  -0.000000e+000 -1.000000e+000
    outer loop
      vertex  1.068000e+002  0.000000e+000  1.800000e+001
      vertex  1.104565e+002  8.137767e+000  1.800000e+001
      vertex  1.125322e+002  4.301937e+000  1.800000e+001
    endloop
  endfacet
  facet normal  0.000000e+000  -0.000000e+000 -1.000000e+000
    outer loop
      vertex  1.068000e+002  0.000000e+000  1.800000e+001
      vertex  1.125322e+002  4.301937e+000  1.800000e+001
      vertex  1.132500e+002  0.000000e+000  1.800000e+001
    endloop
  endfacet
  facet normal  -0.000000e+000  0.000000e+000 -1.000000e+000
    outer loop
      vertex  1.068000e+002  0.000000e+000  1.800000e+001
      vertex  1.132500e+002  0.000000e+000  1.800000e+001
      vertex  1.125322e+002 -4.301937e+000  1.800000e+001
    endloop
  endfacet
  facet normal  -0.000000e+000  0.000000e+000 -1.000000e+000
    outer loop
      vertex  1.068000e+002  0.000000e+000  1.800000e+001
      vertex  1.125322e+002 -4.301937e+000  1.800000e+001
      vertex  1.104565e+002 -8.137767e+000  1.800000e+001
    endloop
  endfacet
  facet normal  -0.000000e+000  0.000000e+000 -1.000000e+000
    outer loop
      vertex  1.068000e+002  0.000000e+000  1.800000e+001
      vertex  1.104565e+002 -8.137767e+000  1.800000e+001
      vertex  1.072479e+002 -1.109188e+001  1.800000e+001
    endloop
  endfacet
  facet normal  0.000000e+000  0.000000e+000 -1.000000e+000
    outer loop
      vertex  1.068000e+002  0.000000e+000  1.800000e+001
      vertex  1.072479e+002 -1.109188e+001  1.800000e+001
      vertex  1.061266e+002 -2.950409e+000  1.800000e+001
    endloop
  endfacet
  facet normal  0.000000e+000  0.000000e+000 -9.999999e-001
    outer loop
      vertex  9.576027e+001  5.316454e+000  1.800000e+001
      vertex  9.387341e+001  2.950409e+000  1.800000e+001
      vertex  9.467946e+001  1.213484e+001  1.800000e+001
    endloop
  endfacet
  facet normal  0.000000e+000  0.000000e+000 -1.000000e+000
    outer loop
      vertex  9.467946e+001  1.213484e+001  1.800000e+001
      vertex  9.387341e+001  2.950409e+000  1.800000e+001
      vertex  9.320000e+001  8.327323e-016  1.800000e+001
    endloop
  endfacet
  facet normal  0.000000e+000  0.000000e+000 -1.000000e+000
    outer loop
      vertex  9.467946e+001  1.213484e+001  1.800000e+001
      vertex  9.320000e+001  8.327323e-016  1.800000e+001
      vertex  9.102782e+001  9.750000e+000  1.800000e+001
    endloop
  endfacet
  facet normal  0.000000e+000  -0.000000e+000 -1.000000e+000
    outer loop
      vertex  9.102782e+001  9.750000e+000  1.800000e+001
      vertex  9.320000e+001  8.327323e-016  1.800000e+001
      vertex  3.500000e+001 -9.750000e+000  1.800000e+001
    endloop
  endfacet
  facet normal  0.000000e+000  0.000000e+000 -1.000000e+000
    outer loop
      vertex  9.102782e+001  9.750000e+000  1.800000e+001
      vertex  3.500000e+001 -9.750000e+000  1.800000e+001
      vertex  3.500000e+001  9.750000e+000  1.800000e+001
    endloop
  endfacet
  facet normal  -0.000000e+000  0.000000e+000 -1.000000e+000
    outer loop
      vertex  9.848685e+001 -6.629510e+000  1.800000e+001
      vertex  1.015131e+002 -6.629510e+000  1.800000e+001
      vertex  9.890757e+001 -1.320489e+001  1.800000e+001
    endloop
  endfacet
  facet normal  0.000000e+000  0.000000e+000 -1.000000e+000
    outer loop
      vertex  9.890757e+001 -1.320489e+001  1.800000e+001
      vertex  1.015131e+002 -6.629510e+000  1.800000e+001
      vertex  1.042397e+002 -5.316454e+000  1.800000e+001
    endloop
  endfacet
  facet normal  0.000000e+000  0.000000e+000 -1.000000e+000
    outer loop
      vertex  9.890757e+001 -1.320489e+001  1.800000e+001
      vertex  1.042397e+002 -5.316454e+000  1.800000e+001
      vertex  1.032540e+002 -1.284421e+001  1.800000e+001
    endloop
  endfacet
  facet normal  0.000000e+000  0.000000e+000 -1.000000e+000
    outer loop
      vertex  1.032540e+002 -1.284421e+001  1.800000e+001
      vertex  1.042397e+002 -5.316454e+000  1.800000e+001
      vertex  1.061266e+002 -2.950409e+000  1.800000e+001
    endloop
  endfacet
  facet normal  0.000000e+000  -0.000000e+000 -1.000000e+000
    outer loop
      vertex  1.032540e+002 -1.284421e+001  1.800000e+001
      vertex  1.061266e+002 -2.950409e+000  1.800000e+001
      vertex  1.072479e+002 -1.109188e+001  1.800000e+001
    endloop
  endfacet
  facet normal  -0.000000e+000  0.000000e+000 -1.000000e+000
    outer loop
      vertex  9.387341e+001 -2.950409e+000  1.800000e+001
      vertex  9.576027e+001 -5.316454e+000  1.800000e+001
      vertex  9.467946e+001 -1.213484e+001  1.800000e+001
    endloop
  endfacet
  facet normal  0.000000e+000  0.000000e+000 -1.000000e+000
    outer loop
      vertex  9.467946e+001 -1.213484e+001  1.800000e+001
      vertex  9.576027e+001 -5.316454e+000  1.800000e+001
      vertex  9.848685e+001 -6.629510e+000  1.800000e+001
    endloop
  endfacet
  facet normal  0.000000e+000  -0.000000e+000 -1.000000e+000
    outer loop
      vertex  9.467946e+001 -1.213484e+001  1.800000e+001
      vertex  9.848685e+001 -6.629510e+000  1.800000e+001
      vertex  9.890757e+001 -1.320489e+001  1.800000e+001
    endloop
  endfacet
  facet normal  0.000000e+000  0.000000e+000 -1.000000e+000
    outer loop
      vertex  3.500000e+001 -9.750000e+000  1.800000e+001
      vertex  9.320000e+001  8.327323e-016  1.800000e+001
      vertex  9.102782e+001 -9.750000e+000  1.800000e+001
    endloop
  endfacet
  facet normal  0.000000e+000  0.000000e+000 -1.000000e+000
    outer loop
      vertex  9.102782e+001 -9.750000e+000  1.800000e+001
      vertex  9.320000e+001  8.327323e-016  1.800000e+001
      vertex  9.387341e+001 -2.950409e+000  1.800000e+001
    endloop
  endfacet
  facet normal  0.000000e+000  -0.000000e+000 -9.999999e-001
    outer loop
      vertex  9.102782e+001 -9.750000e+000  1.800000e+001
      vertex  9.387341e+001 -2.950409e+000  1.800000e+001
      vertex  9.467946e+001 -1.213484e+001  1.800000e+001
    endloop
  endfacet
  facet normal  0.000000e+000  -0.000000e+000 -1.000000e+000
    outer loop
      vertex  9.848685e+001  6.629510e+000  1.800000e+001
      vertex  9.890757e+001  1.320489e+001  1.800000e+001
      vertex  1.015131e+002  6.629510e+000  1.800000e+001
    endloop
  endfacet
  facet normal  0.000000e+000  0.000000e+000 -1.000000e+000
    outer loop
      vertex  1.015131e+002  6.629510e+000  1.800000e+001
      vertex  9.890757e+001  1.320489e+001  1.800000e+001
      vertex  1.032540e+002  1.284421e+001  1.800000e+001
    endloop
  endfacet
  facet normal  0.000000e+000  -0.000000e+000 -1.000000e+000
    outer loop
      vertex  1.015131e+002  6.629510e+000  1.800000e+001
      vertex  1.032540e+002  1.284421e+001  1.800000e+001
      vertex  1.042397e+002  5.316454e+000  1.800000e+001
    endloop
  endfacet
  facet normal  0.000000e+000  0.000000e+000 -1.000000e+000
    outer loop
      vertex  1.042397e+002  5.316454e+000  1.800000e+001
      vertex  1.032540e+002  1.284421e+001  1.800000e+001
      vertex  1.072479e+002  1.109188e+001  1.800000e+001
    endloop
  endfacet
  facet normal  0.000000e+000  0.000000e+000 -1.000000e+000
    outer loop
      vertex  1.042397e+002  5.316454e+000  1.800000e+001
      vertex  1.072479e+002  1.109188e+001  1.800000e+001
      vertex  1.061266e+002  2.950409e+000  1.800000e+001
    endloop
  endfacet
  facet normal  0.000000e+000  0.000000e+000 -1.000000e+000
    outer loop
      vertex  9.467946e+001  1.213484e+001  1.800000e+001
      vertex  9.890757e+001  1.320489e+001  1.800000e+001
      vertex  9.576027e+001  5.316454e+000  1.800000e+001
    endloop
  endfacet
  facet normal  0.000000e+000  0.000000e+000 -1.000000e+000
    outer loop
      vertex  9.576027e+001  5.316454e+000  1.800000e+001
      vertex  9.890757e+001  1.320489e+001  1.800000e+001
      vertex  9.848685e+001  6.629510e+000  1.800000e+001
    endloop
  endfacet
  facet normal  0.000000e+000  -0.000000e+000  1.000000e+000
    outer loop
      vertex  3.500000e+001 -9.750000e+000  2.300000e+001
      vertex  9.102782e+001 -9.750000e+000  2.300000e+001
      vertex  9.848685e+001 -6.629510e+000  2.300000e+001
    endloop
  endfacet
  facet normal  0.000000e+000  0.000000e+000  1.000000e+000
    outer loop
      vertex  3.500000e+001 -9.750000e+000  2.300000e+001
      vertex  9.848685e+001 -6.629510e+000  2.300000e+001
      vertex  9.576027e+001 -5.316454e+000  2.300000e+001
    endloop
  endfacet
  facet normal  0.000000e+000  0.000000e+000  1.000000e+000
    outer loop
      vertex  3.500000e+001 -9.750000e+000  2.300000e+001
      vertex  9.576027e+001 -5.316454e+000  2.300000e+001
      vertex  9.387341e+001 -2.950409e+000  2.300000e+001
    endloop
  endfacet
  facet normal  0.000000e+000  0.000000e+000  1.000000e+000
    outer loop
      vertex  3.500000e+001 -9.750000e+000  2.300000e+001
      vertex  9.387341e+001 -2.950409e+000  2.300000e+001
      vertex  9.320000e+001  8.327323e-016  2.300000e+001
    endloop
  endfacet
  facet normal  0.000000e+000  -0.000000e+000  1.000000e+000
    outer loop
      vertex  3.500000e+001 -9.750000e+000  2.300000e+001
      vertex  9.320000e+001  8.327323e-016  2.300000e+001
      vertex  9.387341e+001  2.950409e+000  2.300000e+001
    endloop
  endfacet
  facet normal  0.000000e+000  -0.000000e+000  1.000000e+000
    outer loop
      vertex  3.500000e+001 -9.750000e+000  2.300000e+001
      vertex  9.387341e+001  2.950409e+000  2.300000e+001
      vertex  9.576027e+001  5.316454e+000  2.300000e+001
    endloop
  endfacet
  facet normal  0.000000e+000  -0.000000e+000  1.000000e+000
    outer loop
      vertex  3.500000e+001 -9.750000e+000  2.300000e+001
      vertex  9.576027e+001  5.316454e+000  2.300000e+001
      vertex  9.848685e+001  6.629510e+000  2.300000e+001
    endloop
  endfacet
  facet normal  0.000000e+000  0.000000e+000  9.999999e-001
    outer loop
      vertex  3.500000e+001 -9.750000e+000  2.300000e+001
      vertex  9.848685e+001  6.629510e+000  2.300000e+001
      vertex  9.102782e+001  9.750000e+000  2.300000e+001
    endloop
  endfacet
  facet normal  0.000000e+000  0.000000e+000  1.000000e+000
    outer loop
      vertex  3.500000e+001 -9.750000e+000  2.300000e+001
      vertex  9.102782e+001  9.750000e+000  2.300000e+001
      vertex  3.500000e+001  9.750000e+000  2.300000e+001
    endloop
  endfacet
  facet normal  0.000000e+000  0.000000e+000  1.000000e+000
    outer loop
      vertex  1.072479e+002 -1.109188e+001  2.300000e+001
      vertex  1.104565e+002 -8.137767e+000  2.300000e+001
      vertex  1.032540e+002 -1.284421e+001  2.300000e+001
    endloop
  endfacet
  facet normal  0.000000e+000  -0.000000e+000  1.000000e+000
    outer loop
      vertex  1.032540e+002 -1.284421e+001  2.300000e+001
      vertex  1.104565e+002 -8.137767e+000  2.300000e+001
      vertex  1.015131e+002 -6.629510e+000  2.300000e+001
    endloop
  endfacet
  facet normal  0.000000e+000  0.000000e+000  1.000000e+000
    outer loop
      vertex  1.032540e+002 -1.284421e+001  2.300000e+001
      vertex  1.015131e+002 -6.629510e+000  2.300000e+001
      vertex  9.890757e+001 -1.320489e+001  2.300000e+001
    endloop
  endfacet
  facet normal  0.000000e+000  -0.000000e+000  1.000000e+000
    outer loop
      vertex  9.890757e+001 -1.320489e+001  2.300000e+001
      vertex  1.015131e+002 -6.629510e+000  2.300000e+001
      vertex  9.848685e+001 -6.629510e+000  2.300000e+001
    endloop
  endfacet
  facet normal  0.000000e+000  0.000000e+000  1.000000e+000
    outer loop
      vertex  9.890757e+001 -1.320489e+001  2.300000e+001
      vertex  9.848685e+001 -6.629510e+000  2.300000e+001
      vertex  9.467946e+001 -1.213484e+001  2.300000e+001
    endloop
  endfacet
  facet normal  0.000000e+000  -0.000000e+000  9.999999e-001
    outer loop
      vertex  9.467946e+001 -1.213484e+001  2.300000e+001
      vertex  9.848685e+001 -6.629510e+000  2.300000e+001
      vertex  9.102782e+001 -9.750000e+000  2.300000e+001
    endloop
  endfacet
  facet normal  0.000000e+000  0.000000e+000  9.999999e-001
    outer loop
      vertex  1.104565e+002  8.137767e+000  2.300000e+001
      vertex  1.072479e+002  1.109188e+001  2.300000e+001
      vertex  1.015131e+002  6.629510e+000  2.300000e+001
    endloop
  endfacet
  facet normal  0.000000e+000  0.000000e+000  1.000000e+000
    outer loop
      vertex  1.015131e+002  6.629510e+000  2.300000e+001
      vertex  1.072479e+002  1.109188e+001  2.300000e+001
      vertex  1.032540e+002  1.284421e+001  2.300000e+001
    endloop
  endfacet
  facet normal  0.000000e+000  0.000000e+000  1.000000e+000
    outer loop
      vertex  1.015131e+002  6.629510e+000  2.300000e+001
      vertex  1.032540e+002  1.284421e+001  2.300000e+001
      vertex  9.848685e+001  6.629510e+000  2.300000e+001
    endloop
  endfacet
  facet normal  0.000000e+000  0.000000e+000  1.000000e+000
    outer loop
      vertex  9.848685e+001  6.629510e+000  2.300000e+001
      vertex  1.032540e+002  1.284421e+001  2.300000e+001
      vertex  9.890757e+001  1.320489e+001  2.300000e+001
    endloop
  endfacet
  facet normal  0.000000e+000  0.000000e+000  9.999999e-001
    outer loop
      vertex  9.848685e+001  6.629510e+000  2.300000e+001
      vertex  9.890757e+001  1.320489e+001  2.300000e+001
      vertex  9.102782e+001  9.750000e+000  2.300000e+001
    endloop
  endfacet
  facet normal  0.000000e+000  0.000000e+000  1.000000e+000
    outer loop
      vertex  9.102782e+001  9.750000e+000  2.300000e+001
      vertex  9.890757e+001  1.320489e+001  2.300000e+001
      vertex  9.467946e+001  1.213484e+001  2.300000e+001
    endloop
  endfacet
  facet normal  -0.000000e+000  0.000000e+000  1.000000e+000
    outer loop
      vertex  1.104565e+002  8.137767e+000  2.300000e+001
      vertex  1.015131e+002  6.629510e+000  2.300000e+001
      vertex  1.125322e+002  4.301937e+000  2.300000e+001
    endloop
  endfacet
  facet normal  0.000000e+000  0.000000e+000  1.000000e+000
    outer loop
      vertex  1.125322e+002  4.301937e+000  2.300000e+001
      vertex  1.015131e+002  6.629510e+000  2.300000e+001
      vertex  1.042397e+002  5.316454e+000  2.300000e+001
    endloop
  endfacet
  facet normal  0.000000e+000  0.000000e+000  1.000000e+000
    outer loop
      vertex  1.125322e+002  4.301937e+000  2.300000e+001
      vertex  1.042397e+002  5.316454e+000  2.300000e+001
      vertex  1.132500e+002  0.000000e+000  2.300000e+001
    endloop
  endfacet
  facet normal  0.000000e+000  0.000000e+000  1.000000e+000
    outer loop
      vertex  1.132500e+002  0.000000e+000  2.300000e+001
      vertex  1.042397e+002  5.316454e+000  2.300000e+001
      vertex  1.061266e+002  2.950409e+000  2.300000e+001
    endloop
  endfacet
  facet normal  0.000000e+000  0.000000e+000  1.000000e+000
    outer loop
      vertex  1.132500e+002  0.000000e+000  2.300000e+001
      vertex  1.061266e+002  2.950409e+000  2.300000e+001
      vertex  1.068000e+002  0.000000e+000  2.300000e+001
    endloop
  endfacet
  facet normal  -0.000000e+000  0.000000e+000  1.000000e+000
    outer loop
      vertex  1.132500e+002  0.000000e+000  2.300000e+001
      vertex  1.068000e+002  0.000000e+000  2.300000e+001
      vertex  1.125322e+002 -4.301937e+000  2.300000e+001
    endloop
  endfacet
  facet normal  0.000000e+000  0.000000e+000  1.000000e+000
    outer loop
      vertex  1.125322e+002 -4.301937e+000  2.300000e+001
      vertex  1.068000e+002  0.000000e+000  2.300000e+001
      vertex  1.061266e+002 -2.950409e+000  2.300000e+001
    endloop
  endfacet
  facet normal  0.000000e+000  0.000000e+000  1.000000e+000
    outer loop
      vertex  1.125322e+002 -4.301937e+000  2.300000e+001
      vertex  1.061266e+002 -2.950409e+000  2.300000e+001
      vertex  1.042397e+002 -5.316454e+000  2.300000e+001
    endloop
  endfacet
  facet normal  0.000000e+000  0.000000e+000  1.000000e+000
    outer loop
      vertex  1.042397e+002 -5.316454e+000  2.300000e+001
      vertex  1.015131e+002 -6.629510e+000  2.300000e+001
      vertex  1.125322e+002 -4.301937e+000  2.300000e+001
    endloop
  endfacet
  facet normal  0.000000e+000  0.000000e+000  1.000000e+000
    outer loop
      vertex  1.125322e+002 -4.301937e+000  2.300000e+001
      vertex  1.015131e+002 -6.629510e+000  2.300000e+001
      vertex  1.104565e+002 -8.137767e+000  2.300000e+001
    endloop
  endfacet
  facet normal -1.000000e+000  -0.000000e+000  0.000000e+000
    outer loop
      vertex  3.500000e+001 -9.750000e+000  2.300000e+001
      vertex  3.500000e+001  9.750000e+000  2.300000e+001
      vertex  3.500000e+001 -9.750000e+000  1.800000e+001
    endloop
  endfacet
  facet normal -1.000000e+000  0.000000e+000  0.000000e+000
    outer loop
      vertex  3.500000e+001 -9.750000e+000  1.800000e+001
      vertex  3.500000e+001  9.750000e+000  2.300000e+001
      vertex  3.500000e+001  9.750000e+000  1.800000e+001
    endloop
  endfacet
  facet normal -4.338842e-001  9.009687e-001  0.000000e+000
    outer loop
      vertex  1.015131e+002 -6.629510e+000  1.800000e+001
      vertex  1.042397e+002 -5.316454e+000  2.300000e+001
      vertex  1.042397e+002 -5.316454e+000  1.800000e+001
    endloop
  endfacet
  facet normal -7.818317e-001  6.234895e-001  0.000000e+000
    outer loop
      vertex  1.042397e+002 -5.316454e+000  1.800000e+001
      vertex  1.042397e+002 -5.316454e+000  2.300000e+001
      vertex  1.061266e+002 -2.950409e+000  2.300000e+001
    endloop
  endfacet
  facet normal -7.818317e-001  6.234895e-001  0.000000e+000
    outer loop
      vertex  1.042397e+002 -5.316454e+000  1.800000e+001
      vertex  1.061266e+002 -2.950409e+000  2.300000e+001
      vertex  1.061266e+002 -2.950409e+000  1.800000e+001
    endloop
  endfacet
  facet normal -9.749276e-001  2.225223e-001  0.000000e+000
    outer loop
      vertex  1.061266e+002 -2.950409e+000  1.800000e+001
      vertex  1.061266e+002 -2.950409e+000  2.300000e+001
      vertex  1.068000e+002  0.000000e+000  2.300000e+001
    endloop
  endfacet
  facet normal -9.749276e-001  2.225223e-001  0.000000e+000
    outer loop
      vertex  1.061266e+002 -2.950409e+000  1.800000e+001
      vertex  1.068000e+002  0.000000e+000  2.300000e+001
      vertex  1.068000e+002  0.000000e+000  1.800000e+001
    endloop
  endfacet
  facet normal -4.338842e-001  9.009687e-001  0.000000e+000
    outer loop
      vertex  1.042397e+002 -5.316454e+000  2.300000e+001
      vertex  1.015131e+002 -6.629510e+000  1.800000e+001
      vertex  1.015131e+002 -6.629510e+000  2.300000e+001
    endloop
  endfacet
  facet normal  0.000000e+000  1.000000e+000  0.000000e+000
    outer loop
      vertex  1.015131e+002 -6.629510e+000  2.300000e+001
      vertex  1.015131e+002 -6.629510e+000  1.800000e+001
      vertex  9.848685e+001 -6.629510e+000  1.800000e+001
    endloop
  endfacet
  facet normal  0.000000e+000  1.000000e+000  0.000000e+000
    outer loop
      vertex  1.015131e+002 -6.629510e+000  2.300000e+001
      vertex  9.848685e+001 -6.629510e+000  1.800000e+001
      vertex  9.848685e+001 -6.629510e+000  2.300000e+001
    endloop
  endfacet
  facet normal  4.338842e-001  9.009687e-001  0.000000e+000
    outer loop
      vertex  9.848685e+001 -6.629510e+000  2.300000e+001
      vertex  9.848685e+001 -6.629510e+000  1.800000e+001
      vertex  9.576027e+001 -5.316454e+000  1.800000e+001
    endloop
  endfacet
  facet normal  4.338842e-001  9.009687e-001  -0.000000e+000
    outer loop
      vertex  9.848685e+001 -6.629510e+000  2.300000e+001
      vertex  9.576027e+001 -5.316454e+000  1.800000e+001
      vertex  9.576027e+001 -5.316454e+000  2.300000e+001
    endloop
  endfacet
  facet normal  7.818317e-001  6.234895e-001  0.000000e+000
    outer loop
      vertex  9.576027e+001 -5.316454e+000  2.300000e+001
      vertex  9.576027e+001 -5.316454e+000  1.800000e+001
      vertex  9.387341e+001 -2.950409e+000  1.800000e+001
    endloop
  endfacet
  facet normal  7.818317e-001  6.234895e-001  -0.000000e+000
    outer loop
      vertex  9.576027e+001 -5.316454e+000  2.300000e+001
      vertex  9.387341e+001 -2.950409e+000  1.800000e+001
      vertex  9.387341e+001 -2.950409e+000  2.300000e+001
    endloop
  endfacet
  facet normal  9.749276e-001  2.225223e-001  0.000000e+000
    outer loop
      vertex  9.387341e+001 -2.950409e+000  2.300000e+001
      vertex  9.387341e+001 -2.950409e+000  1.800000e+001
      vertex  9.320000e+001  8.327323e-016  1.800000e+001
    endloop
  endfacet
  facet normal  9.749276e-001  2.225223e-001  -0.000000e+000
    outer loop
      vertex  9.387341e+001 -2.950409e+000  2.300000e+001
      vertex  9.320000e+001  8.327323e-016  1.800000e+001
      vertex  9.320000e+001  8.327323e-016  2.300000e+001
    endloop
  endfacet
  facet normal  4.338842e-001 -9.009687e-001  0.000000e+000
    outer loop
      vertex  9.848685e+001  6.629510e+000  1.800000e+001
      vertex  9.576027e+001  5.316454e+000  2.300000e+001
      vertex  9.576027e+001  5.316454e+000  1.800000e+001
    endloop
  endfacet
  facet normal  7.818317e-001 -6.234895e-001  0.000000e+000
    outer loop
      vertex  9.576027e+001  5.316454e+000  1.800000e+001
      vertex  9.576027e+001  5.316454e+000  2.300000e+001
      vertex  9.387341e+001  2.950409e+000  2.300000e+001
    endloop
  endfacet
  facet normal  7.818317e-001 -6.234895e-001  0.000000e+000
    outer loop
      vertex  9.576027e+001  5.316454e+000  1.800000e+001
      vertex  9.387341e+001  2.950409e+000  2.300000e+001
      vertex  9.387341e+001  2.950409e+000  1.800000e+001
    endloop
  endfacet
  facet normal  9.749276e-001 -2.225223e-001  0.000000e+000
    outer loop
      vertex  9.387341e+001  2.950409e+000  1.800000e+001
      vertex  9.387341e+001  2.950409e+000  2.300000e+001
      vertex  9.320000e+001  8.327323e-016  2.300000e+001
    endloop
  endfacet
  facet normal  9.749276e-001 -2.225223e-001  0.000000e+000
    outer loop
      vertex  9.387341e+001  2.950409e+000  1.800000e+001
      vertex  9.320000e+001  8.327323e-016  2.300000e+001
      vertex  9.320000e+001  8.327323e-016  1.800000e+001
    endloop
  endfacet
  facet normal  4.338842e-001 -9.009687e-001  0.000000e+000
    outer loop
      vertex  9.576027e+001  5.316454e+000  2.300000e+001
      vertex  9.848685e+001  6.629510e+000  1.800000e+001
      vertex  9.848685e+001  6.629510e+000  2.300000e+001
    endloop
  endfacet
  facet normal  0.000000e+000 -1.000000e+000  0.000000e+000
    outer loop
      vertex  9.848685e+001  6.629510e+000  2.300000e+001
      vertex  9.848685e+001  6.629510e+000  1.800000e+001
      vertex  1.015131e+002  6.629510e+000  1.800000e+001
    endloop
  endfacet
  facet normal  0.000000e+000 -1.000000e+000  0.000000e+000
    outer loop
      vertex  9.848685e+001  6.629510e+000  2.300000e+001
      vertex  1.015131e+002  6.629510e+000  1.800000e+001
      vertex  1.015131e+002  6.629510e+000  2.300000e+001
    endloop
  endfacet
  facet normal -4.338842e-001 -9.009687e-001  -0.000000e+000
    outer loop
      vertex  1.015131e+002  6.629510e+000  2.300000e+001
      vertex  1.015131e+002  6.629510e+000  1.800000e+001
      vertex  1.042397e+002  5.316454e+000  1.800000e+001
    endloop
  endfacet
  facet normal -4.338842e-001 -9.009687e-001  0.000000e+000
    outer loop
      vertex  1.015131e+002  6.629510e+000  2.300000e+001
      vertex  1.042397e+002  5.316454e+000  1.800000e+001
      vertex  1.042397e+002  5.316454e+000  2.300000e+001
    endloop
  endfacet
  facet normal -7.818317e-001 -6.234895e-001  -0.000000e+000
    outer loop
      vertex  1.042397e+002  5.316454e+000  2.300000e+001
      vertex  1.042397e+002  5.316454e+000  1.800000e+001
      vertex  1.061266e+002  2.950409e+000  1.800000e+001
    endloop
  endfacet
  facet normal -7.818317e-001 -6.234895e-001  0.000000e+000
    outer loop
      vertex  1.042397e+002  5.316454e+000  2.300000e+001
      vertex  1.061266e+002  2.950409e+000  1.800000e+001
      vertex  1.061266e+002  2.950409e+000  2.300000e+001
    endloop
  endfacet
  facet normal -9.749276e-001 -2.225223e-001  -0.000000e+000
    outer loop
      vertex  1.061266e+002  2.950409e+000  2.300000e+001
      vertex  1.061266e+002  2.950409e+000  1.800000e+001
      vertex  1.068000e+002  0.000000e+000  1.800000e+001
    endloop
  endfacet
  facet normal -9.749276e-001 -2.225223e-001  0.000000e+000
    outer loop
      vertex  1.061266e+002  2.950409e+000  2.300000e+001
      vertex  1.068000e+002  0.000000e+000  1.800000e+001
      vertex  1.068000e+002  0.000000e+000  2.300000e+001
    endloop
  endfacet
  facet normal -5.468047e-001  8.372602e-001  0.000000e+000
    outer loop
      vertex  9.102782e+001  9.750000e+000  1.800000e+001
      vertex  9.102782e+001  9.750000e+000  2.300000e+001
      vertex  9.467946e+001  1.213484e+001  1.800000e+001
    endloop
  endfacet
  facet normal -5.468047e-001  8.372602e-001  0.000000e+000
    outer loop
      vertex  9.467946e+001  1.213484e+001  1.800000e+001
      vertex  9.102782e+001  9.750000e+000  2.300000e+001
      vertex  9.467946e+001  1.213484e+001  2.300000e+001
    endloop
  endfacet
  facet normal -2.453448e-001  9.694359e-001  0.000000e+000
    outer loop
      vertex  9.467946e+001  1.213484e+001  1.800000e+001
      vertex  9.467946e+001  1.213484e+001  2.300000e+001
      vertex  9.890757e+001  1.320489e+001  1.800000e+001
    endloop
  endfacet
  facet normal -2.453448e-001  9.694359e-001  0.000000e+000
    outer loop
      vertex  9.890757e+001  1.320489e+001  1.800000e+001
      vertex  9.467946e+001  1.213484e+001  2.300000e+001
      vertex  9.890757e+001  1.320489e+001  2.300000e+001
    endloop
  endfacet
  facet normal  8.269803e-002  9.965747e-001  0.000000e+000
    outer loop
      vertex  9.890757e+001  1.320489e+001  1.800000e+001
      vertex  9.890757e+001  1.320489e+001  2.300000e+001
      vertex  1.032540e+002  1.284421e+001  1.800000e+001
    endloop
  endfacet
  facet normal  8.269803e-002  9.965747e-001  -0.000000e+000
    outer loop
      vertex  1.032540e+002  1.284421e+001  1.800000e+001
      vertex  9.890757e+001  1.320489e+001  2.300000e+001
      vertex  1.032540e+002  1.284421e+001  2.300000e+001
    endloop
  endfacet
  facet normal  4.017799e-001  9.157363e-001  0.000000e+000
    outer loop
      vertex  1.032540e+002  1.284421e+001  1.800000e+001
      vertex  1.032540e+002  1.284421e+001  2.300000e+001
      vertex  1.072479e+002  1.109188e+001  1.800000e+001
    endloop
  endfacet
  facet normal  4.017799e-001  9.157363e-001  -0.000000e+000
    outer loop
      vertex  1.072479e+002  1.109188e+001  1.800000e+001
      vertex  1.032540e+002  1.284421e+001  2.300000e+001
      vertex  1.072479e+002  1.109188e+001  2.300000e+001
    endloop
  endfacet
  facet normal  6.773297e-001  7.356796e-001  0.000000e+000
    outer loop
      vertex  1.072479e+002  1.109188e+001  1.800000e+001
      vertex  1.072479e+002  1.109188e+001  2.300000e+001
      vertex  1.104565e+002  8.137767e+000  1.800000e+001
    endloop
  endfacet
  facet normal  6.773297e-001  7.356796e-001  -0.000000e+000
    outer loop
      vertex  1.104565e+002  8.137767e+000  1.800000e+001
      vertex  1.072479e+002  1.109188e+001  2.300000e+001
      vertex  1.104565e+002  8.137767e+000  2.300000e+001
    endloop
  endfacet
  facet normal  8.794931e-001  4.759116e-001  0.000000e+000
    outer loop
      vertex  1.104565e+002  8.137767e+000  1.800000e+001
      vertex  1.104565e+002  8.137767e+000  2.300000e+001
      vertex  1.125322e+002  4.301937e+000  1.800000e+001
    endloop
  endfacet
  facet normal  8.794931e-001  4.759116e-001  -0.000000e+000
    outer loop
      vertex  1.125322e+002  4.301937e+000  1.800000e+001
      vertex  1.104565e+002  8.137767e+000  2.300000e+001
      vertex  1.125322e+002  4.301937e+000  2.300000e+001
    endloop
  endfacet
  facet normal  9.863634e-001  1.645824e-001  0.000000e+000
    outer loop
      vertex  1.125322e+002  4.301937e+000  1.800000e+001
      vertex  1.125322e+002  4.301937e+000  2.300000e+001
      vertex  1.132500e+002  0.000000e+000  1.800000e+001
    endloop
  endfacet
  facet normal  9.863634e-001  1.645824e-001  -0.000000e+000
    outer loop
      vertex  1.132500e+002  0.000000e+000  1.800000e+001
      vertex  1.125322e+002  4.301937e+000  2.300000e+001
      vertex  1.132500e+002  0.000000e+000  2.300000e+001
    endloop
  endfacet
  facet normal  9.863634e-001 -1.645824e-001  0.000000e+000
    outer loop
      vertex  1.132500e+002  0.000000e+000  1.800000e+001
      vertex  1.132500e+002  0.000000e+000  2.300000e+001
      vertex  1.125322e+002 -4.301937e+000  1.800000e+001
    endloop
  endfacet
  facet normal  9.863634e-001 -1.645824e-001  0.000000e+000
    outer loop
      vertex  1.125322e+002 -4.301937e+000  1.800000e+001
      vertex  1.132500e+002  0.000000e+000  2.300000e+001
      vertex  1.125322e+002 -4.301937e+000  2.300000e+001
    endloop
  endfacet
  facet normal  8.794931e-001 -4.759116e-001  0.000000e+000
    outer loop
      vertex  1.125322e+002 -4.301937e+000  1.800000e+001
      vertex  1.125322e+002 -4.301937e+000  2.300000e+001
      vertex  1.104565e+002 -8.137767e+000  1.800000e+001
    endloop
  endfacet
  facet normal  8.794931e-001 -4.759116e-001  0.000000e+000
    outer loop
      vertex  1.104565e+002 -8.137767e+000  1.800000e+001
      vertex  1.125322e+002 -4.301937e+000  2.300000e+001
      vertex  1.104565e+002 -8.137767e+000  2.300000e+001
    endloop
  endfacet
  facet normal  6.773297e-001 -7.356796e-001  0.000000e+000
    outer loop
      vertex  1.104565e+002 -8.137767e+000  1.800000e+001
      vertex  1.104565e+002 -8.137767e+000  2.300000e+001
      vertex  1.072479e+002 -1.109188e+001  1.800000e+001
    endloop
  endfacet
  facet normal  6.773297e-001 -7.356796e-001  0.000000e+000
    outer loop
      vertex  1.072479e+002 -1.109188e+001  1.800000e+001
      vertex  1.104565e+002 -8.137767e+000  2.300000e+001
      vertex  1.072479e+002 -1.109188e+001  2.300000e+001
    endloop
  endfacet
  facet normal  4.017799e-001 -9.157363e-001  0.000000e+000
    outer loop
      vertex  1.072479e+002 -1.109188e+001  1.800000e+001
      vertex  1.072479e+002 -1.109188e+001  2.300000e+001
      vertex  1.032540e+002 -1.284421e+001  1.800000e+001
    endloop
  endfacet
  facet normal  4.017799e-001 -9.157363e-001  0.000000e+000
    outer loop
      vertex  1.032540e+002 -1.284421e+001  1.800000e+001
      vertex  1.072479e+002 -1.109188e+001  2.300000e+001
      vertex  1.032540e+002 -1.284421e+001  2.300000e+001
    endloop
  endfacet
  facet normal  8.269803e-002 -9.965747e-001  0.000000e+000
    outer loop
      vertex  1.032540e+002 -1.284421e+001  1.800000e+001
      vertex  1.032540e+002 -1.284421e+001  2.300000e+001
      vertex  9.890757e+001 -1.320489e+001  1.800000e+001
    endloop
  endfacet
  facet normal  8.269803e-002 -9.965747e-001  0.000000e+000
    outer loop
      vertex  9.890757e+001 -1.320489e+001  1.800000e+001
      vertex  1.032540e+002 -1.284421e+001  2.300000e+001
      vertex  9.890757e+001 -1.320489e+001  2.300000e+001
    endloop
  endfacet
  facet normal -2.453448e-001 -9.694359e-001  -0.000000e+000
    outer loop
      vertex  9.890757e+001 -1.320489e+001  1.800000e+001
      vertex  9.890757e+001 -1.320489e+001  2.300000e+001
      vertex  9.467946e+001 -1.213484e+001  1.800000e+001
    endloop
  endfacet
  facet normal -2.453448e-001 -9.694359e-001  0.000000e+000
    outer loop
      vertex  9.467946e+001 -1.213484e+001  1.800000e+001
      vertex  9.890757e+001 -1.320489e+001  2.300000e+001
      vertex  9.467946e+001 -1.213484e+001  2.300000e+001
    endloop
  endfacet
  facet normal -5.468047e-001 -8.372602e-001  -0.000000e+000
    outer loop
      vertex  9.467946e+001 -1.213484e+001  1.800000e+001
      vertex  9.467946e+001 -1.213484e+001  2.300000e+001
      vertex  9.102782e+001 -9.750000e+000  1.800000e+001
    endloop
  endfacet
  facet normal -5.468047e-001 -8.372602e-001  0.000000e+000
    outer loop
      vertex  9.102782e+001 -9.750000e+000  1.800000e+001
      vertex  9.467946e+001 -1.213484e+001  2.300000e+001
      vertex  9.102782e+001 -9.750000e+000  2.300000e+001
    endloop
  endfacet
endsolid CATIA STL
