solid CATIA STL
  facet normal  9.326524e-001 -3.607762e-001  0.000000e+000
    outer loop
      vertex -1.117559e+001 -6.018488e+000  5.000000e+000
      vertex -1.095924e+001 -5.459209e+000  0.000000e+000
      vertex -1.095924e+001 -5.459209e+000  5.000000e+000
    endloop
  endfacet
  facet normal  4.043768e-001 -9.145925e-001  0.000000e+000
    outer loop
      vertex -1.095924e+001 -5.459209e+000  5.000000e+000
      vertex -1.095924e+001 -5.459209e+000  0.000000e+000
      vertex -1.041079e+001 -5.216718e+000  0.000000e+000
    endloop
  endfacet
  facet normal  4.043768e-001 -9.145925e-001  0.000000e+000
    outer loop
      vertex -1.095924e+001 -5.459209e+000  5.000000e+000
      vertex -1.041079e+001 -5.216718e+000  0.000000e+000
      vertex -1.041079e+001 -5.216718e+000  5.000000e+000
    endloop
  endfacet
  facet normal  9.326524e-001 -3.607762e-001  0.000000e+000
    outer loop
      vertex -1.095924e+001 -5.459209e+000  0.000000e+000
      vertex -1.117559e+001 -6.018488e+000  5.000000e+000
      vertex -1.117559e+001 -6.018488e+000  0.000000e+000
    endloop
  endfacet
  facet normal  9.145924e-001  4.043770e-001  -0.000000e+000
    outer loop
      vertex -1.117559e+001 -6.018488e+000  0.000000e+000
      vertex -1.117559e+001 -6.018488e+000  5.000000e+000
      vertex -1.093310e+001 -6.566937e+000  5.000000e+000
    endloop
  endfacet
  facet normal  9.145924e-001  4.043770e-001  0.000000e+000
    outer loop
      vertex -1.117559e+001 -6.018488e+000  0.000000e+000
      vertex -1.093310e+001 -6.566937e+000  5.000000e+000
      vertex -1.093310e+001 -6.566937e+000  0.000000e+000
    endloop
  endfacet
  facet normal  3.607759e-001  9.326525e-001  -0.000000e+000
    outer loop
      vertex -1.093310e+001 -6.566937e+000  0.000000e+000
      vertex -1.093310e+001 -6.566937e+000  5.000000e+000
      vertex -1.037382e+001 -6.783282e+000  5.000000e+000
    endloop
  endfacet
  facet normal  3.607759e-001  9.326525e-001  0.000000e+000
    outer loop
      vertex -1.093310e+001 -6.566937e+000  0.000000e+000
      vertex -1.037382e+001 -6.783282e+000  5.000000e+000
      vertex -1.037382e+001 -6.783282e+000  0.000000e+000
    endloop
  endfacet
  facet normal -9.326524e-001  3.607762e-001  0.000000e+000
    outer loop
      vertex -9.609023e+000 -5.981512e+000  5.000000e+000
      vertex -9.825368e+000 -6.540791e+000  0.000000e+000
      vertex -9.825368e+000 -6.540791e+000  5.000000e+000
    endloop
  endfacet
  facet normal -4.043773e-001  9.145923e-001  0.000000e+000
    outer loop
      vertex -9.825368e+000 -6.540791e+000  5.000000e+000
      vertex -9.825368e+000 -6.540791e+000  0.000000e+000
      vertex -1.037382e+001 -6.783282e+000  0.000000e+000
    endloop
  endfacet
  facet normal -4.043773e-001  9.145923e-001  0.000000e+000
    outer loop
      vertex -9.825368e+000 -6.540791e+000  5.000000e+000
      vertex -1.037382e+001 -6.783282e+000  0.000000e+000
      vertex -1.037382e+001 -6.783282e+000  5.000000e+000
    endloop
  endfacet
  facet normal -9.326524e-001  3.607762e-001  0.000000e+000
    outer loop
      vertex -9.825368e+000 -6.540791e+000  0.000000e+000
      vertex -9.609023e+000 -5.981512e+000  5.000000e+000
      vertex -9.609023e+000 -5.981512e+000  0.000000e+000
    endloop
  endfacet
  facet normal -9.145924e-001 -4.043770e-001  0.000000e+000
    outer loop
      vertex -9.609023e+000 -5.981512e+000  0.000000e+000
      vertex -9.609023e+000 -5.981512e+000  5.000000e+000
      vertex -9.851514e+000 -5.433063e+000  5.000000e+000
    endloop
  endfacet
  facet normal -9.145924e-001 -4.043770e-001  -0.000000e+000
    outer loop
      vertex -9.609023e+000 -5.981512e+000  0.000000e+000
      vertex -9.851514e+000 -5.433063e+000  5.000000e+000
      vertex -9.851514e+000 -5.433063e+000  0.000000e+000
    endloop
  endfacet
  facet normal -3.607765e-001 -9.326523e-001  0.000000e+000
    outer loop
      vertex -9.851514e+000 -5.433063e+000  0.000000e+000
      vertex -9.851514e+000 -5.433063e+000  5.000000e+000
      vertex -1.041079e+001 -5.216718e+000  5.000000e+000
    endloop
  endfacet
  facet normal -3.607765e-001 -9.326523e-001  -0.000000e+000
    outer loop
      vertex -9.851514e+000 -5.433063e+000  0.000000e+000
      vertex -1.041079e+001 -5.216718e+000  5.000000e+000
      vertex -1.041079e+001 -5.216718e+000  0.000000e+000
    endloop
  endfacet
  facet normal  1.538851e-001 -9.880887e-001  0.000000e+000
    outer loop
      vertex -1.079996e+001  6.669098e+000  5.000000e+000
      vertex -1.020743e+001  6.761377e+000  0.000000e+000
      vertex -1.020743e+001  6.761377e+000  5.000000e+000
    endloop
  endfacet
  facet normal -5.898713e-001 -8.074971e-001  -0.000000e+000
    outer loop
      vertex -1.020743e+001  6.761377e+000  5.000000e+000
      vertex -1.020743e+001  6.761377e+000  0.000000e+000
      vertex -9.723207e+000  6.407652e+000  0.000000e+000
    endloop
  endfacet
  facet normal -5.898713e-001 -8.074971e-001  0.000000e+000
    outer loop
      vertex -1.020743e+001  6.761377e+000  5.000000e+000
      vertex -9.723207e+000  6.407652e+000  0.000000e+000
      vertex -9.723207e+000  6.407652e+000  5.000000e+000
    endloop
  endfacet
  facet normal  1.538851e-001 -9.880887e-001  0.000000e+000
    outer loop
      vertex -1.020743e+001  6.761377e+000  0.000000e+000
      vertex -1.079996e+001  6.669098e+000  5.000000e+000
      vertex -1.079996e+001  6.669098e+000  0.000000e+000
    endloop
  endfacet
  facet normal  8.074970e-001 -5.898717e-001  0.000000e+000
    outer loop
      vertex -1.079996e+001  6.669098e+000  0.000000e+000
      vertex -1.079996e+001  6.669098e+000  5.000000e+000
      vertex -1.115368e+001  6.184870e+000  5.000000e+000
    endloop
  endfacet
  facet normal  8.074970e-001 -5.898717e-001  0.000000e+000
    outer loop
      vertex -1.079996e+001  6.669098e+000  0.000000e+000
      vertex -1.115368e+001  6.184870e+000  5.000000e+000
      vertex -1.115368e+001  6.184870e+000  0.000000e+000
    endloop
  endfacet
  facet normal  9.880890e-001  1.538835e-001  -0.000000e+000
    outer loop
      vertex -1.115368e+001  6.184870e+000  0.000000e+000
      vertex -1.115368e+001  6.184870e+000  5.000000e+000
      vertex -1.106140e+001  5.592348e+000  5.000000e+000
    endloop
  endfacet
  facet normal  9.880890e-001  1.538835e-001  0.000000e+000
    outer loop
      vertex -1.115368e+001  6.184870e+000  0.000000e+000
      vertex -1.106140e+001  5.592348e+000  5.000000e+000
      vertex -1.106140e+001  5.592348e+000  0.000000e+000
    endloop
  endfacet
  facet normal -1.538849e-001  9.880888e-001  0.000000e+000
    outer loop
      vertex -9.984653e+000  5.330902e+000  5.000000e+000
      vertex -1.057718e+001  5.238623e+000  0.000000e+000
      vertex -1.057718e+001  5.238623e+000  5.000000e+000
    endloop
  endfacet
  facet normal  5.898713e-001  8.074971e-001  0.000000e+000
    outer loop
      vertex -1.057718e+001  5.238623e+000  5.000000e+000
      vertex -1.057718e+001  5.238623e+000  0.000000e+000
      vertex -1.106140e+001  5.592348e+000  0.000000e+000
    endloop
  endfacet
  facet normal  5.898713e-001  8.074971e-001  -0.000000e+000
    outer loop
      vertex -1.057718e+001  5.238623e+000  5.000000e+000
      vertex -1.106140e+001  5.592348e+000  0.000000e+000
      vertex -1.106140e+001  5.592348e+000  5.000000e+000
    endloop
  endfacet
  facet normal -1.538849e-001  9.880888e-001  0.000000e+000
    outer loop
      vertex -1.057718e+001  5.238623e+000  0.000000e+000
      vertex -9.984653e+000  5.330902e+000  5.000000e+000
      vertex -9.984653e+000  5.330902e+000  0.000000e+000
    endloop
  endfacet
  facet normal -8.074977e-001  5.898707e-001  0.000000e+000
    outer loop
      vertex -9.984653e+000  5.330902e+000  0.000000e+000
      vertex -9.984653e+000  5.330902e+000  5.000000e+000
      vertex -9.630928e+000  5.815130e+000  5.000000e+000
    endloop
  endfacet
  facet normal -8.074977e-001  5.898707e-001  0.000000e+000
    outer loop
      vertex -9.984653e+000  5.330902e+000  0.000000e+000
      vertex -9.630928e+000  5.815130e+000  5.000000e+000
      vertex -9.630928e+000  5.815130e+000  0.000000e+000
    endloop
  endfacet
  facet normal -9.880890e-001 -1.538835e-001  0.000000e+000
    outer loop
      vertex -9.630928e+000  5.815130e+000  0.000000e+000
      vertex -9.630928e+000  5.815130e+000  5.000000e+000
      vertex -9.723207e+000  6.407652e+000  5.000000e+000
    endloop
  endfacet
  facet normal -9.880890e-001 -1.538835e-001  -0.000000e+000
    outer loop
      vertex -9.630928e+000  5.815130e+000  0.000000e+000
      vertex -9.723207e+000  6.407652e+000  5.000000e+000
      vertex -9.723207e+000  6.407652e+000  0.000000e+000
    endloop
  endfacet
  facet normal -7.787679e-001 -6.273121e-001  0.000000e+000
    outer loop
      vertex  3.756299e-001  1.268759e+001  5.000000e+000
      vertex  7.518072e-001  1.222059e+001  0.000000e+000
      vertex  7.518072e-001  1.222059e+001  5.000000e+000
    endloop
  endfacet
  facet normal -9.942488e-001  1.070951e-001  0.000000e+000
    outer loop
      vertex  7.518072e-001  1.222059e+001  5.000000e+000
      vertex  7.518072e-001  1.222059e+001  0.000000e+000
      vertex  6.875859e-001  1.162437e+001  0.000000e+000
    endloop
  endfacet
  facet normal -9.942488e-001  1.070951e-001  0.000000e+000
    outer loop
      vertex  7.518072e-001  1.222059e+001  5.000000e+000
      vertex  6.875859e-001  1.162437e+001  0.000000e+000
      vertex  6.875859e-001  1.162437e+001  5.000000e+000
    endloop
  endfacet
  facet normal -7.787679e-001 -6.273121e-001  -0.000000e+000
    outer loop
      vertex  7.518072e-001  1.222059e+001  0.000000e+000
      vertex  3.756299e-001  1.268759e+001  5.000000e+000
      vertex  3.756299e-001  1.268759e+001  0.000000e+000
    endloop
  endfacet
  facet normal -1.070954e-001 -9.942487e-001  0.000000e+000
    outer loop
      vertex  3.756299e-001  1.268759e+001  0.000000e+000
      vertex  3.756299e-001  1.268759e+001  5.000000e+000
      vertex -2.205862e-001  1.275181e+001  5.000000e+000
    endloop
  endfacet
  facet normal -1.070954e-001 -9.942487e-001  -0.000000e+000
    outer loop
      vertex  3.756299e-001  1.268759e+001  0.000000e+000
      vertex -2.205862e-001  1.275181e+001  5.000000e+000
      vertex -2.205862e-001  1.275181e+001  0.000000e+000
    endloop
  endfacet
  facet normal  6.273120e-001 -7.787681e-001  0.000000e+000
    outer loop
      vertex -2.205862e-001  1.275181e+001  0.000000e+000
      vertex -2.205862e-001  1.275181e+001  5.000000e+000
      vertex -6.875859e-001  1.237563e+001  5.000000e+000
    endloop
  endfacet
  facet normal  6.273120e-001 -7.787681e-001  0.000000e+000
    outer loop
      vertex -2.205862e-001  1.275181e+001  0.000000e+000
      vertex -6.875859e-001  1.237563e+001  5.000000e+000
      vertex -6.875859e-001  1.237563e+001  0.000000e+000
    endloop
  endfacet
  facet normal  7.787679e-001  6.273121e-001  -0.000000e+000
    outer loop
      vertex -3.756299e-001  1.131241e+001  5.000000e+000
      vertex -7.518072e-001  1.177941e+001  0.000000e+000
      vertex -7.518072e-001  1.177941e+001  5.000000e+000
    endloop
  endfacet
  facet normal  9.942488e-001 -1.070951e-001  0.000000e+000
    outer loop
      vertex -7.518072e-001  1.177941e+001  5.000000e+000
      vertex -7.518072e-001  1.177941e+001  0.000000e+000
      vertex -6.875859e-001  1.237563e+001  0.000000e+000
    endloop
  endfacet
  facet normal  9.942488e-001 -1.070951e-001  0.000000e+000
    outer loop
      vertex -7.518072e-001  1.177941e+001  5.000000e+000
      vertex -6.875859e-001  1.237563e+001  0.000000e+000
      vertex -6.875859e-001  1.237563e+001  5.000000e+000
    endloop
  endfacet
  facet normal  7.787679e-001  6.273121e-001  0.000000e+000
    outer loop
      vertex -7.518072e-001  1.177941e+001  0.000000e+000
      vertex -3.756299e-001  1.131241e+001  5.000000e+000
      vertex -3.756299e-001  1.131241e+001  0.000000e+000
    endloop
  endfacet
  facet normal  1.070954e-001  9.942487e-001  -0.000000e+000
    outer loop
      vertex -3.756299e-001  1.131241e+001  0.000000e+000
      vertex -3.756299e-001  1.131241e+001  5.000000e+000
      vertex  2.205862e-001  1.124819e+001  5.000000e+000
    endloop
  endfacet
  facet normal  1.070954e-001  9.942487e-001  0.000000e+000
    outer loop
      vertex -3.756299e-001  1.131241e+001  0.000000e+000
      vertex  2.205862e-001  1.124819e+001  5.000000e+000
      vertex  2.205862e-001  1.124819e+001  0.000000e+000
    endloop
  endfacet
  facet normal -6.273120e-001  7.787681e-001  0.000000e+000
    outer loop
      vertex  2.205862e-001  1.124819e+001  0.000000e+000
      vertex  2.205862e-001  1.124819e+001  5.000000e+000
      vertex  6.875859e-001  1.162437e+001  5.000000e+000
    endloop
  endfacet
  facet normal -6.273120e-001  7.787681e-001  0.000000e+000
    outer loop
      vertex  2.205862e-001  1.124819e+001  0.000000e+000
      vertex  6.875859e-001  1.162437e+001  5.000000e+000
      vertex  6.875859e-001  1.162437e+001  0.000000e+000
    endloop
  endfacet
  facet normal -9.326524e-001  3.607762e-001  0.000000e+000
    outer loop
      vertex  1.117559e+001  6.018488e+000  5.000000e+000
      vertex  1.095924e+001  5.459209e+000  0.000000e+000
      vertex  1.095924e+001  5.459209e+000  5.000000e+000
    endloop
  endfacet
  facet normal -4.043768e-001  9.145925e-001  0.000000e+000
    outer loop
      vertex  1.095924e+001  5.459209e+000  5.000000e+000
      vertex  1.095924e+001  5.459209e+000  0.000000e+000
      vertex  1.041079e+001  5.216718e+000  0.000000e+000
    endloop
  endfacet
  facet normal -4.043768e-001  9.145925e-001  0.000000e+000
    outer loop
      vertex  1.095924e+001  5.459209e+000  5.000000e+000
      vertex  1.041079e+001  5.216718e+000  0.000000e+000
      vertex  1.041079e+001  5.216718e+000  5.000000e+000
    endloop
  endfacet
  facet normal -9.326524e-001  3.607762e-001  0.000000e+000
    outer loop
      vertex  1.095924e+001  5.459209e+000  0.000000e+000
      vertex  1.117559e+001  6.018488e+000  5.000000e+000
      vertex  1.117559e+001  6.018488e+000  0.000000e+000
    endloop
  endfacet
  facet normal -9.145924e-001 -4.043770e-001  0.000000e+000
    outer loop
      vertex  1.117559e+001  6.018488e+000  0.000000e+000
      vertex  1.117559e+001  6.018488e+000  5.000000e+000
      vertex  1.093310e+001  6.566937e+000  5.000000e+000
    endloop
  endfacet
  facet normal -9.145924e-001 -4.043770e-001  -0.000000e+000
    outer loop
      vertex  1.117559e+001  6.018488e+000  0.000000e+000
      vertex  1.093310e+001  6.566937e+000  5.000000e+000
      vertex  1.093310e+001  6.566937e+000  0.000000e+000
    endloop
  endfacet
  facet normal -3.607759e-001 -9.326525e-001  0.000000e+000
    outer loop
      vertex  1.093310e+001  6.566937e+000  0.000000e+000
      vertex  1.093310e+001  6.566937e+000  5.000000e+000
      vertex  1.037382e+001  6.783282e+000  5.000000e+000
    endloop
  endfacet
  facet normal -3.607759e-001 -9.326525e-001  -0.000000e+000
    outer loop
      vertex  1.093310e+001  6.566937e+000  0.000000e+000
      vertex  1.037382e+001  6.783282e+000  5.000000e+000
      vertex  1.037382e+001  6.783282e+000  0.000000e+000
    endloop
  endfacet
  facet normal  9.326524e-001 -3.607762e-001  0.000000e+000
    outer loop
      vertex  9.609023e+000  5.981512e+000  5.000000e+000
      vertex  9.825368e+000  6.540791e+000  0.000000e+000
      vertex  9.825368e+000  6.540791e+000  5.000000e+000
    endloop
  endfacet
  facet normal  4.043773e-001 -9.145923e-001  0.000000e+000
    outer loop
      vertex  9.825368e+000  6.540791e+000  5.000000e+000
      vertex  9.825368e+000  6.540791e+000  0.000000e+000
      vertex  1.037382e+001  6.783282e+000  0.000000e+000
    endloop
  endfacet
  facet normal  4.043773e-001 -9.145923e-001  0.000000e+000
    outer loop
      vertex  9.825368e+000  6.540791e+000  5.000000e+000
      vertex  1.037382e+001  6.783282e+000  0.000000e+000
      vertex  1.037382e+001  6.783282e+000  5.000000e+000
    endloop
  endfacet
  facet normal  9.326524e-001 -3.607762e-001  0.000000e+000
    outer loop
      vertex  9.825368e+000  6.540791e+000  0.000000e+000
      vertex  9.609023e+000  5.981512e+000  5.000000e+000
      vertex  9.609023e+000  5.981512e+000  0.000000e+000
    endloop
  endfacet
  facet normal  9.145924e-001  4.043770e-001  -0.000000e+000
    outer loop
      vertex  9.609023e+000  5.981512e+000  0.000000e+000
      vertex  9.609023e+000  5.981512e+000  5.000000e+000
      vertex  9.851514e+000  5.433063e+000  5.000000e+000
    endloop
  endfacet
  facet normal  9.145924e-001  4.043770e-001  0.000000e+000
    outer loop
      vertex  9.609023e+000  5.981512e+000  0.000000e+000
      vertex  9.851514e+000  5.433063e+000  5.000000e+000
      vertex  9.851514e+000  5.433063e+000  0.000000e+000
    endloop
  endfacet
  facet normal  3.607765e-001  9.326523e-001  -0.000000e+000
    outer loop
      vertex  9.851514e+000  5.433063e+000  0.000000e+000
      vertex  9.851514e+000  5.433063e+000  5.000000e+000
      vertex  1.041079e+001  5.216718e+000  5.000000e+000
    endloop
  endfacet
  facet normal  3.607765e-001  9.326523e-001  0.000000e+000
    outer loop
      vertex  9.851514e+000  5.433063e+000  0.000000e+000
      vertex  1.041079e+001  5.216718e+000  5.000000e+000
      vertex  1.041079e+001  5.216718e+000  0.000000e+000
    endloop
  endfacet
  facet normal  0.000000e+000  -0.000000e+000 -1.000000e+000
    outer loop
      vertex  3.756299e-001 -1.131241e+001  0.000000e+000
      vertex  9.630928e+000 -5.815130e+000  0.000000e+000
      vertex  9.723207e+000 -6.407652e+000  0.000000e+000
    endloop
  endfacet
  facet normal  0.000000e+000  0.000000e+000 -1.000000e+000
    outer loop
      vertex -3.756299e-001 -1.268759e+001  0.000000e+000
      vertex -2.490510e+000 -1.732187e+001  0.000000e+000
      vertex -7.518072e-001 -1.222059e+001  0.000000e+000
    endloop
  endfacet
  facet normal  0.000000e+000  -0.000000e+000 -1.000000e+000
    outer loop
      vertex -2.490510e+000 -1.732187e+001  0.000000e+000
      vertex  2.205862e-001 -1.275181e+001  0.000000e+000
      vertex  6.875859e-001 -1.237563e+001  0.000000e+000
    endloop
  endfacet
  facet normal  -0.000000e+000  0.000000e+000 -1.000000e+000
    outer loop
      vertex -3.756299e-001 -1.268759e+001  0.000000e+000
      vertex  2.205862e-001 -1.275181e+001  0.000000e+000
      vertex -2.490510e+000 -1.732187e+001  0.000000e+000
    endloop
  endfacet
  facet normal  0.000000e+000  0.000000e+000 -1.000000e+000
    outer loop
      vertex  9.825368e+000  6.540791e+000  0.000000e+000
      vertex  9.609023e+000  5.981512e+000  0.000000e+000
      vertex  2.205862e-001  1.124819e+001  0.000000e+000
    endloop
  endfacet
  facet normal  0.000000e+000  0.000000e+000 -1.000000e+000
    outer loop
      vertex  7.269763e+000 -1.591856e+001  0.000000e+000
      vertex  7.518072e-001 -1.177941e+001  0.000000e+000
      vertex  3.756299e-001 -1.131241e+001  0.000000e+000
    endloop
  endfacet
  facet normal  -0.000000e+000  -0.000000e+000 -1.000000e+000
    outer loop
      vertex  1.041079e+001  5.216718e+000  0.000000e+000
      vertex  1.679113e+001  4.930320e+000  0.000000e+000
      vertex  1.750000e+001  0.000000e+000  0.000000e+000
    endloop
  endfacet
  facet normal  -0.000000e+000  0.000000e+000 -1.000000e+000
    outer loop
      vertex  1.041079e+001  5.216718e+000  0.000000e+000
      vertex  1.750000e+001  0.000000e+000  0.000000e+000
      vertex  1.057718e+001 -5.238623e+000  0.000000e+000
    endloop
  endfacet
  facet normal  -0.000000e+000  0.000000e+000 -1.000000e+000
    outer loop
      vertex  1.041079e+001  5.216718e+000  0.000000e+000
      vertex  1.057718e+001 -5.238623e+000  0.000000e+000
      vertex  9.984653e+000 -5.330902e+000  0.000000e+000
    endloop
  endfacet
  facet normal  0.000000e+000  0.000000e+000 -1.000000e+000
    outer loop
      vertex  1.041079e+001  5.216718e+000  0.000000e+000
      vertex  9.984653e+000 -5.330902e+000  0.000000e+000
      vertex  9.851514e+000  5.433063e+000  0.000000e+000
    endloop
  endfacet
  facet normal  -0.000000e+000  0.000000e+000 -1.000000e+000
    outer loop
      vertex -1.037382e+001 -6.783282e+000  0.000000e+000
      vertex -2.205862e-001 -1.124819e+001  0.000000e+000
      vertex -6.875859e-001 -1.162437e+001  0.000000e+000
    endloop
  endfacet
  facet normal  -0.000000e+000  0.000000e+000 -1.000000e+000
    outer loop
      vertex -1.037382e+001 -6.783282e+000  0.000000e+000
      vertex -6.875859e-001 -1.162437e+001  0.000000e+000
      vertex -7.518072e-001 -1.222059e+001  0.000000e+000
    endloop
  endfacet
  facet normal  -0.000000e+000  0.000000e+000 -9.999999e-001
    outer loop
      vertex -1.037382e+001 -6.783282e+000  0.000000e+000
      vertex -7.518072e-001 -1.222059e+001  0.000000e+000
      vertex -2.490510e+000 -1.732187e+001  0.000000e+000
    endloop
  endfacet
  facet normal  0.000000e+000  0.000000e+000 -1.000000e+000
    outer loop
      vertex -1.037382e+001 -6.783282e+000  0.000000e+000
      vertex -2.490510e+000 -1.732187e+001  0.000000e+000
      vertex -7.269763e+000 -1.591856e+001  0.000000e+000
    endloop
  endfacet
  facet normal  0.000000e+000  0.000000e+000 -1.000000e+000
    outer loop
      vertex -1.037382e+001 -6.783282e+000  0.000000e+000
      vertex -7.269763e+000 -1.591856e+001  0.000000e+000
      vertex -1.146006e+001 -1.322562e+001  0.000000e+000
    endloop
  endfacet
  facet normal  0.000000e+000  0.000000e+000 -1.000000e+000
    outer loop
      vertex -1.037382e+001 -6.783282e+000  0.000000e+000
      vertex -1.146006e+001 -1.322562e+001  0.000000e+000
      vertex -1.093310e+001 -6.566937e+000  0.000000e+000
    endloop
  endfacet
  facet normal  0.000000e+000  -0.000000e+000 -1.000000e+000
    outer loop
      vertex -1.679113e+001  4.930320e+000  0.000000e+000
      vertex -1.472194e+001  9.461214e+000  0.000000e+000
      vertex -1.079996e+001  6.669098e+000  0.000000e+000
    endloop
  endfacet
  facet normal  0.000000e+000  0.000000e+000 -1.000000e+000
    outer loop
      vertex -1.679113e+001  4.930320e+000  0.000000e+000
      vertex -1.079996e+001  6.669098e+000  0.000000e+000
      vertex -1.115368e+001  6.184870e+000  0.000000e+000
    endloop
  endfacet
  facet normal  0.000000e+000  -0.000000e+000 -1.000000e+000
    outer loop
      vertex -1.679113e+001  4.930320e+000  0.000000e+000
      vertex -1.115368e+001  6.184870e+000  0.000000e+000
      vertex -1.106140e+001  5.592348e+000  0.000000e+000
    endloop
  endfacet
  facet normal  0.000000e+000  -0.000000e+000 -1.000000e+000
    outer loop
      vertex -1.679113e+001  4.930320e+000  0.000000e+000
      vertex -1.106140e+001  5.592348e+000  0.000000e+000
      vertex -1.057718e+001  5.238623e+000  0.000000e+000
    endloop
  endfacet
  facet normal  0.000000e+000  -0.000000e+000 -1.000000e+000
    outer loop
      vertex -1.679113e+001  4.930320e+000  0.000000e+000
      vertex -1.057718e+001  5.238623e+000  0.000000e+000
      vertex -1.041079e+001 -5.216718e+000  0.000000e+000
    endloop
  endfacet
  facet normal  0.000000e+000  0.000000e+000 -9.999999e-001
    outer loop
      vertex -1.679113e+001  4.930320e+000  0.000000e+000
      vertex -1.041079e+001 -5.216718e+000  0.000000e+000
      vertex -1.679113e+001 -4.930320e+000  0.000000e+000
    endloop
  endfacet
  facet normal  0.000000e+000  0.000000e+000 -1.000000e+000
    outer loop
      vertex -1.679113e+001  4.930320e+000  0.000000e+000
      vertex -1.679113e+001 -4.930320e+000  0.000000e+000
      vertex -1.750000e+001  2.143061e-015  0.000000e+000
    endloop
  endfacet
  facet normal  0.000000e+000  0.000000e+000 -1.000000e+000
    outer loop
      vertex -2.205862e-001 -1.124819e+001  0.000000e+000
      vertex -1.037382e+001 -6.783282e+000  0.000000e+000
      vertex -9.825368e+000 -6.540791e+000  0.000000e+000
    endloop
  endfacet
  facet normal  0.000000e+000  0.000000e+000 -1.000000e+000
    outer loop
      vertex -2.205862e-001 -1.124819e+001  0.000000e+000
      vertex -9.825368e+000 -6.540791e+000  0.000000e+000
      vertex -9.609023e+000 -5.981512e+000  0.000000e+000
    endloop
  endfacet
  facet normal  0.000000e+000  0.000000e+000 -9.999999e-001
    outer loop
      vertex -2.205862e-001 -1.124819e+001  0.000000e+000
      vertex -9.609023e+000 -5.981512e+000  0.000000e+000
      vertex -9.851514e+000 -5.433063e+000  0.000000e+000
    endloop
  endfacet
  facet normal  0.000000e+000  0.000000e+000 -1.000000e+000
    outer loop
      vertex -2.205862e-001 -1.124819e+001  0.000000e+000
      vertex -9.851514e+000 -5.433063e+000  0.000000e+000
      vertex -9.984653e+000  5.330902e+000  0.000000e+000
    endloop
  endfacet
  facet normal  0.000000e+000  0.000000e+000 -1.000000e+000
    outer loop
      vertex -2.205862e-001 -1.124819e+001  0.000000e+000
      vertex -9.984653e+000  5.330902e+000  0.000000e+000
      vertex -9.630928e+000  5.815130e+000  0.000000e+000
    endloop
  endfacet
  facet normal  0.000000e+000  0.000000e+000 -1.000000e+000
    outer loop
      vertex -2.205862e-001 -1.124819e+001  0.000000e+000
      vertex -9.630928e+000  5.815130e+000  0.000000e+000
      vertex -9.723207e+000  6.407652e+000  0.000000e+000
    endloop
  endfacet
  facet normal  0.000000e+000  0.000000e+000 -1.000000e+000
    outer loop
      vertex -2.205862e-001 -1.124819e+001  0.000000e+000
      vertex -9.723207e+000  6.407652e+000  0.000000e+000
      vertex -3.756299e-001  1.131241e+001  0.000000e+000
    endloop
  endfacet
  facet normal  0.000000e+000  0.000000e+000 -1.000000e+000
    outer loop
      vertex -2.205862e-001 -1.124819e+001  0.000000e+000
      vertex -3.756299e-001  1.131241e+001  0.000000e+000
      vertex  2.205862e-001  1.124819e+001  0.000000e+000
    endloop
  endfacet
  facet normal  0.000000e+000  -0.000000e+000 -1.000000e+000
    outer loop
      vertex -2.205862e-001 -1.124819e+001  0.000000e+000
      vertex  2.205862e-001  1.124819e+001  0.000000e+000
      vertex  9.609023e+000  5.981512e+000  0.000000e+000
    endloop
  endfacet
  facet normal  0.000000e+000  0.000000e+000 -1.000000e+000
    outer loop
      vertex -2.205862e-001 -1.124819e+001  0.000000e+000
      vertex  9.609023e+000  5.981512e+000  0.000000e+000
      vertex  3.756299e-001 -1.131241e+001  0.000000e+000
    endloop
  endfacet
  facet normal  0.000000e+000  0.000000e+000 -1.000000e+000
    outer loop
      vertex -1.020743e+001  6.761377e+000  0.000000e+000
      vertex -1.079996e+001  6.669098e+000  0.000000e+000
      vertex -1.472194e+001  9.461214e+000  0.000000e+000
    endloop
  endfacet
  facet normal  0.000000e+000  0.000000e+000 -1.000000e+000
    outer loop
      vertex -1.020743e+001  6.761377e+000  0.000000e+000
      vertex -1.472194e+001  9.461214e+000  0.000000e+000
      vertex -1.146006e+001  1.322562e+001  0.000000e+000
    endloop
  endfacet
  facet normal  0.000000e+000  0.000000e+000 -9.999999e-001
    outer loop
      vertex -1.020743e+001  6.761377e+000  0.000000e+000
      vertex -1.146006e+001  1.322562e+001  0.000000e+000
      vertex -7.269763e+000  1.591856e+001  0.000000e+000
    endloop
  endfacet
  facet normal  0.000000e+000  -0.000000e+000 -1.000000e+000
    outer loop
      vertex -1.020743e+001  6.761377e+000  0.000000e+000
      vertex -7.269763e+000  1.591856e+001  0.000000e+000
      vertex -2.205862e-001  1.275181e+001  0.000000e+000
    endloop
  endfacet
  facet normal  0.000000e+000  0.000000e+000 -1.000000e+000
    outer loop
      vertex -1.020743e+001  6.761377e+000  0.000000e+000
      vertex -2.205862e-001  1.275181e+001  0.000000e+000
      vertex -6.875859e-001  1.237563e+001  0.000000e+000
    endloop
  endfacet
  facet normal  0.000000e+000  0.000000e+000 -1.000000e+000
    outer loop
      vertex -1.020743e+001  6.761377e+000  0.000000e+000
      vertex -6.875859e-001  1.237563e+001  0.000000e+000
      vertex -7.518072e-001  1.177941e+001  0.000000e+000
    endloop
  endfacet
  facet normal  0.000000e+000  -0.000000e+000 -1.000000e+000
    outer loop
      vertex -1.020743e+001  6.761377e+000  0.000000e+000
      vertex -7.518072e-001  1.177941e+001  0.000000e+000
      vertex -3.756299e-001  1.131241e+001  0.000000e+000
    endloop
  endfacet
  facet normal  0.000000e+000  0.000000e+000 -1.000000e+000
    outer loop
      vertex -1.020743e+001  6.761377e+000  0.000000e+000
      vertex -3.756299e-001  1.131241e+001  0.000000e+000
      vertex -9.723207e+000  6.407652e+000  0.000000e+000
    endloop
  endfacet
  facet normal  0.000000e+000  0.000000e+000 -1.000000e+000
    outer loop
      vertex  1.037382e+001  6.783282e+000  0.000000e+000
      vertex  9.825368e+000  6.540791e+000  0.000000e+000
      vertex  2.205862e-001  1.124819e+001  0.000000e+000
    endloop
  endfacet
  facet normal  0.000000e+000  0.000000e+000 -1.000000e+000
    outer loop
      vertex  1.037382e+001  6.783282e+000  0.000000e+000
      vertex  2.205862e-001  1.124819e+001  0.000000e+000
      vertex  6.875859e-001  1.162437e+001  0.000000e+000
    endloop
  endfacet
  facet normal  0.000000e+000  0.000000e+000 -1.000000e+000
    outer loop
      vertex  1.037382e+001  6.783282e+000  0.000000e+000
      vertex  6.875859e-001  1.162437e+001  0.000000e+000
      vertex  7.518072e-001  1.222059e+001  0.000000e+000
    endloop
  endfacet
  facet normal  0.000000e+000  0.000000e+000 -1.000000e+000
    outer loop
      vertex  1.037382e+001  6.783282e+000  0.000000e+000
      vertex  7.518072e-001  1.222059e+001  0.000000e+000
      vertex  3.756299e-001  1.268759e+001  0.000000e+000
    endloop
  endfacet
  facet normal  0.000000e+000  0.000000e+000 -1.000000e+000
    outer loop
      vertex  1.037382e+001  6.783282e+000  0.000000e+000
      vertex  3.756299e-001  1.268759e+001  0.000000e+000
      vertex  7.269763e+000  1.591856e+001  0.000000e+000
    endloop
  endfacet
  facet normal  0.000000e+000  0.000000e+000 -9.999999e-001
    outer loop
      vertex  1.679113e+001  4.930320e+000  0.000000e+000
      vertex  1.041079e+001  5.216718e+000  0.000000e+000
      vertex  1.095924e+001  5.459209e+000  0.000000e+000
    endloop
  endfacet
  facet normal  0.000000e+000  0.000000e+000 -1.000000e+000
    outer loop
      vertex  1.679113e+001  4.930320e+000  0.000000e+000
      vertex  1.095924e+001  5.459209e+000  0.000000e+000
      vertex  1.117559e+001  6.018488e+000  0.000000e+000
    endloop
  endfacet
  facet normal  0.000000e+000  0.000000e+000 -1.000000e+000
    outer loop
      vertex  1.679113e+001  4.930320e+000  0.000000e+000
      vertex  1.117559e+001  6.018488e+000  0.000000e+000
      vertex  1.093310e+001  6.566937e+000  0.000000e+000
    endloop
  endfacet
  facet normal  0.000000e+000  0.000000e+000 -1.000000e+000
    outer loop
      vertex -9.984653e+000  5.330902e+000  0.000000e+000
      vertex -9.851514e+000 -5.433063e+000  0.000000e+000
      vertex -1.057718e+001  5.238623e+000  0.000000e+000
    endloop
  endfacet
  facet normal  0.000000e+000  0.000000e+000 -1.000000e+000
    outer loop
      vertex -1.057718e+001  5.238623e+000  0.000000e+000
      vertex -9.851514e+000 -5.433063e+000  0.000000e+000
      vertex -1.041079e+001 -5.216718e+000  0.000000e+000
    endloop
  endfacet
  facet normal  0.000000e+000  0.000000e+000 -1.000000e+000
    outer loop
      vertex  7.518072e-001 -1.177941e+001  0.000000e+000
      vertex  7.269763e+000 -1.591856e+001  0.000000e+000
      vertex  6.875859e-001 -1.237563e+001  0.000000e+000
    endloop
  endfacet
  facet normal  0.000000e+000  0.000000e+000 -1.000000e+000
    outer loop
      vertex  6.875859e-001 -1.237563e+001  0.000000e+000
      vertex  7.269763e+000 -1.591856e+001  0.000000e+000
      vertex  2.490510e+000 -1.732187e+001  0.000000e+000
    endloop
  endfacet
  facet normal  0.000000e+000  0.000000e+000 -1.000000e+000
    outer loop
      vertex  6.875859e-001 -1.237563e+001  0.000000e+000
      vertex  2.490510e+000 -1.732187e+001  0.000000e+000
      vertex -2.490510e+000 -1.732187e+001  0.000000e+000
    endloop
  endfacet
  facet normal  0.000000e+000  -0.000000e+000 -1.000000e+000
    outer loop
      vertex  3.756299e-001 -1.131241e+001  0.000000e+000
      vertex  9.609023e+000  5.981512e+000  0.000000e+000
      vertex  9.630928e+000 -5.815130e+000  0.000000e+000
    endloop
  endfacet
  facet normal  0.000000e+000  0.000000e+000 -9.999999e-001
    outer loop
      vertex  9.630928e+000 -5.815130e+000  0.000000e+000
      vertex  9.609023e+000  5.981512e+000  0.000000e+000
      vertex  9.851514e+000  5.433063e+000  0.000000e+000
    endloop
  endfacet
  facet normal  0.000000e+000  -0.000000e+000 -1.000000e+000
    outer loop
      vertex  9.630928e+000 -5.815130e+000  0.000000e+000
      vertex  9.851514e+000  5.433063e+000  0.000000e+000
      vertex  9.984653e+000 -5.330902e+000  0.000000e+000
    endloop
  endfacet
  facet normal  0.000000e+000  -0.000000e+000 -1.000000e+000
    outer loop
      vertex -7.269763e+000  1.591856e+001  0.000000e+000
      vertex -2.490510e+000  1.732187e+001  0.000000e+000
      vertex -2.205862e-001  1.275181e+001  0.000000e+000
    endloop
  endfacet
  facet normal  0.000000e+000  0.000000e+000 -1.000000e+000
    outer loop
      vertex -2.205862e-001  1.275181e+001  0.000000e+000
      vertex -2.490510e+000  1.732187e+001  0.000000e+000
      vertex  3.756299e-001  1.268759e+001  0.000000e+000
    endloop
  endfacet
  facet normal  -0.000000e+000  0.000000e+000 -1.000000e+000
    outer loop
      vertex -2.490510e+000  1.732187e+001  0.000000e+000
      vertex  2.490510e+000  1.732187e+001  0.000000e+000
      vertex  3.756299e-001  1.268759e+001  0.000000e+000
    endloop
  endfacet
  facet normal  0.000000e+000  0.000000e+000 -1.000000e+000
    outer loop
      vertex  3.756299e-001  1.268759e+001  0.000000e+000
      vertex  2.490510e+000  1.732187e+001  0.000000e+000
      vertex  7.269763e+000  1.591856e+001  0.000000e+000
    endloop
  endfacet
  facet normal  -0.000000e+000  0.000000e+000 -1.000000e+000
    outer loop
      vertex  9.723207e+000 -6.407652e+000  0.000000e+000
      vertex  1.020743e+001 -6.761377e+000  0.000000e+000
      vertex  3.756299e-001 -1.131241e+001  0.000000e+000
    endloop
  endfacet
  facet normal  0.000000e+000  0.000000e+000 -9.999999e-001
    outer loop
      vertex  3.756299e-001 -1.131241e+001  0.000000e+000
      vertex  1.020743e+001 -6.761377e+000  0.000000e+000
      vertex  1.079996e+001 -6.669098e+000  0.000000e+000
    endloop
  endfacet
  facet normal  0.000000e+000  0.000000e+000 -1.000000e+000
    outer loop
      vertex  3.756299e-001 -1.131241e+001  0.000000e+000
      vertex  1.079996e+001 -6.669098e+000  0.000000e+000
      vertex  7.269763e+000 -1.591856e+001  0.000000e+000
    endloop
  endfacet
  facet normal  0.000000e+000  0.000000e+000 -1.000000e+000
    outer loop
      vertex  7.269763e+000 -1.591856e+001  0.000000e+000
      vertex  1.079996e+001 -6.669098e+000  0.000000e+000
      vertex  1.472194e+001 -9.461214e+000  0.000000e+000
    endloop
  endfacet
  facet normal  0.000000e+000  0.000000e+000 -1.000000e+000
    outer loop
      vertex  7.269763e+000 -1.591856e+001  0.000000e+000
      vertex  1.472194e+001 -9.461214e+000  0.000000e+000
      vertex  1.146006e+001 -1.322562e+001  0.000000e+000
    endloop
  endfacet
  facet normal  0.000000e+000  0.000000e+000 -1.000000e+000
    outer loop
      vertex  1.679113e+001  4.930320e+000  0.000000e+000
      vertex  1.093310e+001  6.566937e+000  0.000000e+000
      vertex  1.472194e+001  9.461214e+000  0.000000e+000
    endloop
  endfacet
  facet normal  -0.000000e+000  0.000000e+000 -9.999999e-001
    outer loop
      vertex  1.472194e+001  9.461214e+000  0.000000e+000
      vertex  1.093310e+001  6.566937e+000  0.000000e+000
      vertex  1.146006e+001  1.322562e+001  0.000000e+000
    endloop
  endfacet
  facet normal  0.000000e+000  0.000000e+000 -1.000000e+000
    outer loop
      vertex  1.093310e+001  6.566937e+000  0.000000e+000
      vertex  1.037382e+001  6.783282e+000  0.000000e+000
      vertex  1.146006e+001  1.322562e+001  0.000000e+000
    endloop
  endfacet
  facet normal  -0.000000e+000  0.000000e+000 -1.000000e+000
    outer loop
      vertex  1.146006e+001  1.322562e+001  0.000000e+000
      vertex  1.037382e+001  6.783282e+000  0.000000e+000
      vertex  7.269763e+000  1.591856e+001  0.000000e+000
    endloop
  endfacet
  facet normal  0.000000e+000  0.000000e+000 -9.999999e-001
    outer loop
      vertex -1.041079e+001 -5.216718e+000  0.000000e+000
      vertex -1.095924e+001 -5.459209e+000  0.000000e+000
      vertex -1.679113e+001 -4.930320e+000  0.000000e+000
    endloop
  endfacet
  facet normal  0.000000e+000  0.000000e+000 -1.000000e+000
    outer loop
      vertex -1.679113e+001 -4.930320e+000  0.000000e+000
      vertex -1.095924e+001 -5.459209e+000  0.000000e+000
      vertex -1.117559e+001 -6.018488e+000  0.000000e+000
    endloop
  endfacet
  facet normal  -0.000000e+000  0.000000e+000 -1.000000e+000
    outer loop
      vertex -1.679113e+001 -4.930320e+000  0.000000e+000
      vertex -1.117559e+001 -6.018488e+000  0.000000e+000
      vertex -1.472194e+001 -9.461214e+000  0.000000e+000
    endloop
  endfacet
  facet normal  0.000000e+000  0.000000e+000 -1.000000e+000
    outer loop
      vertex -1.472194e+001 -9.461214e+000  0.000000e+000
      vertex -1.117559e+001 -6.018488e+000  0.000000e+000
      vertex -1.093310e+001 -6.566937e+000  0.000000e+000
    endloop
  endfacet
  facet normal  0.000000e+000  0.000000e+000 -9.999999e-001
    outer loop
      vertex -1.472194e+001 -9.461214e+000  0.000000e+000
      vertex -1.093310e+001 -6.566937e+000  0.000000e+000
      vertex -1.146006e+001 -1.322562e+001  0.000000e+000
    endloop
  endfacet
  facet normal  0.000000e+000  -0.000000e+000 -1.000000e+000
    outer loop
      vertex  1.079996e+001 -6.669098e+000  0.000000e+000
      vertex  1.115368e+001 -6.184870e+000  0.000000e+000
      vertex  1.472194e+001 -9.461214e+000  0.000000e+000
    endloop
  endfacet
  facet normal  0.000000e+000  0.000000e+000 -1.000000e+000
    outer loop
      vertex  1.472194e+001 -9.461214e+000  0.000000e+000
      vertex  1.115368e+001 -6.184870e+000  0.000000e+000
      vertex  1.106140e+001 -5.592348e+000  0.000000e+000
    endloop
  endfacet
  facet normal  0.000000e+000  0.000000e+000 -1.000000e+000
    outer loop
      vertex  1.472194e+001 -9.461214e+000  0.000000e+000
      vertex  1.106140e+001 -5.592348e+000  0.000000e+000
      vertex  1.679113e+001 -4.930320e+000  0.000000e+000
    endloop
  endfacet
  facet normal  0.000000e+000  0.000000e+000 -1.000000e+000
    outer loop
      vertex  1.679113e+001 -4.930320e+000  0.000000e+000
      vertex  1.106140e+001 -5.592348e+000  0.000000e+000
      vertex  1.057718e+001 -5.238623e+000  0.000000e+000
    endloop
  endfacet
  facet normal  0.000000e+000  0.000000e+000 -1.000000e+000
    outer loop
      vertex  1.679113e+001 -4.930320e+000  0.000000e+000
      vertex  1.057718e+001 -5.238623e+000  0.000000e+000
      vertex  1.750000e+001  0.000000e+000  0.000000e+000
    endloop
  endfacet
  facet normal  0.000000e+000  0.000000e+000  1.000000e+000
    outer loop
      vertex  9.723207e+000 -6.407652e+000  5.000000e+000
      vertex  9.630928e+000 -5.815130e+000  5.000000e+000
      vertex  3.756299e-001 -1.131241e+001  5.000000e+000
    endloop
  endfacet
  facet normal  0.000000e+000  0.000000e+000  1.000000e+000
    outer loop
      vertex -7.518072e-001 -1.222059e+001  5.000000e+000
      vertex -2.490510e+000 -1.732187e+001  5.000000e+000
      vertex -3.756299e-001 -1.268759e+001  5.000000e+000
    endloop
  endfacet
  facet normal  -0.000000e+000  0.000000e+000  1.000000e+000
    outer loop
      vertex  6.875859e-001 -1.237563e+001  5.000000e+000
      vertex  2.205862e-001 -1.275181e+001  5.000000e+000
      vertex -2.490510e+000 -1.732187e+001  5.000000e+000
    endloop
  endfacet
  facet normal  0.000000e+000  0.000000e+000  1.000000e+000
    outer loop
      vertex -2.490510e+000 -1.732187e+001  5.000000e+000
      vertex  2.205862e-001 -1.275181e+001  5.000000e+000
      vertex -3.756299e-001 -1.268759e+001  5.000000e+000
    endloop
  endfacet
  facet normal  0.000000e+000  -0.000000e+000  1.000000e+000
    outer loop
      vertex  2.205862e-001  1.124819e+001  5.000000e+000
      vertex  9.609023e+000  5.981512e+000  5.000000e+000
      vertex  9.825368e+000  6.540791e+000  5.000000e+000
    endloop
  endfacet
  facet normal  -0.000000e+000  -0.000000e+000  1.000000e+000
    outer loop
      vertex  3.756299e-001 -1.131241e+001  5.000000e+000
      vertex  7.518072e-001 -1.177941e+001  5.000000e+000
      vertex  7.269763e+000 -1.591856e+001  5.000000e+000
    endloop
  endfacet
  facet normal  0.000000e+000  0.000000e+000  1.000000e+000
    outer loop
      vertex  1.041079e+001  5.216718e+000  5.000000e+000
      vertex  9.851514e+000  5.433063e+000  5.000000e+000
      vertex  9.984653e+000 -5.330902e+000  5.000000e+000
    endloop
  endfacet
  facet normal  0.000000e+000  0.000000e+000  1.000000e+000
    outer loop
      vertex  1.041079e+001  5.216718e+000  5.000000e+000
      vertex  9.984653e+000 -5.330902e+000  5.000000e+000
      vertex  1.057718e+001 -5.238623e+000  5.000000e+000
    endloop
  endfacet
  facet normal  0.000000e+000  -0.000000e+000  1.000000e+000
    outer loop
      vertex  1.041079e+001  5.216718e+000  5.000000e+000
      vertex  1.057718e+001 -5.238623e+000  5.000000e+000
      vertex  1.750000e+001  0.000000e+000  5.000000e+000
    endloop
  endfacet
  facet normal  0.000000e+000  0.000000e+000  1.000000e+000
    outer loop
      vertex  1.041079e+001  5.216718e+000  5.000000e+000
      vertex  1.750000e+001  0.000000e+000  5.000000e+000
      vertex  1.679113e+001  4.930320e+000  5.000000e+000
    endloop
  endfacet
  facet normal  0.000000e+000  0.000000e+000  1.000000e+000
    outer loop
      vertex -1.037382e+001 -6.783282e+000  5.000000e+000
      vertex -1.093310e+001 -6.566937e+000  5.000000e+000
      vertex -1.146006e+001 -1.322562e+001  5.000000e+000
    endloop
  endfacet
  facet normal  -0.000000e+000  0.000000e+000  1.000000e+000
    outer loop
      vertex -1.037382e+001 -6.783282e+000  5.000000e+000
      vertex -1.146006e+001 -1.322562e+001  5.000000e+000
      vertex -7.269763e+000 -1.591856e+001  5.000000e+000
    endloop
  endfacet
  facet normal  -0.000000e+000  -0.000000e+000  1.000000e+000
    outer loop
      vertex -1.037382e+001 -6.783282e+000  5.000000e+000
      vertex -7.269763e+000 -1.591856e+001  5.000000e+000
      vertex -2.490510e+000 -1.732187e+001  5.000000e+000
    endloop
  endfacet
  facet normal  0.000000e+000  -0.000000e+000  9.999999e-001
    outer loop
      vertex -1.037382e+001 -6.783282e+000  5.000000e+000
      vertex -2.490510e+000 -1.732187e+001  5.000000e+000
      vertex -7.518072e-001 -1.222059e+001  5.000000e+000
    endloop
  endfacet
  facet normal  0.000000e+000  -0.000000e+000  1.000000e+000
    outer loop
      vertex -1.037382e+001 -6.783282e+000  5.000000e+000
      vertex -7.518072e-001 -1.222059e+001  5.000000e+000
      vertex -6.875859e-001 -1.162437e+001  5.000000e+000
    endloop
  endfacet
  facet normal  0.000000e+000  -0.000000e+000  1.000000e+000
    outer loop
      vertex -1.037382e+001 -6.783282e+000  5.000000e+000
      vertex -6.875859e-001 -1.162437e+001  5.000000e+000
      vertex -2.205862e-001 -1.124819e+001  5.000000e+000
    endloop
  endfacet
  facet normal  -0.000000e+000  0.000000e+000  1.000000e+000
    outer loop
      vertex -1.679113e+001  4.930320e+000  5.000000e+000
      vertex -1.750000e+001  2.143061e-015  5.000000e+000
      vertex -1.679113e+001 -4.930320e+000  5.000000e+000
    endloop
  endfacet
  facet normal  -0.000000e+000  0.000000e+000  1.000000e+000
    outer loop
      vertex -1.679113e+001  4.930320e+000  5.000000e+000
      vertex -1.679113e+001 -4.930320e+000  5.000000e+000
      vertex -1.041079e+001 -5.216718e+000  5.000000e+000
    endloop
  endfacet
  facet normal  0.000000e+000  0.000000e+000  1.000000e+000
    outer loop
      vertex -1.679113e+001  4.930320e+000  5.000000e+000
      vertex -1.041079e+001 -5.216718e+000  5.000000e+000
      vertex -1.057718e+001  5.238623e+000  5.000000e+000
    endloop
  endfacet
  facet normal  0.000000e+000  0.000000e+000  1.000000e+000
    outer loop
      vertex -1.679113e+001  4.930320e+000  5.000000e+000
      vertex -1.057718e+001  5.238623e+000  5.000000e+000
      vertex -1.106140e+001  5.592348e+000  5.000000e+000
    endloop
  endfacet
  facet normal  0.000000e+000  0.000000e+000  1.000000e+000
    outer loop
      vertex -1.679113e+001  4.930320e+000  5.000000e+000
      vertex -1.106140e+001  5.592348e+000  5.000000e+000
      vertex -1.115368e+001  6.184870e+000  5.000000e+000
    endloop
  endfacet
  facet normal  0.000000e+000  -0.000000e+000  1.000000e+000
    outer loop
      vertex -1.679113e+001  4.930320e+000  5.000000e+000
      vertex -1.115368e+001  6.184870e+000  5.000000e+000
      vertex -1.079996e+001  6.669098e+000  5.000000e+000
    endloop
  endfacet
  facet normal  0.000000e+000  0.000000e+000  1.000000e+000
    outer loop
      vertex -1.679113e+001  4.930320e+000  5.000000e+000
      vertex -1.079996e+001  6.669098e+000  5.000000e+000
      vertex -1.472194e+001  9.461214e+000  5.000000e+000
    endloop
  endfacet
  facet normal  0.000000e+000  -0.000000e+000  1.000000e+000
    outer loop
      vertex -2.205862e-001 -1.124819e+001  5.000000e+000
      vertex  3.756299e-001 -1.131241e+001  5.000000e+000
      vertex  9.609023e+000  5.981512e+000  5.000000e+000
    endloop
  endfacet
  facet normal  0.000000e+000  0.000000e+000  1.000000e+000
    outer loop
      vertex -2.205862e-001 -1.124819e+001  5.000000e+000
      vertex  9.609023e+000  5.981512e+000  5.000000e+000
      vertex  2.205862e-001  1.124819e+001  5.000000e+000
    endloop
  endfacet
  facet normal  0.000000e+000  0.000000e+000  1.000000e+000
    outer loop
      vertex -2.205862e-001 -1.124819e+001  5.000000e+000
      vertex  2.205862e-001  1.124819e+001  5.000000e+000
      vertex -3.756299e-001  1.131241e+001  5.000000e+000
    endloop
  endfacet
  facet normal  0.000000e+000  0.000000e+000  9.999999e-001
    outer loop
      vertex -2.205862e-001 -1.124819e+001  5.000000e+000
      vertex -3.756299e-001  1.131241e+001  5.000000e+000
      vertex -9.723207e+000  6.407652e+000  5.000000e+000
    endloop
  endfacet
  facet normal  0.000000e+000  0.000000e+000  1.000000e+000
    outer loop
      vertex -2.205862e-001 -1.124819e+001  5.000000e+000
      vertex -9.723207e+000  6.407652e+000  5.000000e+000
      vertex -9.630928e+000  5.815130e+000  5.000000e+000
    endloop
  endfacet
  facet normal  0.000000e+000  0.000000e+000  1.000000e+000
    outer loop
      vertex -2.205862e-001 -1.124819e+001  5.000000e+000
      vertex -9.630928e+000  5.815130e+000  5.000000e+000
      vertex -9.984653e+000  5.330902e+000  5.000000e+000
    endloop
  endfacet
  facet normal  0.000000e+000  0.000000e+000  1.000000e+000
    outer loop
      vertex -2.205862e-001 -1.124819e+001  5.000000e+000
      vertex -9.984653e+000  5.330902e+000  5.000000e+000
      vertex -9.851514e+000 -5.433063e+000  5.000000e+000
    endloop
  endfacet
  facet normal  0.000000e+000  0.000000e+000  9.999999e-001
    outer loop
      vertex -2.205862e-001 -1.124819e+001  5.000000e+000
      vertex -9.851514e+000 -5.433063e+000  5.000000e+000
      vertex -9.609023e+000 -5.981512e+000  5.000000e+000
    endloop
  endfacet
  facet normal  0.000000e+000  0.000000e+000  1.000000e+000
    outer loop
      vertex -2.205862e-001 -1.124819e+001  5.000000e+000
      vertex -9.609023e+000 -5.981512e+000  5.000000e+000
      vertex -9.825368e+000 -6.540791e+000  5.000000e+000
    endloop
  endfacet
  facet normal  0.000000e+000  0.000000e+000  1.000000e+000
    outer loop
      vertex -2.205862e-001 -1.124819e+001  5.000000e+000
      vertex -9.825368e+000 -6.540791e+000  5.000000e+000
      vertex -1.037382e+001 -6.783282e+000  5.000000e+000
    endloop
  endfacet
  facet normal  0.000000e+000  -0.000000e+000  1.000000e+000
    outer loop
      vertex -1.020743e+001  6.761377e+000  5.000000e+000
      vertex -9.723207e+000  6.407652e+000  5.000000e+000
      vertex -3.756299e-001  1.131241e+001  5.000000e+000
    endloop
  endfacet
  facet normal  0.000000e+000  0.000000e+000  1.000000e+000
    outer loop
      vertex -1.020743e+001  6.761377e+000  5.000000e+000
      vertex -3.756299e-001  1.131241e+001  5.000000e+000
      vertex -7.518072e-001  1.177941e+001  5.000000e+000
    endloop
  endfacet
  facet normal  0.000000e+000  -0.000000e+000  1.000000e+000
    outer loop
      vertex -1.020743e+001  6.761377e+000  5.000000e+000
      vertex -7.518072e-001  1.177941e+001  5.000000e+000
      vertex -6.875859e-001  1.237563e+001  5.000000e+000
    endloop
  endfacet
  facet normal  0.000000e+000  -0.000000e+000  1.000000e+000
    outer loop
      vertex -1.020743e+001  6.761377e+000  5.000000e+000
      vertex -6.875859e-001  1.237563e+001  5.000000e+000
      vertex -2.205862e-001  1.275181e+001  5.000000e+000
    endloop
  endfacet
  facet normal  0.000000e+000  0.000000e+000  1.000000e+000
    outer loop
      vertex -1.020743e+001  6.761377e+000  5.000000e+000
      vertex -2.205862e-001  1.275181e+001  5.000000e+000
      vertex -7.269763e+000  1.591856e+001  5.000000e+000
    endloop
  endfacet
  facet normal  0.000000e+000  0.000000e+000  9.999999e-001
    outer loop
      vertex -1.020743e+001  6.761377e+000  5.000000e+000
      vertex -7.269763e+000  1.591856e+001  5.000000e+000
      vertex -1.146006e+001  1.322562e+001  5.000000e+000
    endloop
  endfacet
  facet normal  0.000000e+000  0.000000e+000  1.000000e+000
    outer loop
      vertex -1.020743e+001  6.761377e+000  5.000000e+000
      vertex -1.146006e+001  1.322562e+001  5.000000e+000
      vertex -1.472194e+001  9.461214e+000  5.000000e+000
    endloop
  endfacet
  facet normal  0.000000e+000  0.000000e+000  1.000000e+000
    outer loop
      vertex -1.020743e+001  6.761377e+000  5.000000e+000
      vertex -1.472194e+001  9.461214e+000  5.000000e+000
      vertex -1.079996e+001  6.669098e+000  5.000000e+000
    endloop
  endfacet
  facet normal  0.000000e+000  0.000000e+000  1.000000e+000
    outer loop
      vertex  1.037382e+001  6.783282e+000  5.000000e+000
      vertex  7.269763e+000  1.591856e+001  5.000000e+000
      vertex  3.756299e-001  1.268759e+001  5.000000e+000
    endloop
  endfacet
  facet normal  0.000000e+000  0.000000e+000  1.000000e+000
    outer loop
      vertex  1.037382e+001  6.783282e+000  5.000000e+000
      vertex  3.756299e-001  1.268759e+001  5.000000e+000
      vertex  7.518072e-001  1.222059e+001  5.000000e+000
    endloop
  endfacet
  facet normal  0.000000e+000  0.000000e+000  1.000000e+000
    outer loop
      vertex  1.037382e+001  6.783282e+000  5.000000e+000
      vertex  7.518072e-001  1.222059e+001  5.000000e+000
      vertex  6.875859e-001  1.162437e+001  5.000000e+000
    endloop
  endfacet
  facet normal  0.000000e+000  0.000000e+000  1.000000e+000
    outer loop
      vertex  1.037382e+001  6.783282e+000  5.000000e+000
      vertex  6.875859e-001  1.162437e+001  5.000000e+000
      vertex  2.205862e-001  1.124819e+001  5.000000e+000
    endloop
  endfacet
  facet normal  0.000000e+000  0.000000e+000  1.000000e+000
    outer loop
      vertex  1.037382e+001  6.783282e+000  5.000000e+000
      vertex  2.205862e-001  1.124819e+001  5.000000e+000
      vertex  9.825368e+000  6.540791e+000  5.000000e+000
    endloop
  endfacet
  facet normal  0.000000e+000  0.000000e+000  1.000000e+000
    outer loop
      vertex  1.679113e+001  4.930320e+000  5.000000e+000
      vertex  1.093310e+001  6.566937e+000  5.000000e+000
      vertex  1.117559e+001  6.018488e+000  5.000000e+000
    endloop
  endfacet
  facet normal  0.000000e+000  0.000000e+000  1.000000e+000
    outer loop
      vertex  1.679113e+001  4.930320e+000  5.000000e+000
      vertex  1.117559e+001  6.018488e+000  5.000000e+000
      vertex  1.095924e+001  5.459209e+000  5.000000e+000
    endloop
  endfacet
  facet normal  0.000000e+000  0.000000e+000  9.999999e-001
    outer loop
      vertex  1.679113e+001  4.930320e+000  5.000000e+000
      vertex  1.095924e+001  5.459209e+000  5.000000e+000
      vertex  1.041079e+001  5.216718e+000  5.000000e+000
    endloop
  endfacet
  facet normal  -0.000000e+000  0.000000e+000  1.000000e+000
    outer loop
      vertex -9.984653e+000  5.330902e+000  5.000000e+000
      vertex -1.057718e+001  5.238623e+000  5.000000e+000
      vertex -9.851514e+000 -5.433063e+000  5.000000e+000
    endloop
  endfacet
  facet normal  0.000000e+000  0.000000e+000  1.000000e+000
    outer loop
      vertex -9.851514e+000 -5.433063e+000  5.000000e+000
      vertex -1.057718e+001  5.238623e+000  5.000000e+000
      vertex -1.041079e+001 -5.216718e+000  5.000000e+000
    endloop
  endfacet
  facet normal  0.000000e+000  0.000000e+000  1.000000e+000
    outer loop
      vertex -2.490510e+000 -1.732187e+001  5.000000e+000
      vertex  2.490510e+000 -1.732187e+001  5.000000e+000
      vertex  6.875859e-001 -1.237563e+001  5.000000e+000
    endloop
  endfacet
  facet normal  0.000000e+000  0.000000e+000  1.000000e+000
    outer loop
      vertex  6.875859e-001 -1.237563e+001  5.000000e+000
      vertex  2.490510e+000 -1.732187e+001  5.000000e+000
      vertex  7.269763e+000 -1.591856e+001  5.000000e+000
    endloop
  endfacet
  facet normal  0.000000e+000  0.000000e+000  1.000000e+000
    outer loop
      vertex  6.875859e-001 -1.237563e+001  5.000000e+000
      vertex  7.269763e+000 -1.591856e+001  5.000000e+000
      vertex  7.518072e-001 -1.177941e+001  5.000000e+000
    endloop
  endfacet
  facet normal  0.000000e+000  0.000000e+000  1.000000e+000
    outer loop
      vertex  9.984653e+000 -5.330902e+000  5.000000e+000
      vertex  9.851514e+000  5.433063e+000  5.000000e+000
      vertex  9.630928e+000 -5.815130e+000  5.000000e+000
    endloop
  endfacet
  facet normal  0.000000e+000  -0.000000e+000  9.999999e-001
    outer loop
      vertex  9.630928e+000 -5.815130e+000  5.000000e+000
      vertex  9.851514e+000  5.433063e+000  5.000000e+000
      vertex  9.609023e+000  5.981512e+000  5.000000e+000
    endloop
  endfacet
  facet normal  0.000000e+000  0.000000e+000  1.000000e+000
    outer loop
      vertex  9.630928e+000 -5.815130e+000  5.000000e+000
      vertex  9.609023e+000  5.981512e+000  5.000000e+000
      vertex  3.756299e-001 -1.131241e+001  5.000000e+000
    endloop
  endfacet
  facet normal  0.000000e+000  0.000000e+000  1.000000e+000
    outer loop
      vertex -7.269763e+000  1.591856e+001  5.000000e+000
      vertex -2.205862e-001  1.275181e+001  5.000000e+000
      vertex -2.490510e+000  1.732187e+001  5.000000e+000
    endloop
  endfacet
  facet normal  0.000000e+000  0.000000e+000  1.000000e+000
    outer loop
      vertex -2.490510e+000  1.732187e+001  5.000000e+000
      vertex -2.205862e-001  1.275181e+001  5.000000e+000
      vertex  3.756299e-001  1.268759e+001  5.000000e+000
    endloop
  endfacet
  facet normal  0.000000e+000  -0.000000e+000  1.000000e+000
    outer loop
      vertex -2.490510e+000  1.732187e+001  5.000000e+000
      vertex  3.756299e-001  1.268759e+001  5.000000e+000
      vertex  2.490510e+000  1.732187e+001  5.000000e+000
    endloop
  endfacet
  facet normal  0.000000e+000  0.000000e+000  1.000000e+000
    outer loop
      vertex  2.490510e+000  1.732187e+001  5.000000e+000
      vertex  3.756299e-001  1.268759e+001  5.000000e+000
      vertex  7.269763e+000  1.591856e+001  5.000000e+000
    endloop
  endfacet
  facet normal  0.000000e+000  0.000000e+000  1.000000e+000
    outer loop
      vertex  1.146006e+001 -1.322562e+001  5.000000e+000
      vertex  1.472194e+001 -9.461214e+000  5.000000e+000
      vertex  7.269763e+000 -1.591856e+001  5.000000e+000
    endloop
  endfacet
  facet normal  0.000000e+000  0.000000e+000  1.000000e+000
    outer loop
      vertex  7.269763e+000 -1.591856e+001  5.000000e+000
      vertex  1.472194e+001 -9.461214e+000  5.000000e+000
      vertex  1.079996e+001 -6.669098e+000  5.000000e+000
    endloop
  endfacet
  facet normal  0.000000e+000  0.000000e+000  1.000000e+000
    outer loop
      vertex  7.269763e+000 -1.591856e+001  5.000000e+000
      vertex  1.079996e+001 -6.669098e+000  5.000000e+000
      vertex  3.756299e-001 -1.131241e+001  5.000000e+000
    endloop
  endfacet
  facet normal  0.000000e+000  0.000000e+000  9.999999e-001
    outer loop
      vertex  3.756299e-001 -1.131241e+001  5.000000e+000
      vertex  1.079996e+001 -6.669098e+000  5.000000e+000
      vertex  1.020743e+001 -6.761377e+000  5.000000e+000
    endloop
  endfacet
  facet normal  0.000000e+000  0.000000e+000  1.000000e+000
    outer loop
      vertex  3.756299e-001 -1.131241e+001  5.000000e+000
      vertex  1.020743e+001 -6.761377e+000  5.000000e+000
      vertex  9.723207e+000 -6.407652e+000  5.000000e+000
    endloop
  endfacet
  facet normal  0.000000e+000  0.000000e+000  1.000000e+000
    outer loop
      vertex  1.679113e+001  4.930320e+000  5.000000e+000
      vertex  1.472194e+001  9.461214e+000  5.000000e+000
      vertex  1.093310e+001  6.566937e+000  5.000000e+000
    endloop
  endfacet
  facet normal  0.000000e+000  0.000000e+000  9.999999e-001
    outer loop
      vertex  1.093310e+001  6.566937e+000  5.000000e+000
      vertex  1.472194e+001  9.461214e+000  5.000000e+000
      vertex  1.146006e+001  1.322562e+001  5.000000e+000
    endloop
  endfacet
  facet normal  0.000000e+000  0.000000e+000  1.000000e+000
    outer loop
      vertex  1.093310e+001  6.566937e+000  5.000000e+000
      vertex  1.146006e+001  1.322562e+001  5.000000e+000
      vertex  1.037382e+001  6.783282e+000  5.000000e+000
    endloop
  endfacet
  facet normal  0.000000e+000  -0.000000e+000  1.000000e+000
    outer loop
      vertex  1.037382e+001  6.783282e+000  5.000000e+000
      vertex  1.146006e+001  1.322562e+001  5.000000e+000
      vertex  7.269763e+000  1.591856e+001  5.000000e+000
    endloop
  endfacet
  facet normal  0.000000e+000  0.000000e+000  9.999999e-001
    outer loop
      vertex -1.146006e+001 -1.322562e+001  5.000000e+000
      vertex -1.093310e+001 -6.566937e+000  5.000000e+000
      vertex -1.472194e+001 -9.461214e+000  5.000000e+000
    endloop
  endfacet
  facet normal  0.000000e+000  0.000000e+000  1.000000e+000
    outer loop
      vertex -1.472194e+001 -9.461214e+000  5.000000e+000
      vertex -1.093310e+001 -6.566937e+000  5.000000e+000
      vertex -1.117559e+001 -6.018488e+000  5.000000e+000
    endloop
  endfacet
  facet normal  0.000000e+000  0.000000e+000  1.000000e+000
    outer loop
      vertex -1.472194e+001 -9.461214e+000  5.000000e+000
      vertex -1.117559e+001 -6.018488e+000  5.000000e+000
      vertex -1.679113e+001 -4.930320e+000  5.000000e+000
    endloop
  endfacet
  facet normal  0.000000e+000  0.000000e+000  1.000000e+000
    outer loop
      vertex -1.679113e+001 -4.930320e+000  5.000000e+000
      vertex -1.117559e+001 -6.018488e+000  5.000000e+000
      vertex -1.095924e+001 -5.459209e+000  5.000000e+000
    endloop
  endfacet
  facet normal  0.000000e+000  -0.000000e+000  9.999999e-001
    outer loop
      vertex -1.679113e+001 -4.930320e+000  5.000000e+000
      vertex -1.095924e+001 -5.459209e+000  5.000000e+000
      vertex -1.041079e+001 -5.216718e+000  5.000000e+000
    endloop
  endfacet
  facet normal  0.000000e+000  0.000000e+000  1.000000e+000
    outer loop
      vertex  1.750000e+001  0.000000e+000  5.000000e+000
      vertex  1.057718e+001 -5.238623e+000  5.000000e+000
      vertex  1.679113e+001 -4.930320e+000  5.000000e+000
    endloop
  endfacet
  facet normal  0.000000e+000  0.000000e+000  1.000000e+000
    outer loop
      vertex  1.679113e+001 -4.930320e+000  5.000000e+000
      vertex  1.057718e+001 -5.238623e+000  5.000000e+000
      vertex  1.106140e+001 -5.592348e+000  5.000000e+000
    endloop
  endfacet
  facet normal  -0.000000e+000  0.000000e+000  1.000000e+000
    outer loop
      vertex  1.679113e+001 -4.930320e+000  5.000000e+000
      vertex  1.106140e+001 -5.592348e+000  5.000000e+000
      vertex  1.472194e+001 -9.461214e+000  5.000000e+000
    endloop
  endfacet
  facet normal  0.000000e+000  0.000000e+000  1.000000e+000
    outer loop
      vertex  1.472194e+001 -9.461214e+000  5.000000e+000
      vertex  1.106140e+001 -5.592348e+000  5.000000e+000
      vertex  1.115368e+001 -6.184870e+000  5.000000e+000
    endloop
  endfacet
  facet normal  0.000000e+000  0.000000e+000  1.000000e+000
    outer loop
      vertex  1.472194e+001 -9.461214e+000  5.000000e+000
      vertex  1.115368e+001 -6.184870e+000  5.000000e+000
      vertex  1.079996e+001 -6.669098e+000  5.000000e+000
    endloop
  endfacet
  facet normal -1.538851e-001  9.880887e-001  0.000000e+000
    outer loop
      vertex  1.079996e+001 -6.669098e+000  5.000000e+000
      vertex  1.020743e+001 -6.761377e+000  0.000000e+000
      vertex  1.020743e+001 -6.761377e+000  5.000000e+000
    endloop
  endfacet
  facet normal  5.898713e-001  8.074971e-001  0.000000e+000
    outer loop
      vertex  1.020743e+001 -6.761377e+000  5.000000e+000
      vertex  1.020743e+001 -6.761377e+000  0.000000e+000
      vertex  9.723207e+000 -6.407652e+000  0.000000e+000
    endloop
  endfacet
  facet normal  5.898713e-001  8.074971e-001  -0.000000e+000
    outer loop
      vertex  1.020743e+001 -6.761377e+000  5.000000e+000
      vertex  9.723207e+000 -6.407652e+000  0.000000e+000
      vertex  9.723207e+000 -6.407652e+000  5.000000e+000
    endloop
  endfacet
  facet normal -1.538851e-001  9.880887e-001  0.000000e+000
    outer loop
      vertex  1.020743e+001 -6.761377e+000  0.000000e+000
      vertex  1.079996e+001 -6.669098e+000  5.000000e+000
      vertex  1.079996e+001 -6.669098e+000  0.000000e+000
    endloop
  endfacet
  facet normal -8.074970e-001  5.898717e-001  0.000000e+000
    outer loop
      vertex  1.079996e+001 -6.669098e+000  0.000000e+000
      vertex  1.079996e+001 -6.669098e+000  5.000000e+000
      vertex  1.115368e+001 -6.184870e+000  5.000000e+000
    endloop
  endfacet
  facet normal -8.074970e-001  5.898717e-001  0.000000e+000
    outer loop
      vertex  1.079996e+001 -6.669098e+000  0.000000e+000
      vertex  1.115368e+001 -6.184870e+000  5.000000e+000
      vertex  1.115368e+001 -6.184870e+000  0.000000e+000
    endloop
  endfacet
  facet normal -9.880890e-001 -1.538835e-001  0.000000e+000
    outer loop
      vertex  1.115368e+001 -6.184870e+000  0.000000e+000
      vertex  1.115368e+001 -6.184870e+000  5.000000e+000
      vertex  1.106140e+001 -5.592348e+000  5.000000e+000
    endloop
  endfacet
  facet normal -9.880890e-001 -1.538835e-001  -0.000000e+000
    outer loop
      vertex  1.115368e+001 -6.184870e+000  0.000000e+000
      vertex  1.106140e+001 -5.592348e+000  5.000000e+000
      vertex  1.106140e+001 -5.592348e+000  0.000000e+000
    endloop
  endfacet
  facet normal  1.538849e-001 -9.880888e-001  0.000000e+000
    outer loop
      vertex  9.984653e+000 -5.330902e+000  5.000000e+000
      vertex  1.057718e+001 -5.238623e+000  0.000000e+000
      vertex  1.057718e+001 -5.238623e+000  5.000000e+000
    endloop
  endfacet
  facet normal -5.898713e-001 -8.074971e-001  -0.000000e+000
    outer loop
      vertex  1.057718e+001 -5.238623e+000  5.000000e+000
      vertex  1.057718e+001 -5.238623e+000  0.000000e+000
      vertex  1.106140e+001 -5.592348e+000  0.000000e+000
    endloop
  endfacet
  facet normal -5.898713e-001 -8.074971e-001  0.000000e+000
    outer loop
      vertex  1.057718e+001 -5.238623e+000  5.000000e+000
      vertex  1.106140e+001 -5.592348e+000  0.000000e+000
      vertex  1.106140e+001 -5.592348e+000  5.000000e+000
    endloop
  endfacet
  facet normal  1.538849e-001 -9.880888e-001  0.000000e+000
    outer loop
      vertex  1.057718e+001 -5.238623e+000  0.000000e+000
      vertex  9.984653e+000 -5.330902e+000  5.000000e+000
      vertex  9.984653e+000 -5.330902e+000  0.000000e+000
    endloop
  endfacet
  facet normal  8.074977e-001 -5.898707e-001  0.000000e+000
    outer loop
      vertex  9.984653e+000 -5.330902e+000  0.000000e+000
      vertex  9.984653e+000 -5.330902e+000  5.000000e+000
      vertex  9.630928e+000 -5.815130e+000  5.000000e+000
    endloop
  endfacet
  facet normal  8.074977e-001 -5.898707e-001  0.000000e+000
    outer loop
      vertex  9.984653e+000 -5.330902e+000  0.000000e+000
      vertex  9.630928e+000 -5.815130e+000  5.000000e+000
      vertex  9.630928e+000 -5.815130e+000  0.000000e+000
    endloop
  endfacet
  facet normal  9.880890e-001  1.538835e-001  -0.000000e+000
    outer loop
      vertex  9.630928e+000 -5.815130e+000  0.000000e+000
      vertex  9.630928e+000 -5.815130e+000  5.000000e+000
      vertex  9.723207e+000 -6.407652e+000  5.000000e+000
    endloop
  endfacet
  facet normal  9.880890e-001  1.538835e-001  0.000000e+000
    outer loop
      vertex  9.630928e+000 -5.815130e+000  0.000000e+000
      vertex  9.723207e+000 -6.407652e+000  5.000000e+000
      vertex  9.723207e+000 -6.407652e+000  0.000000e+000
    endloop
  endfacet
  facet normal  7.787679e-001  6.273121e-001  -0.000000e+000
    outer loop
      vertex -3.756299e-001 -1.268759e+001  5.000000e+000
      vertex -7.518072e-001 -1.222059e+001  0.000000e+000
      vertex -7.518072e-001 -1.222059e+001  5.000000e+000
    endloop
  endfacet
  facet normal  9.942488e-001 -1.070951e-001  0.000000e+000
    outer loop
      vertex -7.518072e-001 -1.222059e+001  5.000000e+000
      vertex -7.518072e-001 -1.222059e+001  0.000000e+000
      vertex -6.875859e-001 -1.162437e+001  0.000000e+000
    endloop
  endfacet
  facet normal  9.942488e-001 -1.070951e-001  0.000000e+000
    outer loop
      vertex -7.518072e-001 -1.222059e+001  5.000000e+000
      vertex -6.875859e-001 -1.162437e+001  0.000000e+000
      vertex -6.875859e-001 -1.162437e+001  5.000000e+000
    endloop
  endfacet
  facet normal  7.787679e-001  6.273121e-001  0.000000e+000
    outer loop
      vertex -7.518072e-001 -1.222059e+001  0.000000e+000
      vertex -3.756299e-001 -1.268759e+001  5.000000e+000
      vertex -3.756299e-001 -1.268759e+001  0.000000e+000
    endloop
  endfacet
  facet normal  1.070954e-001  9.942487e-001  -0.000000e+000
    outer loop
      vertex -3.756299e-001 -1.268759e+001  0.000000e+000
      vertex -3.756299e-001 -1.268759e+001  5.000000e+000
      vertex  2.205862e-001 -1.275181e+001  5.000000e+000
    endloop
  endfacet
  facet normal  1.070954e-001  9.942487e-001  0.000000e+000
    outer loop
      vertex -3.756299e-001 -1.268759e+001  0.000000e+000
      vertex  2.205862e-001 -1.275181e+001  5.000000e+000
      vertex  2.205862e-001 -1.275181e+001  0.000000e+000
    endloop
  endfacet
  facet normal -6.273120e-001  7.787681e-001  0.000000e+000
    outer loop
      vertex  2.205862e-001 -1.275181e+001  0.000000e+000
      vertex  2.205862e-001 -1.275181e+001  5.000000e+000
      vertex  6.875859e-001 -1.237563e+001  5.000000e+000
    endloop
  endfacet
  facet normal -6.273120e-001  7.787681e-001  0.000000e+000
    outer loop
      vertex  2.205862e-001 -1.275181e+001  0.000000e+000
      vertex  6.875859e-001 -1.237563e+001  5.000000e+000
      vertex  6.875859e-001 -1.237563e+001  0.000000e+000
    endloop
  endfacet
  facet normal -7.787679e-001 -6.273121e-001  0.000000e+000
    outer loop
      vertex  3.756299e-001 -1.131241e+001  5.000000e+000
      vertex  7.518072e-001 -1.177941e+001  0.000000e+000
      vertex  7.518072e-001 -1.177941e+001  5.000000e+000
    endloop
  endfacet
  facet normal -9.942488e-001  1.070951e-001  0.000000e+000
    outer loop
      vertex  7.518072e-001 -1.177941e+001  5.000000e+000
      vertex  7.518072e-001 -1.177941e+001  0.000000e+000
      vertex  6.875859e-001 -1.237563e+001  0.000000e+000
    endloop
  endfacet
  facet normal -9.942488e-001  1.070951e-001  0.000000e+000
    outer loop
      vertex  7.518072e-001 -1.177941e+001  5.000000e+000
      vertex  6.875859e-001 -1.237563e+001  0.000000e+000
      vertex  6.875859e-001 -1.237563e+001  5.000000e+000
    endloop
  endfacet
  facet normal -7.787679e-001 -6.273121e-001  -0.000000e+000
    outer loop
      vertex  7.518072e-001 -1.177941e+001  0.000000e+000
      vertex  3.756299e-001 -1.131241e+001  5.000000e+000
      vertex  3.756299e-001 -1.131241e+001  0.000000e+000
    endloop
  endfacet
  facet normal -1.070954e-001 -9.942487e-001  0.000000e+000
    outer loop
      vertex  3.756299e-001 -1.131241e+001  0.000000e+000
      vertex  3.756299e-001 -1.131241e+001  5.000000e+000
      vertex -2.205862e-001 -1.124819e+001  5.000000e+000
    endloop
  endfacet
  facet normal -1.070954e-001 -9.942487e-001  -0.000000e+000
    outer loop
      vertex  3.756299e-001 -1.131241e+001  0.000000e+000
      vertex -2.205862e-001 -1.124819e+001  5.000000e+000
      vertex -2.205862e-001 -1.124819e+001  0.000000e+000
    endloop
  endfacet
  facet normal  6.273120e-001 -7.787681e-001  0.000000e+000
    outer loop
      vertex -2.205862e-001 -1.124819e+001  0.000000e+000
      vertex -2.205862e-001 -1.124819e+001  5.000000e+000
      vertex -6.875859e-001 -1.162437e+001  5.000000e+000
    endloop
  endfacet
  facet normal  6.273120e-001 -7.787681e-001  0.000000e+000
    outer loop
      vertex -2.205862e-001 -1.124819e+001  0.000000e+000
      vertex -6.875859e-001 -1.162437e+001  5.000000e+000
      vertex -6.875859e-001 -1.162437e+001  0.000000e+000
    endloop
  endfacet
  facet normal  9.898215e-001 -1.423150e-001  0.000000e+000
    outer loop
      vertex  1.750000e+001  0.000000e+000  0.000000e+000
      vertex  1.750000e+001  0.000000e+000  5.000000e+000
      vertex  1.679113e+001 -4.930320e+000  0.000000e+000
    endloop
  endfacet
  facet normal  9.898215e-001 -1.423150e-001  0.000000e+000
    outer loop
      vertex  1.679113e+001 -4.930320e+000  0.000000e+000
      vertex  1.750000e+001  0.000000e+000  5.000000e+000
      vertex  1.679113e+001 -4.930320e+000  5.000000e+000
    endloop
  endfacet
  facet normal  9.096320e-001 -4.154148e-001  0.000000e+000
    outer loop
      vertex  1.679113e+001 -4.930320e+000  0.000000e+000
      vertex  1.679113e+001 -4.930320e+000  5.000000e+000
      vertex  1.472194e+001 -9.461214e+000  0.000000e+000
    endloop
  endfacet
  facet normal  9.096320e-001 -4.154148e-001  0.000000e+000
    outer loop
      vertex  1.472194e+001 -9.461214e+000  0.000000e+000
      vertex  1.679113e+001 -4.930320e+000  5.000000e+000
      vertex  1.472194e+001 -9.461214e+000  5.000000e+000
    endloop
  endfacet
  facet normal  7.557495e-001 -6.548607e-001  0.000000e+000
    outer loop
      vertex  1.472194e+001 -9.461214e+000  0.000000e+000
      vertex  1.472194e+001 -9.461214e+000  5.000000e+000
      vertex  1.146006e+001 -1.322562e+001  0.000000e+000
    endloop
  endfacet
  facet normal  7.557495e-001 -6.548607e-001  0.000000e+000
    outer loop
      vertex  1.146006e+001 -1.322562e+001  0.000000e+000
      vertex  1.472194e+001 -9.461214e+000  5.000000e+000
      vertex  1.146006e+001 -1.322562e+001  5.000000e+000
    endloop
  endfacet
  facet normal  5.406408e-001 -8.412536e-001  0.000000e+000
    outer loop
      vertex  1.146006e+001 -1.322562e+001  0.000000e+000
      vertex  1.146006e+001 -1.322562e+001  5.000000e+000
      vertex  7.269763e+000 -1.591856e+001  0.000000e+000
    endloop
  endfacet
  facet normal  5.406408e-001 -8.412536e-001  0.000000e+000
    outer loop
      vertex  7.269763e+000 -1.591856e+001  0.000000e+000
      vertex  1.146006e+001 -1.322562e+001  5.000000e+000
      vertex  7.269763e+000 -1.591856e+001  5.000000e+000
    endloop
  endfacet
  facet normal  2.817324e-001 -9.594929e-001  0.000000e+000
    outer loop
      vertex  7.269763e+000 -1.591856e+001  0.000000e+000
      vertex  7.269763e+000 -1.591856e+001  5.000000e+000
      vertex  2.490510e+000 -1.732187e+001  0.000000e+000
    endloop
  endfacet
  facet normal  2.817324e-001 -9.594929e-001  0.000000e+000
    outer loop
      vertex  2.490510e+000 -1.732187e+001  0.000000e+000
      vertex  7.269763e+000 -1.591856e+001  5.000000e+000
      vertex  2.490510e+000 -1.732187e+001  5.000000e+000
    endloop
  endfacet
  facet normal  0.000000e+000 -1.000000e+000  -0.000000e+000
    outer loop
      vertex  2.490510e+000 -1.732187e+001  0.000000e+000
      vertex  2.490510e+000 -1.732187e+001  5.000000e+000
      vertex -2.490510e+000 -1.732187e+001  0.000000e+000
    endloop
  endfacet
  facet normal  0.000000e+000 -1.000000e+000  0.000000e+000
    outer loop
      vertex -2.490510e+000 -1.732187e+001  0.000000e+000
      vertex  2.490510e+000 -1.732187e+001  5.000000e+000
      vertex -2.490510e+000 -1.732187e+001  5.000000e+000
    endloop
  endfacet
  facet normal -2.817324e-001 -9.594929e-001  -0.000000e+000
    outer loop
      vertex -2.490510e+000 -1.732187e+001  0.000000e+000
      vertex -2.490510e+000 -1.732187e+001  5.000000e+000
      vertex -7.269763e+000 -1.591856e+001  0.000000e+000
    endloop
  endfacet
  facet normal -2.817324e-001 -9.594929e-001  0.000000e+000
    outer loop
      vertex -7.269763e+000 -1.591856e+001  0.000000e+000
      vertex -2.490510e+000 -1.732187e+001  5.000000e+000
      vertex -7.269763e+000 -1.591856e+001  5.000000e+000
    endloop
  endfacet
  facet normal -5.406408e-001 -8.412536e-001  -0.000000e+000
    outer loop
      vertex -7.269763e+000 -1.591856e+001  0.000000e+000
      vertex -7.269763e+000 -1.591856e+001  5.000000e+000
      vertex -1.146006e+001 -1.322562e+001  0.000000e+000
    endloop
  endfacet
  facet normal -5.406408e-001 -8.412536e-001  0.000000e+000
    outer loop
      vertex -1.146006e+001 -1.322562e+001  0.000000e+000
      vertex -7.269763e+000 -1.591856e+001  5.000000e+000
      vertex -1.146006e+001 -1.322562e+001  5.000000e+000
    endloop
  endfacet
  facet normal -7.557495e-001 -6.548607e-001  -0.000000e+000
    outer loop
      vertex -1.146006e+001 -1.322562e+001  0.000000e+000
      vertex -1.146006e+001 -1.322562e+001  5.000000e+000
      vertex -1.472194e+001 -9.461214e+000  0.000000e+000
    endloop
  endfacet
  facet normal -7.557495e-001 -6.548607e-001  0.000000e+000
    outer loop
      vertex -1.472194e+001 -9.461214e+000  0.000000e+000
      vertex -1.146006e+001 -1.322562e+001  5.000000e+000
      vertex -1.472194e+001 -9.461214e+000  5.000000e+000
    endloop
  endfacet
  facet normal -9.096320e-001 -4.154148e-001  -0.000000e+000
    outer loop
      vertex -1.472194e+001 -9.461214e+000  0.000000e+000
      vertex -1.472194e+001 -9.461214e+000  5.000000e+000
      vertex -1.679113e+001 -4.930320e+000  0.000000e+000
    endloop
  endfacet
  facet normal -9.096320e-001 -4.154148e-001  0.000000e+000
    outer loop
      vertex -1.679113e+001 -4.930320e+000  0.000000e+000
      vertex -1.472194e+001 -9.461214e+000  5.000000e+000
      vertex -1.679113e+001 -4.930320e+000  5.000000e+000
    endloop
  endfacet
  facet normal -9.898215e-001 -1.423150e-001  -0.000000e+000
    outer loop
      vertex -1.679113e+001 -4.930320e+000  0.000000e+000
      vertex -1.679113e+001 -4.930320e+000  5.000000e+000
      vertex -1.750000e+001  2.143061e-015  0.000000e+000
    endloop
  endfacet
  facet normal -9.898215e-001 -1.423150e-001  0.000000e+000
    outer loop
      vertex -1.750000e+001  2.143061e-015  0.000000e+000
      vertex -1.679113e+001 -4.930320e+000  5.000000e+000
      vertex -1.750000e+001  2.143061e-015  5.000000e+000
    endloop
  endfacet
  facet normal -9.898215e-001  1.423150e-001  0.000000e+000
    outer loop
      vertex -1.750000e+001  2.143061e-015  0.000000e+000
      vertex -1.750000e+001  2.143061e-015  5.000000e+000
      vertex -1.679113e+001  4.930320e+000  0.000000e+000
    endloop
  endfacet
  facet normal -9.898215e-001  1.423150e-001  0.000000e+000
    outer loop
      vertex -1.679113e+001  4.930320e+000  0.000000e+000
      vertex -1.750000e+001  2.143061e-015  5.000000e+000
      vertex -1.679113e+001  4.930320e+000  5.000000e+000
    endloop
  endfacet
  facet normal -9.096320e-001  4.154148e-001  0.000000e+000
    outer loop
      vertex -1.679113e+001  4.930320e+000  0.000000e+000
      vertex -1.679113e+001  4.930320e+000  5.000000e+000
      vertex -1.472194e+001  9.461214e+000  0.000000e+000
    endloop
  endfacet
  facet normal -9.096320e-001  4.154148e-001  0.000000e+000
    outer loop
      vertex -1.472194e+001  9.461214e+000  0.000000e+000
      vertex -1.679113e+001  4.930320e+000  5.000000e+000
      vertex -1.472194e+001  9.461214e+000  5.000000e+000
    endloop
  endfacet
  facet normal -7.557495e-001  6.548607e-001  0.000000e+000
    outer loop
      vertex -1.472194e+001  9.461214e+000  0.000000e+000
      vertex -1.472194e+001  9.461214e+000  5.000000e+000
      vertex -1.146006e+001  1.322562e+001  0.000000e+000
    endloop
  endfacet
  facet normal -7.557495e-001  6.548607e-001  0.000000e+000
    outer loop
      vertex -1.146006e+001  1.322562e+001  0.000000e+000
      vertex -1.472194e+001  9.461214e+000  5.000000e+000
      vertex -1.146006e+001  1.322562e+001  5.000000e+000
    endloop
  endfacet
  facet normal -5.406408e-001  8.412536e-001  0.000000e+000
    outer loop
      vertex -1.146006e+001  1.322562e+001  0.000000e+000
      vertex -1.146006e+001  1.322562e+001  5.000000e+000
      vertex -7.269763e+000  1.591856e+001  0.000000e+000
    endloop
  endfacet
  facet normal -5.406408e-001  8.412536e-001  0.000000e+000
    outer loop
      vertex -7.269763e+000  1.591856e+001  0.000000e+000
      vertex -1.146006e+001  1.322562e+001  5.000000e+000
      vertex -7.269763e+000  1.591856e+001  5.000000e+000
    endloop
  endfacet
  facet normal -2.817324e-001  9.594929e-001  0.000000e+000
    outer loop
      vertex -7.269763e+000  1.591856e+001  0.000000e+000
      vertex -7.269763e+000  1.591856e+001  5.000000e+000
      vertex -2.490510e+000  1.732187e+001  0.000000e+000
    endloop
  endfacet
  facet normal -2.817324e-001  9.594929e-001  0.000000e+000
    outer loop
      vertex -2.490510e+000  1.732187e+001  0.000000e+000
      vertex -7.269763e+000  1.591856e+001  5.000000e+000
      vertex -2.490510e+000  1.732187e+001  5.000000e+000
    endloop
  endfacet
  facet normal  0.000000e+000  1.000000e+000  0.000000e+000
    outer loop
      vertex -2.490510e+000  1.732187e+001  0.000000e+000
      vertex -2.490510e+000  1.732187e+001  5.000000e+000
      vertex  2.490510e+000  1.732187e+001  0.000000e+000
    endloop
  endfacet
  facet normal  0.000000e+000  1.000000e+000  -0.000000e+000
    outer loop
      vertex  2.490510e+000  1.732187e+001  0.000000e+000
      vertex -2.490510e+000  1.732187e+001  5.000000e+000
      vertex  2.490510e+000  1.732187e+001  5.000000e+000
    endloop
  endfacet
  facet normal  2.817324e-001  9.594929e-001  0.000000e+000
    outer loop
      vertex  2.490510e+000  1.732187e+001  0.000000e+000
      vertex  2.490510e+000  1.732187e+001  5.000000e+000
      vertex  7.269763e+000  1.591856e+001  0.000000e+000
    endloop
  endfacet
  facet normal  2.817324e-001  9.594929e-001  -0.000000e+000
    outer loop
      vertex  7.269763e+000  1.591856e+001  0.000000e+000
      vertex  2.490510e+000  1.732187e+001  5.000000e+000
      vertex  7.269763e+000  1.591856e+001  5.000000e+000
    endloop
  endfacet
  facet normal  5.406408e-001  8.412536e-001  0.000000e+000
    outer loop
      vertex  7.269763e+000  1.591856e+001  0.000000e+000
      vertex  7.269763e+000  1.591856e+001  5.000000e+000
      vertex  1.146006e+001  1.322562e+001  0.000000e+000
    endloop
  endfacet
  facet normal  5.406408e-001  8.412536e-001  -0.000000e+000
    outer loop
      vertex  1.146006e+001  1.322562e+001  0.000000e+000
      vertex  7.269763e+000  1.591856e+001  5.000000e+000
      vertex  1.146006e+001  1.322562e+001  5.000000e+000
    endloop
  endfacet
  facet normal  7.557495e-001  6.548607e-001  0.000000e+000
    outer loop
      vertex  1.146006e+001  1.322562e+001  0.000000e+000
      vertex  1.146006e+001  1.322562e+001  5.000000e+000
      vertex  1.472194e+001  9.461214e+000  0.000000e+000
    endloop
  endfacet
  facet normal  7.557495e-001  6.548607e-001  -0.000000e+000
    outer loop
      vertex  1.472194e+001  9.461214e+000  0.000000e+000
      vertex  1.146006e+001  1.322562e+001  5.000000e+000
      vertex  1.472194e+001  9.461214e+000  5.000000e+000
    endloop
  endfacet
  facet normal  9.096320e-001  4.154148e-001  0.000000e+000
    outer loop
      vertex  1.472194e+001  9.461214e+000  0.000000e+000
      vertex  1.472194e+001  9.461214e+000  5.000000e+000
      vertex  1.679113e+001  4.930320e+000  0.000000e+000
    endloop
  endfacet
  facet normal  9.096320e-001  4.154148e-001  -0.000000e+000
    outer loop
      vertex  1.679113e+001  4.930320e+000  0.000000e+000
      vertex  1.472194e+001  9.461214e+000  5.000000e+000
      vertex  1.679113e+001  4.930320e+000  5.000000e+000
    endloop
  endfacet
  facet normal  9.898215e-001  1.423150e-001  0.000000e+000
    outer loop
      vertex  1.679113e+001  4.930320e+000  0.000000e+000
      vertex  1.679113e+001  4.930320e+000  5.000000e+000
      vertex  1.750000e+001  0.000000e+000  0.000000e+000
    endloop
  endfacet
  facet normal  9.898215e-001  1.423150e-001  -0.000000e+000
    outer loop
      vertex  1.750000e+001  0.000000e+000  0.000000e+000
      vertex  1.679113e+001  4.930320e+000  5.000000e+000
      vertex  1.750000e+001  0.000000e+000  5.000000e+000
    endloop
  endfacet
endsolid CATIA STL
