solid CATIA STL
  facet normal  0.000000e+000  0.000000e+000  1.000000e+000
    outer loop
      vertex  3.360000e+001 -2.450000e+001  2.300000e+001
      vertex  2.360000e+001 -1.450000e+001  2.300000e+001
      vertex -3.360000e+001 -2.450000e+001  2.300000e+001
    endloop
  endfacet
  facet normal  0.000000e+000  0.000000e+000  1.000000e+000
    outer loop
      vertex -3.360000e+001 -2.450000e+001  2.300000e+001
      vertex  2.360000e+001 -1.450000e+001  2.300000e+001
      vertex -2.360000e+001 -1.450000e+001  2.300000e+001
    endloop
  endfacet
  facet normal  0.000000e+000  0.000000e+000  1.000000e+000
    outer loop
      vertex -3.360000e+001 -2.450000e+001  2.300000e+001
      vertex -2.360000e+001 -1.450000e+001  2.300000e+001
      vertex -3.360000e+001  2.450000e+001  2.300000e+001
    endloop
  endfacet
  facet normal  0.000000e+000  0.000000e+000  1.000000e+000
    outer loop
      vertex -3.360000e+001  2.450000e+001  2.300000e+001
      vertex -2.360000e+001 -1.450000e+001  2.300000e+001
      vertex -2.360000e+001  1.450000e+001  2.300000e+001
    endloop
  endfacet
  facet normal  0.000000e+000  -0.000000e+000  1.000000e+000
    outer loop
      vertex -3.360000e+001  2.450000e+001  2.300000e+001
      vertex -2.360000e+001  1.450000e+001  2.300000e+001
      vertex  3.360000e+001  2.450000e+001  2.300000e+001
    endloop
  endfacet
  facet normal  0.000000e+000  0.000000e+000  1.000000e+000
    outer loop
      vertex  3.360000e+001  2.450000e+001  2.300000e+001
      vertex -2.360000e+001  1.450000e+001  2.300000e+001
      vertex  2.360000e+001  1.450000e+001  2.300000e+001
    endloop
  endfacet
  facet normal  -0.000000e+000  0.000000e+000  1.000000e+000
    outer loop
      vertex  3.360000e+001  2.450000e+001  2.300000e+001
      vertex  2.360000e+001  1.450000e+001  2.300000e+001
      vertex  3.360000e+001 -2.450000e+001  2.300000e+001
    endloop
  endfacet
  facet normal  0.000000e+000  0.000000e+000  1.000000e+000
    outer loop
      vertex  3.360000e+001 -2.450000e+001  2.300000e+001
      vertex  2.360000e+001  1.450000e+001  2.300000e+001
      vertex  2.360000e+001 -1.450000e+001  2.300000e+001
    endloop
  endfacet
  facet normal  -0.000000e+000  0.000000e+000 -1.000000e+000
    outer loop
      vertex -3.360000e+001  2.450000e+001  0.000000e+000
      vertex -2.360000e+001 -1.450000e+001  0.000000e+000
      vertex -3.360000e+001 -2.450000e+001  0.000000e+000
    endloop
  endfacet
  facet normal  0.000000e+000  0.000000e+000 -1.000000e+000
    outer loop
      vertex -3.360000e+001 -2.450000e+001  0.000000e+000
      vertex -2.360000e+001 -1.450000e+001  0.000000e+000
      vertex  2.360000e+001 -1.450000e+001  0.000000e+000
    endloop
  endfacet
  facet normal  0.000000e+000  -0.000000e+000 -1.000000e+000
    outer loop
      vertex -3.360000e+001 -2.450000e+001  0.000000e+000
      vertex  2.360000e+001 -1.450000e+001  0.000000e+000
      vertex  3.360000e+001 -2.450000e+001  0.000000e+000
    endloop
  endfacet
  facet normal  0.000000e+000  0.000000e+000 -1.000000e+000
    outer loop
      vertex -2.360000e+001 -1.450000e+001  0.000000e+000
      vertex -3.360000e+001  2.450000e+001  0.000000e+000
      vertex -2.360000e+001  1.450000e+001  0.000000e+000
    endloop
  endfacet
  facet normal  0.000000e+000  0.000000e+000 -1.000000e+000
    outer loop
      vertex -2.360000e+001  1.450000e+001  0.000000e+000
      vertex -3.360000e+001  2.450000e+001  0.000000e+000
      vertex  3.360000e+001  2.450000e+001  0.000000e+000
    endloop
  endfacet
  facet normal  0.000000e+000  0.000000e+000 -1.000000e+000
    outer loop
      vertex -2.360000e+001  1.450000e+001  0.000000e+000
      vertex  3.360000e+001  2.450000e+001  0.000000e+000
      vertex  2.360000e+001  1.450000e+001  0.000000e+000
    endloop
  endfacet
  facet normal  0.000000e+000  0.000000e+000 -1.000000e+000
    outer loop
      vertex  2.360000e+001  1.450000e+001  0.000000e+000
      vertex  3.360000e+001  2.450000e+001  0.000000e+000
      vertex  3.360000e+001 -2.450000e+001  0.000000e+000
    endloop
  endfacet
  facet normal  0.000000e+000  0.000000e+000 -1.000000e+000
    outer loop
      vertex  2.360000e+001  1.450000e+001  0.000000e+000
      vertex  3.360000e+001 -2.450000e+001  0.000000e+000
      vertex  2.360000e+001 -1.450000e+001  0.000000e+000
    endloop
  endfacet
  facet normal  1.000000e+000  -0.000000e+000  0.000000e+000
    outer loop
      vertex -2.360000e+001  1.450000e+001  2.300000e+001
      vertex -2.360000e+001 -1.450000e+001  2.300000e+001
      vertex -2.360000e+001  1.450000e+001  0.000000e+000
    endloop
  endfacet
  facet normal  1.000000e+000  0.000000e+000  0.000000e+000
    outer loop
      vertex -2.360000e+001  1.450000e+001  0.000000e+000
      vertex -2.360000e+001 -1.450000e+001  2.300000e+001
      vertex -2.360000e+001 -1.450000e+001  0.000000e+000
    endloop
  endfacet
  facet normal  0.000000e+000  1.000000e+000  -0.000000e+000
    outer loop
      vertex  2.360000e+001 -1.450000e+001  2.300000e+001
      vertex  2.360000e+001 -1.450000e+001  0.000000e+000
      vertex -2.360000e+001 -1.450000e+001  2.300000e+001
    endloop
  endfacet
  facet normal  0.000000e+000  1.000000e+000  0.000000e+000
    outer loop
      vertex -2.360000e+001 -1.450000e+001  2.300000e+001
      vertex  2.360000e+001 -1.450000e+001  0.000000e+000
      vertex -2.360000e+001 -1.450000e+001  0.000000e+000
    endloop
  endfacet
  facet normal -1.000000e+000  -0.000000e+000  0.000000e+000
    outer loop
      vertex  2.360000e+001 -1.450000e+001  2.300000e+001
      vertex  2.360000e+001  1.450000e+001  2.300000e+001
      vertex  2.360000e+001 -1.450000e+001  0.000000e+000
    endloop
  endfacet
  facet normal -1.000000e+000  0.000000e+000  0.000000e+000
    outer loop
      vertex  2.360000e+001 -1.450000e+001  0.000000e+000
      vertex  2.360000e+001  1.450000e+001  2.300000e+001
      vertex  2.360000e+001  1.450000e+001  0.000000e+000
    endloop
  endfacet
  facet normal  0.000000e+000 -1.000000e+000  0.000000e+000
    outer loop
      vertex -2.360000e+001  1.450000e+001  2.300000e+001
      vertex -2.360000e+001  1.450000e+001  0.000000e+000
      vertex  2.360000e+001  1.450000e+001  2.300000e+001
    endloop
  endfacet
  facet normal  0.000000e+000 -1.000000e+000  -0.000000e+000
    outer loop
      vertex  2.360000e+001  1.450000e+001  2.300000e+001
      vertex -2.360000e+001  1.450000e+001  0.000000e+000
      vertex  2.360000e+001  1.450000e+001  0.000000e+000
    endloop
  endfacet
  facet normal  0.000000e+000  1.000000e+000  0.000000e+000
    outer loop
      vertex -3.360000e+001  2.450000e+001  2.300000e+001
      vertex  3.360000e+001  2.450000e+001  2.300000e+001
      vertex -3.360000e+001  2.450000e+001  0.000000e+000
    endloop
  endfacet
  facet normal  0.000000e+000  1.000000e+000  0.000000e+000
    outer loop
      vertex -3.360000e+001  2.450000e+001  0.000000e+000
      vertex  3.360000e+001  2.450000e+001  2.300000e+001
      vertex  3.360000e+001  2.450000e+001  0.000000e+000
    endloop
  endfacet
  facet normal  1.000000e+000  0.000000e+000  0.000000e+000
    outer loop
      vertex  3.360000e+001 -2.450000e+001  2.300000e+001
      vertex  3.360000e+001 -2.450000e+001  0.000000e+000
      vertex  3.360000e+001  2.450000e+001  2.300000e+001
    endloop
  endfacet
  facet normal  1.000000e+000  0.000000e+000  0.000000e+000
    outer loop
      vertex  3.360000e+001  2.450000e+001  2.300000e+001
      vertex  3.360000e+001 -2.450000e+001  0.000000e+000
      vertex  3.360000e+001  2.450000e+001  0.000000e+000
    endloop
  endfacet
  facet normal  0.000000e+000 -1.000000e+000  0.000000e+000
    outer loop
      vertex  3.360000e+001 -2.450000e+001  2.300000e+001
      vertex -3.360000e+001 -2.450000e+001  2.300000e+001
      vertex  3.360000e+001 -2.450000e+001  0.000000e+000
    endloop
  endfacet
  facet normal  0.000000e+000 -1.000000e+000  0.000000e+000
    outer loop
      vertex  3.360000e+001 -2.450000e+001  0.000000e+000
      vertex -3.360000e+001 -2.450000e+001  2.300000e+001
      vertex -3.360000e+001 -2.450000e+001  0.000000e+000
    endloop
  endfacet
  facet normal -1.000000e+000  0.000000e+000  0.000000e+000
    outer loop
      vertex -3.360000e+001  2.450000e+001  2.300000e+001
      vertex -3.360000e+001  2.450000e+001  0.000000e+000
      vertex -3.360000e+001 -2.450000e+001  2.300000e+001
    endloop
  endfacet
  facet normal -1.000000e+000  0.000000e+000  0.000000e+000
    outer loop
      vertex -3.360000e+001 -2.450000e+001  2.300000e+001
      vertex -3.360000e+001  2.450000e+001  0.000000e+000
      vertex -3.360000e+001 -2.450000e+001  0.000000e+000
    endloop
  endfacet
endsolid CATIA STL
