solid CATIA STL
  facet normal  -0.000000e+000  0.000000e+000  9.999999e-001
    outer loop
      vertex -1.258815e+001  8.500000e+000  3.500000e+000
      vertex -1.584096e+001  7.852976e+000  3.500000e+000
      vertex -1.108815e+001  1.500000e+000  3.500000e+000
    endloop
  endfacet
  facet normal  0.000000e+000  -0.000000e+000  1.000000e+000
    outer loop
      vertex  1.391185e+001 -1.500000e+000  3.500000e+000
      vertex  1.541185e+001 -8.500000e+000  3.500000e+000
      vertex  1.866466e+001 -7.852976e+000  3.500000e+000
    endloop
  endfacet
  facet normal  0.000000e+000  -0.000000e+000  1.000000e+000
    outer loop
      vertex  1.391185e+001 -1.500000e+000  3.500000e+000
      vertex  1.866466e+001 -7.852976e+000  3.500000e+000
      vertex  2.142226e+001 -6.010407e+000  3.500000e+000
    endloop
  endfacet
  facet normal  0.000000e+000  -0.000000e+000  9.999999e-001
    outer loop
      vertex  1.391185e+001 -1.500000e+000  3.500000e+000
      vertex  2.142226e+001 -6.010407e+000  3.500000e+000
      vertex  2.326483e+001 -3.252809e+000  3.500000e+000
    endloop
  endfacet
  facet normal  0.000000e+000  0.000000e+000  1.000000e+000
    outer loop
      vertex  1.391185e+001 -1.500000e+000  3.500000e+000
      vertex  2.326483e+001 -3.252809e+000  3.500000e+000
      vertex  1.497251e+001 -1.060660e+000  3.500000e+000
    endloop
  endfacet
  facet normal  0.000000e+000  0.000000e+000  1.000000e+000
    outer loop
      vertex -2.044112e+001 -3.252809e+000  3.500000e+000
      vertex -1.108815e+001 -1.500000e+000  3.500000e+000
      vertex -1.214881e+001 -1.060660e+000  3.500000e+000
    endloop
  endfacet
  facet normal  0.000000e+000  0.000000e+000  1.000000e+000
    outer loop
      vertex -2.044112e+001 -3.252809e+000  3.500000e+000
      vertex -1.214881e+001 -1.060660e+000  3.500000e+000
      vertex -1.258815e+001  1.836910e-016  3.500000e+000
    endloop
  endfacet
  facet normal  0.000000e+000  0.000000e+000  9.999999e-001
    outer loop
      vertex -2.044112e+001 -3.252809e+000  3.500000e+000
      vertex -1.258815e+001  1.836910e-016  3.500000e+000
      vertex -2.108815e+001  4.815674e-015  3.500000e+000
    endloop
  endfacet
  facet normal  -0.000000e+000  -0.000000e+000  1.000000e+000
    outer loop
      vertex  1.391185e+001  1.500000e+000  3.500000e+000
      vertex  1.497251e+001  1.060660e+000  3.500000e+000
      vertex  2.391185e+001 -2.081831e-015  3.500000e+000
    endloop
  endfacet
  facet normal  0.000000e+000  0.000000e+000  1.000000e+000
    outer loop
      vertex  1.391185e+001  1.500000e+000  3.500000e+000
      vertex  2.391185e+001 -2.081831e-015  3.500000e+000
      vertex  2.326483e+001  3.252809e+000  3.500000e+000
    endloop
  endfacet
  facet normal  0.000000e+000  0.000000e+000  9.999999e-001
    outer loop
      vertex  1.391185e+001  1.500000e+000  3.500000e+000
      vertex  2.326483e+001  3.252809e+000  3.500000e+000
      vertex  2.142226e+001  6.010407e+000  3.500000e+000
    endloop
  endfacet
  facet normal  0.000000e+000  0.000000e+000  1.000000e+000
    outer loop
      vertex  1.391185e+001  1.500000e+000  3.500000e+000
      vertex  2.142226e+001  6.010407e+000  3.500000e+000
      vertex  1.866466e+001  7.852976e+000  3.500000e+000
    endloop
  endfacet
  facet normal  0.000000e+000  0.000000e+000  1.000000e+000
    outer loop
      vertex  1.391185e+001  1.500000e+000  3.500000e+000
      vertex  1.866466e+001  7.852976e+000  3.500000e+000
      vertex  1.541185e+001  8.500000e+000  3.500000e+000
    endloop
  endfacet
  facet normal  0.000000e+000  0.000000e+000  1.000000e+000
    outer loop
      vertex  1.391185e+001  1.500000e+000  3.500000e+000
      vertex  1.541185e+001  8.500000e+000  3.500000e+000
      vertex -1.258815e+001  8.500000e+000  3.500000e+000
    endloop
  endfacet
  facet normal  0.000000e+000  0.000000e+000  1.000000e+000
    outer loop
      vertex  1.391185e+001  1.500000e+000  3.500000e+000
      vertex -1.258815e+001  8.500000e+000  3.500000e+000
      vertex -1.108815e+001  1.500000e+000  3.500000e+000
    endloop
  endfacet
  facet normal  -0.000000e+000  0.000000e+000  1.000000e+000
    outer loop
      vertex  1.391185e+001  1.500000e+000  3.500000e+000
      vertex -1.108815e+001  1.500000e+000  3.500000e+000
      vertex -1.002749e+001  1.060660e+000  3.500000e+000
    endloop
  endfacet
  facet normal  0.000000e+000  0.000000e+000  1.000000e+000
    outer loop
      vertex  1.391185e+001  1.500000e+000  3.500000e+000
      vertex -1.002749e+001  1.060660e+000  3.500000e+000
      vertex  1.285119e+001  1.060660e+000  3.500000e+000
    endloop
  endfacet
  facet normal  0.000000e+000  0.000000e+000  1.000000e+000
    outer loop
      vertex  1.541185e+001 -8.500000e+000  3.500000e+000
      vertex  1.391185e+001 -1.500000e+000  3.500000e+000
      vertex -1.258815e+001 -8.500000e+000  3.500000e+000
    endloop
  endfacet
  facet normal  0.000000e+000  0.000000e+000  1.000000e+000
    outer loop
      vertex -1.258815e+001 -8.500000e+000  3.500000e+000
      vertex  1.391185e+001 -1.500000e+000  3.500000e+000
      vertex -1.108815e+001 -1.500000e+000  3.500000e+000
    endloop
  endfacet
  facet normal  0.000000e+000  0.000000e+000  9.999999e-001
    outer loop
      vertex -1.258815e+001 -8.500000e+000  3.500000e+000
      vertex -1.108815e+001 -1.500000e+000  3.500000e+000
      vertex -1.584096e+001 -7.852976e+000  3.500000e+000
    endloop
  endfacet
  facet normal  0.000000e+000  -0.000000e+000  1.000000e+000
    outer loop
      vertex -1.584096e+001 -7.852976e+000  3.500000e+000
      vertex -1.108815e+001 -1.500000e+000  3.500000e+000
      vertex -2.044112e+001 -3.252809e+000  3.500000e+000
    endloop
  endfacet
  facet normal  0.000000e+000  0.000000e+000  1.000000e+000
    outer loop
      vertex -1.584096e+001 -7.852976e+000  3.500000e+000
      vertex -2.044112e+001 -3.252809e+000  3.500000e+000
      vertex -1.859855e+001 -6.010407e+000  3.500000e+000
    endloop
  endfacet
  facet normal  -0.000000e+000  0.000000e+000  1.000000e+000
    outer loop
      vertex -1.584096e+001  7.852976e+000  3.500000e+000
      vertex -1.859855e+001  6.010407e+000  3.500000e+000
      vertex -1.108815e+001  1.500000e+000  3.500000e+000
    endloop
  endfacet
  facet normal  0.000000e+000  0.000000e+000  9.999999e-001
    outer loop
      vertex -1.108815e+001  1.500000e+000  3.500000e+000
      vertex -1.859855e+001  6.010407e+000  3.500000e+000
      vertex -2.044112e+001  3.252809e+000  3.500000e+000
    endloop
  endfacet
  facet normal  0.000000e+000  0.000000e+000  1.000000e+000
    outer loop
      vertex -1.108815e+001  1.500000e+000  3.500000e+000
      vertex -2.044112e+001  3.252809e+000  3.500000e+000
      vertex -1.214881e+001  1.060660e+000  3.500000e+000
    endloop
  endfacet
  facet normal  0.000000e+000  0.000000e+000  1.000000e+000
    outer loop
      vertex -1.214881e+001  1.060660e+000  3.500000e+000
      vertex -2.044112e+001  3.252809e+000  3.500000e+000
      vertex -2.108815e+001  4.815674e-015  3.500000e+000
    endloop
  endfacet
  facet normal  -0.000000e+000  0.000000e+000  1.000000e+000
    outer loop
      vertex -1.214881e+001  1.060660e+000  3.500000e+000
      vertex -2.108815e+001  4.815674e-015  3.500000e+000
      vertex -1.258815e+001  1.836910e-016  3.500000e+000
    endloop
  endfacet
  facet normal  -0.000000e+000  0.000000e+000  1.000000e+000
    outer loop
      vertex  1.285119e+001  1.060660e+000  3.500000e+000
      vertex -1.002749e+001  1.060660e+000  3.500000e+000
      vertex  1.241185e+001  1.836910e-016  3.500000e+000
    endloop
  endfacet
  facet normal  0.000000e+000  0.000000e+000  1.000000e+000
    outer loop
      vertex  1.241185e+001  1.836910e-016  3.500000e+000
      vertex -1.002749e+001  1.060660e+000  3.500000e+000
      vertex -9.588147e+000  0.000000e+000  3.500000e+000
    endloop
  endfacet
  facet normal  -0.000000e+000  0.000000e+000  1.000000e+000
    outer loop
      vertex  1.241185e+001  1.836910e-016  3.500000e+000
      vertex -9.588147e+000  0.000000e+000  3.500000e+000
      vertex  1.285119e+001 -1.060660e+000  3.500000e+000
    endloop
  endfacet
  facet normal  0.000000e+000  0.000000e+000  1.000000e+000
    outer loop
      vertex  1.285119e+001 -1.060660e+000  3.500000e+000
      vertex -9.588147e+000  0.000000e+000  3.500000e+000
      vertex -1.002749e+001 -1.060660e+000  3.500000e+000
    endloop
  endfacet
  facet normal  -0.000000e+000  0.000000e+000  1.000000e+000
    outer loop
      vertex  1.285119e+001 -1.060660e+000  3.500000e+000
      vertex -1.002749e+001 -1.060660e+000  3.500000e+000
      vertex  1.391185e+001 -1.500000e+000  3.500000e+000
    endloop
  endfacet
  facet normal  0.000000e+000  0.000000e+000  1.000000e+000
    outer loop
      vertex  1.391185e+001 -1.500000e+000  3.500000e+000
      vertex -1.002749e+001 -1.060660e+000  3.500000e+000
      vertex -1.108815e+001 -1.500000e+000  3.500000e+000
    endloop
  endfacet
  facet normal  0.000000e+000  0.000000e+000  1.000000e+000
    outer loop
      vertex  1.497251e+001 -1.060660e+000  3.500000e+000
      vertex  2.326483e+001 -3.252809e+000  3.500000e+000
      vertex  1.541185e+001  0.000000e+000  3.500000e+000
    endloop
  endfacet
  facet normal  0.000000e+000  0.000000e+000  9.999999e-001
    outer loop
      vertex  1.541185e+001  0.000000e+000  3.500000e+000
      vertex  2.326483e+001 -3.252809e+000  3.500000e+000
      vertex  2.391185e+001 -2.081831e-015  3.500000e+000
    endloop
  endfacet
  facet normal  0.000000e+000  0.000000e+000  1.000000e+000
    outer loop
      vertex  1.541185e+001  0.000000e+000  3.500000e+000
      vertex  2.391185e+001 -2.081831e-015  3.500000e+000
      vertex  1.497251e+001  1.060660e+000  3.500000e+000
    endloop
  endfacet
  facet normal  0.000000e+000  0.000000e+000 -9.999999e-001
    outer loop
      vertex -1.108815e+001  1.500000e+000  0.000000e+000
      vertex -1.584096e+001  7.852976e+000  0.000000e+000
      vertex -1.258815e+001  8.500000e+000  0.000000e+000
    endloop
  endfacet
  facet normal  0.000000e+000  -0.000000e+000 -1.000000e+000
    outer loop
      vertex  1.391185e+001 -1.500000e+000  0.000000e+000
      vertex  1.497251e+001 -1.060660e+000  0.000000e+000
      vertex  2.326483e+001 -3.252809e+000  0.000000e+000
    endloop
  endfacet
  facet normal  -0.000000e+000  0.000000e+000 -9.999999e-001
    outer loop
      vertex  1.391185e+001 -1.500000e+000  0.000000e+000
      vertex  2.326483e+001 -3.252809e+000  0.000000e+000
      vertex  2.142226e+001 -6.010407e+000  0.000000e+000
    endloop
  endfacet
  facet normal  -0.000000e+000  0.000000e+000 -1.000000e+000
    outer loop
      vertex  1.391185e+001 -1.500000e+000  0.000000e+000
      vertex  2.142226e+001 -6.010407e+000  0.000000e+000
      vertex  1.866466e+001 -7.852976e+000  0.000000e+000
    endloop
  endfacet
  facet normal  -0.000000e+000  0.000000e+000 -1.000000e+000
    outer loop
      vertex  1.391185e+001 -1.500000e+000  0.000000e+000
      vertex  1.866466e+001 -7.852976e+000  0.000000e+000
      vertex  1.541185e+001 -8.500000e+000  0.000000e+000
    endloop
  endfacet
  facet normal  0.000000e+000  0.000000e+000 -9.999999e-001
    outer loop
      vertex -2.044112e+001 -3.252809e+000  0.000000e+000
      vertex -2.108815e+001  4.815674e-015  0.000000e+000
      vertex -1.258815e+001  1.836910e-016  0.000000e+000
    endloop
  endfacet
  facet normal  0.000000e+000  -0.000000e+000 -1.000000e+000
    outer loop
      vertex -2.044112e+001 -3.252809e+000  0.000000e+000
      vertex -1.258815e+001  1.836910e-016  0.000000e+000
      vertex -1.214881e+001 -1.060660e+000  0.000000e+000
    endloop
  endfacet
  facet normal  0.000000e+000  -0.000000e+000 -1.000000e+000
    outer loop
      vertex -2.044112e+001 -3.252809e+000  0.000000e+000
      vertex -1.214881e+001 -1.060660e+000  0.000000e+000
      vertex -1.108815e+001 -1.500000e+000  0.000000e+000
    endloop
  endfacet
  facet normal  0.000000e+000  0.000000e+000 -1.000000e+000
    outer loop
      vertex  1.391185e+001  1.500000e+000  0.000000e+000
      vertex  1.285119e+001  1.060660e+000  0.000000e+000
      vertex -1.002749e+001  1.060660e+000  0.000000e+000
    endloop
  endfacet
  facet normal  0.000000e+000  0.000000e+000 -1.000000e+000
    outer loop
      vertex  1.391185e+001  1.500000e+000  0.000000e+000
      vertex -1.002749e+001  1.060660e+000  0.000000e+000
      vertex -1.108815e+001  1.500000e+000  0.000000e+000
    endloop
  endfacet
  facet normal  0.000000e+000  0.000000e+000 -1.000000e+000
    outer loop
      vertex  1.391185e+001  1.500000e+000  0.000000e+000
      vertex -1.108815e+001  1.500000e+000  0.000000e+000
      vertex -1.258815e+001  8.500000e+000  0.000000e+000
    endloop
  endfacet
  facet normal  0.000000e+000  0.000000e+000 -1.000000e+000
    outer loop
      vertex  1.391185e+001  1.500000e+000  0.000000e+000
      vertex -1.258815e+001  8.500000e+000  0.000000e+000
      vertex  1.541185e+001  8.500000e+000  0.000000e+000
    endloop
  endfacet
  facet normal  0.000000e+000  -0.000000e+000 -1.000000e+000
    outer loop
      vertex  1.391185e+001  1.500000e+000  0.000000e+000
      vertex  1.541185e+001  8.500000e+000  0.000000e+000
      vertex  1.866466e+001  7.852976e+000  0.000000e+000
    endloop
  endfacet
  facet normal  0.000000e+000  -0.000000e+000 -1.000000e+000
    outer loop
      vertex  1.391185e+001  1.500000e+000  0.000000e+000
      vertex  1.866466e+001  7.852976e+000  0.000000e+000
      vertex  2.142226e+001  6.010407e+000  0.000000e+000
    endloop
  endfacet
  facet normal  0.000000e+000  -0.000000e+000 -9.999999e-001
    outer loop
      vertex  1.391185e+001  1.500000e+000  0.000000e+000
      vertex  2.142226e+001  6.010407e+000  0.000000e+000
      vertex  2.326483e+001  3.252809e+000  0.000000e+000
    endloop
  endfacet
  facet normal  0.000000e+000  -0.000000e+000 -1.000000e+000
    outer loop
      vertex  1.391185e+001  1.500000e+000  0.000000e+000
      vertex  2.326483e+001  3.252809e+000  0.000000e+000
      vertex  2.391185e+001 -2.081831e-015  0.000000e+000
    endloop
  endfacet
  facet normal  0.000000e+000  0.000000e+000 -1.000000e+000
    outer loop
      vertex  1.391185e+001  1.500000e+000  0.000000e+000
      vertex  2.391185e+001 -2.081831e-015  0.000000e+000
      vertex  1.497251e+001  1.060660e+000  0.000000e+000
    endloop
  endfacet
  facet normal  0.000000e+000  0.000000e+000 -1.000000e+000
    outer loop
      vertex -1.859855e+001 -6.010407e+000  0.000000e+000
      vertex -2.044112e+001 -3.252809e+000  0.000000e+000
      vertex -1.584096e+001 -7.852976e+000  0.000000e+000
    endloop
  endfacet
  facet normal  0.000000e+000  0.000000e+000 -1.000000e+000
    outer loop
      vertex -1.584096e+001 -7.852976e+000  0.000000e+000
      vertex -2.044112e+001 -3.252809e+000  0.000000e+000
      vertex -1.108815e+001 -1.500000e+000  0.000000e+000
    endloop
  endfacet
  facet normal  0.000000e+000  0.000000e+000 -9.999999e-001
    outer loop
      vertex -1.584096e+001 -7.852976e+000  0.000000e+000
      vertex -1.108815e+001 -1.500000e+000  0.000000e+000
      vertex -1.258815e+001 -8.500000e+000  0.000000e+000
    endloop
  endfacet
  facet normal  0.000000e+000  0.000000e+000 -1.000000e+000
    outer loop
      vertex -1.258815e+001 -8.500000e+000  0.000000e+000
      vertex -1.108815e+001 -1.500000e+000  0.000000e+000
      vertex  1.391185e+001 -1.500000e+000  0.000000e+000
    endloop
  endfacet
  facet normal  0.000000e+000  -0.000000e+000 -1.000000e+000
    outer loop
      vertex -1.258815e+001 -8.500000e+000  0.000000e+000
      vertex  1.391185e+001 -1.500000e+000  0.000000e+000
      vertex  1.541185e+001 -8.500000e+000  0.000000e+000
    endloop
  endfacet
  facet normal  0.000000e+000  0.000000e+000 -1.000000e+000
    outer loop
      vertex -1.258815e+001  1.836910e-016  0.000000e+000
      vertex -2.108815e+001  4.815674e-015  0.000000e+000
      vertex -1.214881e+001  1.060660e+000  0.000000e+000
    endloop
  endfacet
  facet normal  -0.000000e+000  0.000000e+000 -1.000000e+000
    outer loop
      vertex -1.214881e+001  1.060660e+000  0.000000e+000
      vertex -2.108815e+001  4.815674e-015  0.000000e+000
      vertex -2.044112e+001  3.252809e+000  0.000000e+000
    endloop
  endfacet
  facet normal  0.000000e+000  0.000000e+000 -1.000000e+000
    outer loop
      vertex -1.214881e+001  1.060660e+000  0.000000e+000
      vertex -2.044112e+001  3.252809e+000  0.000000e+000
      vertex -1.108815e+001  1.500000e+000  0.000000e+000
    endloop
  endfacet
  facet normal  0.000000e+000  0.000000e+000 -9.999999e-001
    outer loop
      vertex -1.108815e+001  1.500000e+000  0.000000e+000
      vertex -2.044112e+001  3.252809e+000  0.000000e+000
      vertex -1.859855e+001  6.010407e+000  0.000000e+000
    endloop
  endfacet
  facet normal  0.000000e+000  0.000000e+000 -1.000000e+000
    outer loop
      vertex -1.108815e+001  1.500000e+000  0.000000e+000
      vertex -1.859855e+001  6.010407e+000  0.000000e+000
      vertex -1.584096e+001  7.852976e+000  0.000000e+000
    endloop
  endfacet
  facet normal  0.000000e+000  0.000000e+000 -1.000000e+000
    outer loop
      vertex  1.241185e+001  1.836910e-016  0.000000e+000
      vertex -1.002749e+001  1.060660e+000  0.000000e+000
      vertex  1.285119e+001  1.060660e+000  0.000000e+000
    endloop
  endfacet
  facet normal  -0.000000e+000  0.000000e+000 -1.000000e+000
    outer loop
      vertex -1.002749e+001  1.060660e+000  0.000000e+000
      vertex  1.241185e+001  1.836910e-016  0.000000e+000
      vertex -9.588147e+000  0.000000e+000  0.000000e+000
    endloop
  endfacet
  facet normal  0.000000e+000  0.000000e+000 -1.000000e+000
    outer loop
      vertex -9.588147e+000  0.000000e+000  0.000000e+000
      vertex  1.241185e+001  1.836910e-016  0.000000e+000
      vertex  1.285119e+001 -1.060660e+000  0.000000e+000
    endloop
  endfacet
  facet normal  0.000000e+000  0.000000e+000 -1.000000e+000
    outer loop
      vertex -9.588147e+000  0.000000e+000  0.000000e+000
      vertex  1.285119e+001 -1.060660e+000  0.000000e+000
      vertex -1.002749e+001 -1.060660e+000  0.000000e+000
    endloop
  endfacet
  facet normal  0.000000e+000  0.000000e+000 -1.000000e+000
    outer loop
      vertex -1.002749e+001 -1.060660e+000  0.000000e+000
      vertex  1.285119e+001 -1.060660e+000  0.000000e+000
      vertex  1.391185e+001 -1.500000e+000  0.000000e+000
    endloop
  endfacet
  facet normal  0.000000e+000  0.000000e+000 -1.000000e+000
    outer loop
      vertex -1.002749e+001 -1.060660e+000  0.000000e+000
      vertex  1.391185e+001 -1.500000e+000  0.000000e+000
      vertex -1.108815e+001 -1.500000e+000  0.000000e+000
    endloop
  endfacet
  facet normal  0.000000e+000  0.000000e+000 -1.000000e+000
    outer loop
      vertex  1.497251e+001  1.060660e+000  0.000000e+000
      vertex  2.391185e+001 -2.081831e-015  0.000000e+000
      vertex  1.541185e+001  0.000000e+000  0.000000e+000
    endloop
  endfacet
  facet normal  0.000000e+000  0.000000e+000 -9.999999e-001
    outer loop
      vertex  1.541185e+001  0.000000e+000  0.000000e+000
      vertex  2.391185e+001 -2.081831e-015  0.000000e+000
      vertex  2.326483e+001 -3.252809e+000  0.000000e+000
    endloop
  endfacet
  facet normal  0.000000e+000  0.000000e+000 -1.000000e+000
    outer loop
      vertex  1.541185e+001  0.000000e+000  0.000000e+000
      vertex  2.326483e+001 -3.252809e+000  0.000000e+000
      vertex  1.497251e+001 -1.060660e+000  0.000000e+000
    endloop
  endfacet
  facet normal  3.826834e-001 -9.238796e-001  0.000000e+000
    outer loop
      vertex  1.391185e+001  1.500000e+000  0.000000e+000
      vertex  1.285119e+001  1.060660e+000  3.500000e+000
      vertex  1.285119e+001  1.060660e+000  0.000000e+000
    endloop
  endfacet
  facet normal  9.238796e-001 -3.826833e-001  0.000000e+000
    outer loop
      vertex  1.285119e+001  1.060660e+000  0.000000e+000
      vertex  1.285119e+001  1.060660e+000  3.500000e+000
      vertex  1.241185e+001  1.836910e-016  3.500000e+000
    endloop
  endfacet
  facet normal  9.238796e-001 -3.826833e-001  0.000000e+000
    outer loop
      vertex  1.285119e+001  1.060660e+000  0.000000e+000
      vertex  1.241185e+001  1.836910e-016  3.500000e+000
      vertex  1.241185e+001  1.836910e-016  0.000000e+000
    endloop
  endfacet
  facet normal  3.826834e-001 -9.238796e-001  0.000000e+000
    outer loop
      vertex  1.285119e+001  1.060660e+000  3.500000e+000
      vertex  1.391185e+001  1.500000e+000  0.000000e+000
      vertex  1.391185e+001  1.500000e+000  3.500000e+000
    endloop
  endfacet
  facet normal -3.826834e-001 -9.238796e-001  -0.000000e+000
    outer loop
      vertex  1.391185e+001  1.500000e+000  3.500000e+000
      vertex  1.391185e+001  1.500000e+000  0.000000e+000
      vertex  1.497251e+001  1.060660e+000  0.000000e+000
    endloop
  endfacet
  facet normal -3.826834e-001 -9.238796e-001  0.000000e+000
    outer loop
      vertex  1.391185e+001  1.500000e+000  3.500000e+000
      vertex  1.497251e+001  1.060660e+000  0.000000e+000
      vertex  1.497251e+001  1.060660e+000  3.500000e+000
    endloop
  endfacet
  facet normal -9.238796e-001 -3.826833e-001  -0.000000e+000
    outer loop
      vertex  1.497251e+001  1.060660e+000  3.500000e+000
      vertex  1.497251e+001  1.060660e+000  0.000000e+000
      vertex  1.541185e+001  0.000000e+000  0.000000e+000
    endloop
  endfacet
  facet normal -9.238796e-001 -3.826833e-001  0.000000e+000
    outer loop
      vertex  1.497251e+001  1.060660e+000  3.500000e+000
      vertex  1.541185e+001  0.000000e+000  0.000000e+000
      vertex  1.541185e+001  0.000000e+000  3.500000e+000
    endloop
  endfacet
  facet normal -3.826834e-001  9.238796e-001  0.000000e+000
    outer loop
      vertex  1.391185e+001 -1.500000e+000  0.000000e+000
      vertex  1.497251e+001 -1.060660e+000  3.500000e+000
      vertex  1.497251e+001 -1.060660e+000  0.000000e+000
    endloop
  endfacet
  facet normal -9.238796e-001  3.826833e-001  0.000000e+000
    outer loop
      vertex  1.497251e+001 -1.060660e+000  0.000000e+000
      vertex  1.497251e+001 -1.060660e+000  3.500000e+000
      vertex  1.541185e+001  0.000000e+000  3.500000e+000
    endloop
  endfacet
  facet normal -9.238796e-001  3.826833e-001  0.000000e+000
    outer loop
      vertex  1.497251e+001 -1.060660e+000  0.000000e+000
      vertex  1.541185e+001  0.000000e+000  3.500000e+000
      vertex  1.541185e+001  0.000000e+000  0.000000e+000
    endloop
  endfacet
  facet normal -3.826834e-001  9.238796e-001  0.000000e+000
    outer loop
      vertex  1.497251e+001 -1.060660e+000  3.500000e+000
      vertex  1.391185e+001 -1.500000e+000  0.000000e+000
      vertex  1.391185e+001 -1.500000e+000  3.500000e+000
    endloop
  endfacet
  facet normal  3.826834e-001  9.238796e-001  0.000000e+000
    outer loop
      vertex  1.391185e+001 -1.500000e+000  3.500000e+000
      vertex  1.391185e+001 -1.500000e+000  0.000000e+000
      vertex  1.285119e+001 -1.060660e+000  0.000000e+000
    endloop
  endfacet
  facet normal  3.826834e-001  9.238796e-001  -0.000000e+000
    outer loop
      vertex  1.391185e+001 -1.500000e+000  3.500000e+000
      vertex  1.285119e+001 -1.060660e+000  0.000000e+000
      vertex  1.285119e+001 -1.060660e+000  3.500000e+000
    endloop
  endfacet
  facet normal  9.238796e-001  3.826833e-001  0.000000e+000
    outer loop
      vertex  1.285119e+001 -1.060660e+000  3.500000e+000
      vertex  1.285119e+001 -1.060660e+000  0.000000e+000
      vertex  1.241185e+001  1.836910e-016  0.000000e+000
    endloop
  endfacet
  facet normal  9.238796e-001  3.826833e-001  -0.000000e+000
    outer loop
      vertex  1.285119e+001 -1.060660e+000  3.500000e+000
      vertex  1.241185e+001  1.836910e-016  0.000000e+000
      vertex  1.241185e+001  1.836910e-016  3.500000e+000
    endloop
  endfacet
  facet normal  3.826834e-001 -9.238796e-001  0.000000e+000
    outer loop
      vertex -1.108815e+001  1.500000e+000  0.000000e+000
      vertex -1.214881e+001  1.060660e+000  3.500000e+000
      vertex -1.214881e+001  1.060660e+000  0.000000e+000
    endloop
  endfacet
  facet normal  9.238796e-001 -3.826833e-001  0.000000e+000
    outer loop
      vertex -1.214881e+001  1.060660e+000  0.000000e+000
      vertex -1.214881e+001  1.060660e+000  3.500000e+000
      vertex -1.258815e+001  1.836910e-016  3.500000e+000
    endloop
  endfacet
  facet normal  9.238796e-001 -3.826833e-001  0.000000e+000
    outer loop
      vertex -1.214881e+001  1.060660e+000  0.000000e+000
      vertex -1.258815e+001  1.836910e-016  3.500000e+000
      vertex -1.258815e+001  1.836910e-016  0.000000e+000
    endloop
  endfacet
  facet normal  3.826834e-001 -9.238796e-001  0.000000e+000
    outer loop
      vertex -1.214881e+001  1.060660e+000  3.500000e+000
      vertex -1.108815e+001  1.500000e+000  0.000000e+000
      vertex -1.108815e+001  1.500000e+000  3.500000e+000
    endloop
  endfacet
  facet normal -3.826834e-001 -9.238796e-001  -0.000000e+000
    outer loop
      vertex -1.108815e+001  1.500000e+000  3.500000e+000
      vertex -1.108815e+001  1.500000e+000  0.000000e+000
      vertex -1.002749e+001  1.060660e+000  0.000000e+000
    endloop
  endfacet
  facet normal -3.826834e-001 -9.238796e-001  0.000000e+000
    outer loop
      vertex -1.108815e+001  1.500000e+000  3.500000e+000
      vertex -1.002749e+001  1.060660e+000  0.000000e+000
      vertex -1.002749e+001  1.060660e+000  3.500000e+000
    endloop
  endfacet
  facet normal -9.238796e-001 -3.826833e-001  -0.000000e+000
    outer loop
      vertex -1.002749e+001  1.060660e+000  3.500000e+000
      vertex -1.002749e+001  1.060660e+000  0.000000e+000
      vertex -9.588147e+000  0.000000e+000  0.000000e+000
    endloop
  endfacet
  facet normal -9.238796e-001 -3.826833e-001  0.000000e+000
    outer loop
      vertex -1.002749e+001  1.060660e+000  3.500000e+000
      vertex -9.588147e+000  0.000000e+000  0.000000e+000
      vertex -9.588147e+000  0.000000e+000  3.500000e+000
    endloop
  endfacet
  facet normal -3.826834e-001  9.238796e-001  0.000000e+000
    outer loop
      vertex -1.108815e+001 -1.500000e+000  0.000000e+000
      vertex -1.002749e+001 -1.060660e+000  3.500000e+000
      vertex -1.002749e+001 -1.060660e+000  0.000000e+000
    endloop
  endfacet
  facet normal -9.238796e-001  3.826833e-001  0.000000e+000
    outer loop
      vertex -1.002749e+001 -1.060660e+000  0.000000e+000
      vertex -1.002749e+001 -1.060660e+000  3.500000e+000
      vertex -9.588147e+000  0.000000e+000  3.500000e+000
    endloop
  endfacet
  facet normal -9.238796e-001  3.826833e-001  0.000000e+000
    outer loop
      vertex -1.002749e+001 -1.060660e+000  0.000000e+000
      vertex -9.588147e+000  0.000000e+000  3.500000e+000
      vertex -9.588147e+000  0.000000e+000  0.000000e+000
    endloop
  endfacet
  facet normal -3.826834e-001  9.238796e-001  0.000000e+000
    outer loop
      vertex -1.002749e+001 -1.060660e+000  3.500000e+000
      vertex -1.108815e+001 -1.500000e+000  0.000000e+000
      vertex -1.108815e+001 -1.500000e+000  3.500000e+000
    endloop
  endfacet
  facet normal  3.826834e-001  9.238796e-001  0.000000e+000
    outer loop
      vertex -1.108815e+001 -1.500000e+000  3.500000e+000
      vertex -1.108815e+001 -1.500000e+000  0.000000e+000
      vertex -1.214881e+001 -1.060660e+000  0.000000e+000
    endloop
  endfacet
  facet normal  3.826834e-001  9.238796e-001  -0.000000e+000
    outer loop
      vertex -1.108815e+001 -1.500000e+000  3.500000e+000
      vertex -1.214881e+001 -1.060660e+000  0.000000e+000
      vertex -1.214881e+001 -1.060660e+000  3.500000e+000
    endloop
  endfacet
  facet normal  9.238796e-001  3.826833e-001  0.000000e+000
    outer loop
      vertex -1.214881e+001 -1.060660e+000  3.500000e+000
      vertex -1.214881e+001 -1.060660e+000  0.000000e+000
      vertex -1.258815e+001  1.836910e-016  0.000000e+000
    endloop
  endfacet
  facet normal  9.238796e-001  3.826833e-001  -0.000000e+000
    outer loop
      vertex -1.214881e+001 -1.060660e+000  3.500000e+000
      vertex -1.258815e+001  1.836910e-016  0.000000e+000
      vertex -1.258815e+001  1.836910e-016  3.500000e+000
    endloop
  endfacet
  facet normal  0.000000e+000  1.000000e+000  0.000000e+000
    outer loop
      vertex -1.258815e+001  8.500000e+000  3.500000e+000
      vertex  1.541185e+001  8.500000e+000  3.500000e+000
      vertex -1.258815e+001  8.500000e+000  0.000000e+000
    endloop
  endfacet
  facet normal  0.000000e+000  1.000000e+000  0.000000e+000
    outer loop
      vertex -1.258815e+001  8.500000e+000  0.000000e+000
      vertex  1.541185e+001  8.500000e+000  3.500000e+000
      vertex  1.541185e+001  8.500000e+000  0.000000e+000
    endloop
  endfacet
  facet normal  1.950904e-001  9.807853e-001  0.000000e+000
    outer loop
      vertex  1.541185e+001  8.500000e+000  0.000000e+000
      vertex  1.541185e+001  8.500000e+000  3.500000e+000
      vertex  1.866466e+001  7.852976e+000  0.000000e+000
    endloop
  endfacet
  facet normal  1.950904e-001  9.807853e-001  -0.000000e+000
    outer loop
      vertex  1.866466e+001  7.852976e+000  0.000000e+000
      vertex  1.541185e+001  8.500000e+000  3.500000e+000
      vertex  1.866466e+001  7.852976e+000  3.500000e+000
    endloop
  endfacet
  facet normal  5.555702e-001  8.314697e-001  0.000000e+000
    outer loop
      vertex  1.866466e+001  7.852976e+000  0.000000e+000
      vertex  1.866466e+001  7.852976e+000  3.500000e+000
      vertex  2.142226e+001  6.010407e+000  0.000000e+000
    endloop
  endfacet
  facet normal  5.555702e-001  8.314697e-001  -0.000000e+000
    outer loop
      vertex  2.142226e+001  6.010407e+000  0.000000e+000
      vertex  1.866466e+001  7.852976e+000  3.500000e+000
      vertex  2.142226e+001  6.010407e+000  3.500000e+000
    endloop
  endfacet
  facet normal  8.314697e-001  5.555701e-001  0.000000e+000
    outer loop
      vertex  2.142226e+001  6.010407e+000  0.000000e+000
      vertex  2.142226e+001  6.010407e+000  3.500000e+000
      vertex  2.326483e+001  3.252809e+000  0.000000e+000
    endloop
  endfacet
  facet normal  8.314697e-001  5.555701e-001  -0.000000e+000
    outer loop
      vertex  2.326483e+001  3.252809e+000  0.000000e+000
      vertex  2.142226e+001  6.010407e+000  3.500000e+000
      vertex  2.326483e+001  3.252809e+000  3.500000e+000
    endloop
  endfacet
  facet normal  9.807852e-001  1.950904e-001  0.000000e+000
    outer loop
      vertex  2.326483e+001  3.252809e+000  0.000000e+000
      vertex  2.326483e+001  3.252809e+000  3.500000e+000
      vertex  2.391185e+001 -2.081831e-015  0.000000e+000
    endloop
  endfacet
  facet normal  9.807852e-001  1.950904e-001  -0.000000e+000
    outer loop
      vertex  2.391185e+001 -2.081831e-015  0.000000e+000
      vertex  2.326483e+001  3.252809e+000  3.500000e+000
      vertex  2.391185e+001 -2.081831e-015  3.500000e+000
    endloop
  endfacet
  facet normal  9.807852e-001 -1.950904e-001  0.000000e+000
    outer loop
      vertex  2.391185e+001 -2.081831e-015  0.000000e+000
      vertex  2.391185e+001 -2.081831e-015  3.500000e+000
      vertex  2.326483e+001 -3.252809e+000  0.000000e+000
    endloop
  endfacet
  facet normal  9.807852e-001 -1.950904e-001  0.000000e+000
    outer loop
      vertex  2.326483e+001 -3.252809e+000  0.000000e+000
      vertex  2.391185e+001 -2.081831e-015  3.500000e+000
      vertex  2.326483e+001 -3.252809e+000  3.500000e+000
    endloop
  endfacet
  facet normal  8.314697e-001 -5.555701e-001  0.000000e+000
    outer loop
      vertex  2.326483e+001 -3.252809e+000  0.000000e+000
      vertex  2.326483e+001 -3.252809e+000  3.500000e+000
      vertex  2.142226e+001 -6.010407e+000  0.000000e+000
    endloop
  endfacet
  facet normal  8.314697e-001 -5.555701e-001  0.000000e+000
    outer loop
      vertex  2.142226e+001 -6.010407e+000  0.000000e+000
      vertex  2.326483e+001 -3.252809e+000  3.500000e+000
      vertex  2.142226e+001 -6.010407e+000  3.500000e+000
    endloop
  endfacet
  facet normal  5.555702e-001 -8.314697e-001  0.000000e+000
    outer loop
      vertex  2.142226e+001 -6.010407e+000  0.000000e+000
      vertex  2.142226e+001 -6.010407e+000  3.500000e+000
      vertex  1.866466e+001 -7.852976e+000  0.000000e+000
    endloop
  endfacet
  facet normal  5.555702e-001 -8.314697e-001  0.000000e+000
    outer loop
      vertex  1.866466e+001 -7.852976e+000  0.000000e+000
      vertex  2.142226e+001 -6.010407e+000  3.500000e+000
      vertex  1.866466e+001 -7.852976e+000  3.500000e+000
    endloop
  endfacet
  facet normal  1.950904e-001 -9.807853e-001  0.000000e+000
    outer loop
      vertex  1.866466e+001 -7.852976e+000  0.000000e+000
      vertex  1.866466e+001 -7.852976e+000  3.500000e+000
      vertex  1.541185e+001 -8.500000e+000  0.000000e+000
    endloop
  endfacet
  facet normal  1.950904e-001 -9.807853e-001  0.000000e+000
    outer loop
      vertex  1.541185e+001 -8.500000e+000  0.000000e+000
      vertex  1.866466e+001 -7.852976e+000  3.500000e+000
      vertex  1.541185e+001 -8.500000e+000  3.500000e+000
    endloop
  endfacet
  facet normal  0.000000e+000 -1.000000e+000  0.000000e+000
    outer loop
      vertex  1.541185e+001 -8.500000e+000  3.500000e+000
      vertex -1.258815e+001 -8.500000e+000  3.500000e+000
      vertex  1.541185e+001 -8.500000e+000  0.000000e+000
    endloop
  endfacet
  facet normal  0.000000e+000 -1.000000e+000  0.000000e+000
    outer loop
      vertex  1.541185e+001 -8.500000e+000  0.000000e+000
      vertex -1.258815e+001 -8.500000e+000  3.500000e+000
      vertex -1.258815e+001 -8.500000e+000  0.000000e+000
    endloop
  endfacet
  facet normal -1.950904e-001 -9.807853e-001  -0.000000e+000
    outer loop
      vertex -1.258815e+001 -8.500000e+000  0.000000e+000
      vertex -1.258815e+001 -8.500000e+000  3.500000e+000
      vertex -1.584096e+001 -7.852976e+000  0.000000e+000
    endloop
  endfacet
  facet normal -1.950904e-001 -9.807853e-001  0.000000e+000
    outer loop
      vertex -1.584096e+001 -7.852976e+000  0.000000e+000
      vertex -1.258815e+001 -8.500000e+000  3.500000e+000
      vertex -1.584096e+001 -7.852976e+000  3.500000e+000
    endloop
  endfacet
  facet normal -5.555703e-001 -8.314695e-001  -0.000000e+000
    outer loop
      vertex -1.584096e+001 -7.852976e+000  0.000000e+000
      vertex -1.584096e+001 -7.852976e+000  3.500000e+000
      vertex -1.859855e+001 -6.010407e+000  0.000000e+000
    endloop
  endfacet
  facet normal -5.555703e-001 -8.314695e-001  0.000000e+000
    outer loop
      vertex -1.859855e+001 -6.010407e+000  0.000000e+000
      vertex -1.584096e+001 -7.852976e+000  3.500000e+000
      vertex -1.859855e+001 -6.010407e+000  3.500000e+000
    endloop
  endfacet
  facet normal -8.314694e-001 -5.555705e-001  -0.000000e+000
    outer loop
      vertex -1.859855e+001 -6.010407e+000  0.000000e+000
      vertex -1.859855e+001 -6.010407e+000  3.500000e+000
      vertex -2.044112e+001 -3.252809e+000  0.000000e+000
    endloop
  endfacet
  facet normal -8.314694e-001 -5.555705e-001  0.000000e+000
    outer loop
      vertex -2.044112e+001 -3.252809e+000  0.000000e+000
      vertex -1.859855e+001 -6.010407e+000  3.500000e+000
      vertex -2.044112e+001 -3.252809e+000  3.500000e+000
    endloop
  endfacet
  facet normal -9.807852e-001 -1.950904e-001  -0.000000e+000
    outer loop
      vertex -2.044112e+001 -3.252809e+000  0.000000e+000
      vertex -2.044112e+001 -3.252809e+000  3.500000e+000
      vertex -2.108815e+001  4.815674e-015  0.000000e+000
    endloop
  endfacet
  facet normal -9.807852e-001 -1.950904e-001  0.000000e+000
    outer loop
      vertex -2.108815e+001  4.815674e-015  0.000000e+000
      vertex -2.044112e+001 -3.252809e+000  3.500000e+000
      vertex -2.108815e+001  4.815674e-015  3.500000e+000
    endloop
  endfacet
  facet normal -9.807852e-001  1.950904e-001  0.000000e+000
    outer loop
      vertex -2.108815e+001  4.815674e-015  0.000000e+000
      vertex -2.108815e+001  4.815674e-015  3.500000e+000
      vertex -2.044112e+001  3.252809e+000  0.000000e+000
    endloop
  endfacet
  facet normal -9.807852e-001  1.950904e-001  0.000000e+000
    outer loop
      vertex -2.044112e+001  3.252809e+000  0.000000e+000
      vertex -2.108815e+001  4.815674e-015  3.500000e+000
      vertex -2.044112e+001  3.252809e+000  3.500000e+000
    endloop
  endfacet
  facet normal -8.314694e-001  5.555705e-001  0.000000e+000
    outer loop
      vertex -2.044112e+001  3.252809e+000  0.000000e+000
      vertex -2.044112e+001  3.252809e+000  3.500000e+000
      vertex -1.859855e+001  6.010407e+000  0.000000e+000
    endloop
  endfacet
  facet normal -8.314694e-001  5.555705e-001  0.000000e+000
    outer loop
      vertex -1.859855e+001  6.010407e+000  0.000000e+000
      vertex -2.044112e+001  3.252809e+000  3.500000e+000
      vertex -1.859855e+001  6.010407e+000  3.500000e+000
    endloop
  endfacet
  facet normal -5.555703e-001  8.314695e-001  0.000000e+000
    outer loop
      vertex -1.859855e+001  6.010407e+000  0.000000e+000
      vertex -1.859855e+001  6.010407e+000  3.500000e+000
      vertex -1.584096e+001  7.852976e+000  0.000000e+000
    endloop
  endfacet
  facet normal -5.555703e-001  8.314695e-001  0.000000e+000
    outer loop
      vertex -1.584096e+001  7.852976e+000  0.000000e+000
      vertex -1.859855e+001  6.010407e+000  3.500000e+000
      vertex -1.584096e+001  7.852976e+000  3.500000e+000
    endloop
  endfacet
  facet normal -1.950904e-001  9.807853e-001  0.000000e+000
    outer loop
      vertex -1.584096e+001  7.852976e+000  0.000000e+000
      vertex -1.584096e+001  7.852976e+000  3.500000e+000
      vertex -1.258815e+001  8.500000e+000  0.000000e+000
    endloop
  endfacet
  facet normal -1.950904e-001  9.807853e-001  0.000000e+000
    outer loop
      vertex -1.258815e+001  8.500000e+000  0.000000e+000
      vertex -1.584096e+001  7.852976e+000  3.500000e+000
      vertex -1.258815e+001  8.500000e+000  3.500000e+000
    endloop
  endfacet
endsolid CATIA STL
