solid CATIA STL
  facet normal  0.000000e+000  -0.000000e+000  1.000000e+000
    outer loop
      vertex -4.480941e+000  2.700000e+000  2.100000e+001
      vertex  4.480941e+000  2.700000e+000  2.100000e+001
      vertex  5.099020e+000  3.700000e+000  2.100000e+001
    endloop
  endfacet
  facet normal  0.000000e+000  0.000000e+000  1.000000e+000
    outer loop
      vertex -4.480941e+000  2.700000e+000  2.100000e+001
      vertex  5.099020e+000  3.700000e+000  2.100000e+001
      vertex -5.099020e+000  3.700000e+000  2.100000e+001
    endloop
  endfacet
  facet normal  0.000000e+000  0.000000e+000  1.000000e+000
    outer loop
      vertex -4.480941e+000  2.700000e+000  2.100000e+001
      vertex -5.099020e+000  3.700000e+000  2.100000e+001
      vertex -5.992238e+000  1.945016e+000  2.100000e+001
    endloop
  endfacet
  facet normal  -0.000000e+000  0.000000e+000  1.000000e+000
    outer loop
      vertex -4.480941e+000  2.700000e+000  2.100000e+001
      vertex -5.992238e+000  1.945016e+000  2.100000e+001
      vertex -5.500000e+000  1.678575e+000  2.100000e+001
    endloop
  endfacet
  facet normal  0.000000e+000  0.000000e+000  1.000000e+000
    outer loop
      vertex  5.992238e+000 -1.945016e+000  2.100000e+001
      vertex  5.500000e+000 -1.678575e+000  2.100000e+001
      vertex  5.099020e+000 -3.700000e+000  2.100000e+001
    endloop
  endfacet
  facet normal  0.000000e+000  -0.000000e+000  1.000000e+000
    outer loop
      vertex  5.099020e+000 -3.700000e+000  2.100000e+001
      vertex  5.500000e+000 -1.678575e+000  2.100000e+001
      vertex  4.480941e+000 -2.700000e+000  2.100000e+001
    endloop
  endfacet
  facet normal  0.000000e+000  0.000000e+000  1.000000e+000
    outer loop
      vertex  5.099020e+000 -3.700000e+000  2.100000e+001
      vertex  4.480941e+000 -2.700000e+000  2.100000e+001
      vertex -5.099020e+000 -3.700000e+000  2.100000e+001
    endloop
  endfacet
  facet normal  0.000000e+000  0.000000e+000  1.000000e+000
    outer loop
      vertex -5.099020e+000 -3.700000e+000  2.100000e+001
      vertex  4.480941e+000 -2.700000e+000  2.100000e+001
      vertex -4.480941e+000 -2.700000e+000  2.100000e+001
    endloop
  endfacet
  facet normal  0.000000e+000  0.000000e+000  1.000000e+000
    outer loop
      vertex -5.099020e+000 -3.700000e+000  2.100000e+001
      vertex -4.480941e+000 -2.700000e+000  2.100000e+001
      vertex -5.992238e+000 -1.945016e+000  2.100000e+001
    endloop
  endfacet
  facet normal  -0.000000e+000  0.000000e+000  1.000000e+000
    outer loop
      vertex -5.992238e+000 -1.945016e+000  2.100000e+001
      vertex -4.480941e+000 -2.700000e+000  2.100000e+001
      vertex -5.500000e+000 -1.678575e+000  2.100000e+001
    endloop
  endfacet
  facet normal  0.000000e+000  0.000000e+000  1.000000e+000
    outer loop
      vertex -5.992238e+000 -1.945016e+000  2.100000e+001
      vertex -5.500000e+000 -1.678575e+000  2.100000e+001
      vertex -6.300000e+000  7.715020e-016  2.100000e+001
    endloop
  endfacet
  facet normal  0.000000e+000  0.000000e+000  1.000000e+000
    outer loop
      vertex -6.300000e+000  7.715020e-016  2.100000e+001
      vertex -5.500000e+000 -1.678575e+000  2.100000e+001
      vertex -5.992238e+000  1.945016e+000  2.100000e+001
    endloop
  endfacet
  facet normal  0.000000e+000  0.000000e+000  1.000000e+000
    outer loop
      vertex -5.992238e+000  1.945016e+000  2.100000e+001
      vertex -5.500000e+000 -1.678575e+000  2.100000e+001
      vertex -5.500000e+000  1.678575e+000  2.100000e+001
    endloop
  endfacet
  facet normal  -0.000000e+000  0.000000e+000  1.000000e+000
    outer loop
      vertex  5.099020e+000  3.700000e+000  2.100000e+001
      vertex  4.480941e+000  2.700000e+000  2.100000e+001
      vertex  5.992238e+000  1.945016e+000  2.100000e+001
    endloop
  endfacet
  facet normal  0.000000e+000  0.000000e+000  1.000000e+000
    outer loop
      vertex  5.992238e+000  1.945016e+000  2.100000e+001
      vertex  4.480941e+000  2.700000e+000  2.100000e+001
      vertex  5.500000e+000  1.678575e+000  2.100000e+001
    endloop
  endfacet
  facet normal  -0.000000e+000  0.000000e+000  1.000000e+000
    outer loop
      vertex  5.992238e+000  1.945016e+000  2.100000e+001
      vertex  5.500000e+000  1.678575e+000  2.100000e+001
      vertex  6.300000e+000  0.000000e+000  2.100000e+001
    endloop
  endfacet
  facet normal  0.000000e+000  0.000000e+000  1.000000e+000
    outer loop
      vertex  6.300000e+000  0.000000e+000  2.100000e+001
      vertex  5.500000e+000  1.678575e+000  2.100000e+001
      vertex  5.500000e+000 -1.678575e+000  2.100000e+001
    endloop
  endfacet
  facet normal  -0.000000e+000  0.000000e+000  1.000000e+000
    outer loop
      vertex  6.300000e+000  0.000000e+000  2.100000e+001
      vertex  5.500000e+000 -1.678575e+000  2.100000e+001
      vertex  5.992238e+000 -1.945016e+000  2.100000e+001
    endloop
  endfacet
  facet normal  0.000000e+000  -0.000000e+000 -9.999999e-001
    outer loop
      vertex -4.480941e+000  2.700000e+000  0.000000e+000
      vertex  3.558956e+000  8.592080e+000  0.000000e+000
      vertex  4.480941e+000  2.700000e+000  0.000000e+000
    endloop
  endfacet
  facet normal  0.000000e+000  0.000000e+000 -1.000000e+000
    outer loop
      vertex -3.558956e+000 -8.592080e+000  0.000000e+000
      vertex -6.576093e+000 -6.576093e+000  0.000000e+000
      vertex  6.551733e-015 -9.300000e+000  0.000000e+000
    endloop
  endfacet
  facet normal  -0.000000e+000  0.000000e+000 -1.000000e+000
    outer loop
      vertex  6.576093e+000 -6.576093e+000  0.000000e+000
      vertex  3.558956e+000 -8.592080e+000  0.000000e+000
      vertex  6.551733e-015 -9.300000e+000  0.000000e+000
    endloop
  endfacet
  facet normal  0.000000e+000  0.000000e+000 -1.000000e+000
    outer loop
      vertex -8.592080e+000 -3.558956e+000  0.000000e+000
      vertex -9.300000e+000  1.138884e-015  0.000000e+000
      vertex -5.500000e+000 -1.678575e+000  0.000000e+000
    endloop
  endfacet
  facet normal  0.000000e+000  -0.000000e+000 -1.000000e+000
    outer loop
      vertex -8.592080e+000 -3.558956e+000  0.000000e+000
      vertex -5.500000e+000 -1.678575e+000  0.000000e+000
      vertex -4.480941e+000 -2.700000e+000  0.000000e+000
    endloop
  endfacet
  facet normal  0.000000e+000  0.000000e+000 -1.000000e+000
    outer loop
      vertex -8.592080e+000 -3.558956e+000  0.000000e+000
      vertex -4.480941e+000 -2.700000e+000  0.000000e+000
      vertex -6.576093e+000 -6.576093e+000  0.000000e+000
    endloop
  endfacet
  facet normal  0.000000e+000  0.000000e+000 -1.000000e+000
    outer loop
      vertex  6.576093e+000 -6.576093e+000  0.000000e+000
      vertex  6.551733e-015 -9.300000e+000  0.000000e+000
      vertex  8.592080e+000 -3.558956e+000  0.000000e+000
    endloop
  endfacet
  facet normal  -0.000000e+000  0.000000e+000 -1.000000e+000
    outer loop
      vertex  8.592080e+000 -3.558956e+000  0.000000e+000
      vertex  6.551733e-015 -9.300000e+000  0.000000e+000
      vertex  4.480941e+000 -2.700000e+000  0.000000e+000
    endloop
  endfacet
  facet normal  0.000000e+000  0.000000e+000 -1.000000e+000
    outer loop
      vertex  6.551733e-015 -9.300000e+000  0.000000e+000
      vertex -6.576093e+000 -6.576093e+000  0.000000e+000
      vertex  4.480941e+000 -2.700000e+000  0.000000e+000
    endloop
  endfacet
  facet normal  -0.000000e+000  0.000000e+000 -1.000000e+000
    outer loop
      vertex  4.480941e+000 -2.700000e+000  0.000000e+000
      vertex -6.576093e+000 -6.576093e+000  0.000000e+000
      vertex -4.480941e+000 -2.700000e+000  0.000000e+000
    endloop
  endfacet
  facet normal  0.000000e+000  0.000000e+000 -1.000000e+000
    outer loop
      vertex  3.558956e+000  8.592080e+000  0.000000e+000
      vertex -4.480941e+000  2.700000e+000  0.000000e+000
      vertex  5.694419e-016  9.300000e+000  0.000000e+000
    endloop
  endfacet
  facet normal  0.000000e+000  0.000000e+000 -1.000000e+000
    outer loop
      vertex  5.694419e-016  9.300000e+000  0.000000e+000
      vertex -4.480941e+000  2.700000e+000  0.000000e+000
      vertex -3.558956e+000  8.592080e+000  0.000000e+000
    endloop
  endfacet
  facet normal  0.000000e+000  0.000000e+000 -1.000000e+000
    outer loop
      vertex -4.480941e+000  2.700000e+000  0.000000e+000
      vertex -8.592080e+000  3.558956e+000  0.000000e+000
      vertex -3.558956e+000  8.592080e+000  0.000000e+000
    endloop
  endfacet
  facet normal  0.000000e+000  0.000000e+000 -1.000000e+000
    outer loop
      vertex -3.558956e+000  8.592080e+000  0.000000e+000
      vertex -8.592080e+000  3.558956e+000  0.000000e+000
      vertex -6.576093e+000  6.576093e+000  0.000000e+000
    endloop
  endfacet
  facet normal  0.000000e+000  0.000000e+000 -1.000000e+000
    outer loop
      vertex  5.500000e+000 -1.678575e+000  0.000000e+000
      vertex  5.500000e+000  1.678575e+000  0.000000e+000
      vertex  9.300000e+000  0.000000e+000  0.000000e+000
    endloop
  endfacet
  facet normal  0.000000e+000  0.000000e+000 -1.000000e+000
    outer loop
      vertex  9.300000e+000  0.000000e+000  0.000000e+000
      vertex  5.500000e+000  1.678575e+000  0.000000e+000
      vertex  4.480941e+000  2.700000e+000  0.000000e+000
    endloop
  endfacet
  facet normal  0.000000e+000  0.000000e+000 -9.999999e-001
    outer loop
      vertex  9.300000e+000  0.000000e+000  0.000000e+000
      vertex  4.480941e+000  2.700000e+000  0.000000e+000
      vertex  8.592080e+000  3.558956e+000  0.000000e+000
    endloop
  endfacet
  facet normal  -0.000000e+000  0.000000e+000 -1.000000e+000
    outer loop
      vertex  8.592080e+000  3.558956e+000  0.000000e+000
      vertex  4.480941e+000  2.700000e+000  0.000000e+000
      vertex  3.558956e+000  8.592080e+000  0.000000e+000
    endloop
  endfacet
  facet normal  0.000000e+000  0.000000e+000 -1.000000e+000
    outer loop
      vertex  8.592080e+000  3.558956e+000  0.000000e+000
      vertex  3.558956e+000  8.592080e+000  0.000000e+000
      vertex  6.576093e+000  6.576093e+000  0.000000e+000
    endloop
  endfacet
  facet normal  0.000000e+000  0.000000e+000 -1.000000e+000
    outer loop
      vertex -5.500000e+000 -1.678575e+000  0.000000e+000
      vertex -9.300000e+000  1.138884e-015  0.000000e+000
      vertex -5.500000e+000  1.678575e+000  0.000000e+000
    endloop
  endfacet
  facet normal  -0.000000e+000  0.000000e+000 -1.000000e+000
    outer loop
      vertex -5.500000e+000  1.678575e+000  0.000000e+000
      vertex -9.300000e+000  1.138884e-015  0.000000e+000
      vertex -8.592080e+000  3.558956e+000  0.000000e+000
    endloop
  endfacet
  facet normal  0.000000e+000  0.000000e+000 -1.000000e+000
    outer loop
      vertex -5.500000e+000  1.678575e+000  0.000000e+000
      vertex -8.592080e+000  3.558956e+000  0.000000e+000
      vertex -4.480941e+000  2.700000e+000  0.000000e+000
    endloop
  endfacet
  facet normal  0.000000e+000  0.000000e+000 -1.000000e+000
    outer loop
      vertex  5.500000e+000 -1.678575e+000  0.000000e+000
      vertex  9.300000e+000  0.000000e+000  0.000000e+000
      vertex  4.480941e+000 -2.700000e+000  0.000000e+000
    endloop
  endfacet
  facet normal  0.000000e+000  0.000000e+000 -9.999999e-001
    outer loop
      vertex  4.480941e+000 -2.700000e+000  0.000000e+000
      vertex  9.300000e+000  0.000000e+000  0.000000e+000
      vertex  8.592080e+000 -3.558956e+000  0.000000e+000
    endloop
  endfacet
  facet normal -1.000000e+000  -0.000000e+000  0.000000e+000
    outer loop
      vertex  5.500000e+000 -1.678575e+000  2.100000e+001
      vertex  5.500000e+000  1.678575e+000  2.100000e+001
      vertex  5.500000e+000 -1.678575e+000  0.000000e+000
    endloop
  endfacet
  facet normal -1.000000e+000  0.000000e+000  0.000000e+000
    outer loop
      vertex  5.500000e+000 -1.678575e+000  0.000000e+000
      vertex  5.500000e+000  1.678575e+000  2.100000e+001
      vertex  5.500000e+000  1.678575e+000  0.000000e+000
    endloop
  endfacet
  facet normal -7.079265e-001  7.062862e-001  0.000000e+000
    outer loop
      vertex  5.500000e+000 -1.678575e+000  2.100000e+001
      vertex  5.500000e+000 -1.678575e+000  0.000000e+000
      vertex  4.480941e+000 -2.700000e+000  2.100000e+001
    endloop
  endfacet
  facet normal -7.079265e-001  7.062862e-001  0.000000e+000
    outer loop
      vertex  4.480941e+000 -2.700000e+000  2.100000e+001
      vertex  5.500000e+000 -1.678575e+000  0.000000e+000
      vertex  4.480941e+000 -2.700000e+000  0.000000e+000
    endloop
  endfacet
  facet normal  0.000000e+000  1.000000e+000  -0.000000e+000
    outer loop
      vertex  4.480941e+000 -2.700000e+000  2.100000e+001
      vertex  4.480941e+000 -2.700000e+000  0.000000e+000
      vertex -4.480941e+000 -2.700000e+000  2.100000e+001
    endloop
  endfacet
  facet normal  0.000000e+000  1.000000e+000  0.000000e+000
    outer loop
      vertex -4.480941e+000 -2.700000e+000  2.100000e+001
      vertex  4.480941e+000 -2.700000e+000  0.000000e+000
      vertex -4.480941e+000 -2.700000e+000  0.000000e+000
    endloop
  endfacet
  facet normal  7.079265e-001  7.062862e-001  0.000000e+000
    outer loop
      vertex -5.500000e+000 -1.678575e+000  2.100000e+001
      vertex -4.480941e+000 -2.700000e+000  2.100000e+001
      vertex -5.500000e+000 -1.678575e+000  0.000000e+000
    endloop
  endfacet
  facet normal  7.079265e-001  7.062862e-001  0.000000e+000
    outer loop
      vertex -5.500000e+000 -1.678575e+000  0.000000e+000
      vertex -4.480941e+000 -2.700000e+000  2.100000e+001
      vertex -4.480941e+000 -2.700000e+000  0.000000e+000
    endloop
  endfacet
  facet normal  1.000000e+000  -0.000000e+000  0.000000e+000
    outer loop
      vertex -5.500000e+000  1.678575e+000  2.100000e+001
      vertex -5.500000e+000 -1.678575e+000  2.100000e+001
      vertex -5.500000e+000  1.678575e+000  0.000000e+000
    endloop
  endfacet
  facet normal  1.000000e+000  0.000000e+000  0.000000e+000
    outer loop
      vertex -5.500000e+000  1.678575e+000  0.000000e+000
      vertex -5.500000e+000 -1.678575e+000  2.100000e+001
      vertex -5.500000e+000 -1.678575e+000  0.000000e+000
    endloop
  endfacet
  facet normal  7.079265e-001 -7.062862e-001  0.000000e+000
    outer loop
      vertex -5.500000e+000  1.678575e+000  2.100000e+001
      vertex -5.500000e+000  1.678575e+000  0.000000e+000
      vertex -4.480941e+000  2.700000e+000  2.100000e+001
    endloop
  endfacet
  facet normal  7.079265e-001 -7.062862e-001  0.000000e+000
    outer loop
      vertex -4.480941e+000  2.700000e+000  2.100000e+001
      vertex -5.500000e+000  1.678575e+000  0.000000e+000
      vertex -4.480941e+000  2.700000e+000  0.000000e+000
    endloop
  endfacet
  facet normal  0.000000e+000 -1.000000e+000  0.000000e+000
    outer loop
      vertex -4.480941e+000  2.700000e+000  2.100000e+001
      vertex -4.480941e+000  2.700000e+000  0.000000e+000
      vertex  4.480941e+000  2.700000e+000  2.100000e+001
    endloop
  endfacet
  facet normal  0.000000e+000 -1.000000e+000  -0.000000e+000
    outer loop
      vertex  4.480941e+000  2.700000e+000  2.100000e+001
      vertex -4.480941e+000  2.700000e+000  0.000000e+000
      vertex  4.480941e+000  2.700000e+000  0.000000e+000
    endloop
  endfacet
  facet normal -7.079265e-001 -7.062862e-001  0.000000e+000
    outer loop
      vertex  5.500000e+000  1.678575e+000  2.100000e+001
      vertex  4.480941e+000  2.700000e+000  2.100000e+001
      vertex  5.500000e+000  1.678575e+000  0.000000e+000
    endloop
  endfacet
  facet normal -7.079265e-001 -7.062862e-001  0.000000e+000
    outer loop
      vertex  5.500000e+000  1.678575e+000  0.000000e+000
      vertex  4.480941e+000  2.700000e+000  2.100000e+001
      vertex  4.480941e+000  2.700000e+000  0.000000e+000
    endloop
  endfacet
  facet normal  0.000000e+000  0.000000e+000  1.000000e+000
    outer loop
      vertex  6.551733e-015 -9.300000e+000  1.000000e+000
      vertex -6.576093e+000 -6.576093e+000  1.000000e+000
      vertex -3.558956e+000 -8.592080e+000  1.000000e+000
    endloop
  endfacet
  facet normal  0.000000e+000  -0.000000e+000  1.000000e+000
    outer loop
      vertex  6.551733e-015 -9.300000e+000  1.000000e+000
      vertex  3.558956e+000 -8.592080e+000  1.000000e+000
      vertex  6.576093e+000 -6.576093e+000  1.000000e+000
    endloop
  endfacet
  facet normal  0.000000e+000  0.000000e+000  1.000000e+000
    outer loop
      vertex -5.099020e+000  3.700000e+000  1.000000e+000
      vertex -3.558956e+000  8.592080e+000  1.000000e+000
      vertex -6.576093e+000  6.576093e+000  1.000000e+000
    endloop
  endfacet
  facet normal  0.000000e+000  0.000000e+000  1.000000e+000
    outer loop
      vertex -5.099020e+000  3.700000e+000  1.000000e+000
      vertex -6.576093e+000  6.576093e+000  1.000000e+000
      vertex -8.592080e+000  3.558956e+000  1.000000e+000
    endloop
  endfacet
  facet normal  -0.000000e+000  0.000000e+000  1.000000e+000
    outer loop
      vertex -5.099020e+000  3.700000e+000  1.000000e+000
      vertex -8.592080e+000  3.558956e+000  1.000000e+000
      vertex -9.300000e+000  1.138884e-015  1.000000e+000
    endloop
  endfacet
  facet normal  0.000000e+000  0.000000e+000  1.000000e+000
    outer loop
      vertex -5.099020e+000  3.700000e+000  1.000000e+000
      vertex -9.300000e+000  1.138884e-015  1.000000e+000
      vertex -5.992238e+000  1.945016e+000  1.000000e+000
    endloop
  endfacet
  facet normal  0.000000e+000  0.000000e+000  1.000000e+000
    outer loop
      vertex -5.099020e+000 -3.700000e+000  1.000000e+000
      vertex -5.992238e+000 -1.945016e+000  1.000000e+000
      vertex -8.592080e+000 -3.558956e+000  1.000000e+000
    endloop
  endfacet
  facet normal  0.000000e+000  0.000000e+000  1.000000e+000
    outer loop
      vertex -5.099020e+000 -3.700000e+000  1.000000e+000
      vertex -8.592080e+000 -3.558956e+000  1.000000e+000
      vertex -6.576093e+000 -6.576093e+000  1.000000e+000
    endloop
  endfacet
  facet normal  -0.000000e+000  0.000000e+000  1.000000e+000
    outer loop
      vertex -5.099020e+000 -3.700000e+000  1.000000e+000
      vertex -6.576093e+000 -6.576093e+000  1.000000e+000
      vertex  6.551733e-015 -9.300000e+000  1.000000e+000
    endloop
  endfacet
  facet normal  0.000000e+000  -0.000000e+000  1.000000e+000
    outer loop
      vertex -5.099020e+000 -3.700000e+000  1.000000e+000
      vertex  6.551733e-015 -9.300000e+000  1.000000e+000
      vertex  6.576093e+000 -6.576093e+000  1.000000e+000
    endloop
  endfacet
  facet normal  0.000000e+000  0.000000e+000  9.999999e-001
    outer loop
      vertex -5.099020e+000 -3.700000e+000  1.000000e+000
      vertex  6.576093e+000 -6.576093e+000  1.000000e+000
      vertex  5.099020e+000 -3.700000e+000  1.000000e+000
    endloop
  endfacet
  facet normal  0.000000e+000  0.000000e+000  1.000000e+000
    outer loop
      vertex  5.099020e+000 -3.700000e+000  1.000000e+000
      vertex  6.576093e+000 -6.576093e+000  1.000000e+000
      vertex  5.992238e+000 -1.945016e+000  1.000000e+000
    endloop
  endfacet
  facet normal  0.000000e+000  0.000000e+000  9.999999e-001
    outer loop
      vertex  5.992238e+000 -1.945016e+000  1.000000e+000
      vertex  6.576093e+000 -6.576093e+000  1.000000e+000
      vertex  8.592080e+000 -3.558956e+000  1.000000e+000
    endloop
  endfacet
  facet normal  0.000000e+000  0.000000e+000  9.999999e-001
    outer loop
      vertex  5.992238e+000 -1.945016e+000  1.000000e+000
      vertex  8.592080e+000 -3.558956e+000  1.000000e+000
      vertex  6.300000e+000  0.000000e+000  1.000000e+000
    endloop
  endfacet
  facet normal  -0.000000e+000  0.000000e+000  1.000000e+000
    outer loop
      vertex  6.300000e+000  0.000000e+000  1.000000e+000
      vertex  8.592080e+000 -3.558956e+000  1.000000e+000
      vertex  9.300000e+000  0.000000e+000  1.000000e+000
    endloop
  endfacet
  facet normal  0.000000e+000  0.000000e+000  1.000000e+000
    outer loop
      vertex  6.300000e+000  0.000000e+000  1.000000e+000
      vertex  9.300000e+000  0.000000e+000  1.000000e+000
      vertex  5.992238e+000  1.945016e+000  1.000000e+000
    endloop
  endfacet
  facet normal  0.000000e+000  0.000000e+000  1.000000e+000
    outer loop
      vertex  5.694419e-016  9.300000e+000  1.000000e+000
      vertex -3.558956e+000  8.592080e+000  1.000000e+000
      vertex  3.558956e+000  8.592080e+000  1.000000e+000
    endloop
  endfacet
  facet normal  0.000000e+000  0.000000e+000  1.000000e+000
    outer loop
      vertex  3.558956e+000  8.592080e+000  1.000000e+000
      vertex -3.558956e+000  8.592080e+000  1.000000e+000
      vertex -5.099020e+000  3.700000e+000  1.000000e+000
    endloop
  endfacet
  facet normal  0.000000e+000  0.000000e+000  1.000000e+000
    outer loop
      vertex  3.558956e+000  8.592080e+000  1.000000e+000
      vertex -5.099020e+000  3.700000e+000  1.000000e+000
      vertex  6.576093e+000  6.576093e+000  1.000000e+000
    endloop
  endfacet
  facet normal  0.000000e+000  0.000000e+000  9.999999e-001
    outer loop
      vertex  6.576093e+000  6.576093e+000  1.000000e+000
      vertex -5.099020e+000  3.700000e+000  1.000000e+000
      vertex  5.099020e+000  3.700000e+000  1.000000e+000
    endloop
  endfacet
  facet normal  -0.000000e+000  0.000000e+000  1.000000e+000
    outer loop
      vertex  6.576093e+000  6.576093e+000  1.000000e+000
      vertex  5.099020e+000  3.700000e+000  1.000000e+000
      vertex  8.592080e+000  3.558956e+000  1.000000e+000
    endloop
  endfacet
  facet normal  0.000000e+000  0.000000e+000  9.999999e-001
    outer loop
      vertex -8.592080e+000 -3.558956e+000  1.000000e+000
      vertex -5.992238e+000 -1.945016e+000  1.000000e+000
      vertex -9.300000e+000  1.138884e-015  1.000000e+000
    endloop
  endfacet
  facet normal  0.000000e+000  0.000000e+000  1.000000e+000
    outer loop
      vertex -9.300000e+000  1.138884e-015  1.000000e+000
      vertex -5.992238e+000 -1.945016e+000  1.000000e+000
      vertex -6.300000e+000  7.715020e-016  1.000000e+000
    endloop
  endfacet
  facet normal  0.000000e+000  -0.000000e+000  1.000000e+000
    outer loop
      vertex -9.300000e+000  1.138884e-015  1.000000e+000
      vertex -6.300000e+000  7.715020e-016  1.000000e+000
      vertex -5.992238e+000  1.945016e+000  1.000000e+000
    endloop
  endfacet
  facet normal  0.000000e+000  0.000000e+000  1.000000e+000
    outer loop
      vertex  5.992238e+000  1.945016e+000  1.000000e+000
      vertex  9.300000e+000  0.000000e+000  1.000000e+000
      vertex  5.099020e+000  3.700000e+000  1.000000e+000
    endloop
  endfacet
  facet normal  0.000000e+000  0.000000e+000  1.000000e+000
    outer loop
      vertex  5.099020e+000  3.700000e+000  1.000000e+000
      vertex  9.300000e+000  0.000000e+000  1.000000e+000
      vertex  8.592080e+000  3.558956e+000  1.000000e+000
    endloop
  endfacet
  facet normal -9.877117e-001  1.562870e-001  0.000000e+000
    outer loop
      vertex -6.300000e+000  7.715020e-016  1.000000e+000
      vertex -6.300000e+000  7.715020e-016  2.100000e+001
      vertex -5.992238e+000  1.945016e+000  1.000000e+000
    endloop
  endfacet
  facet normal -9.877117e-001  1.562870e-001  0.000000e+000
    outer loop
      vertex -5.992238e+000  1.945016e+000  1.000000e+000
      vertex -6.300000e+000  7.715020e-016  2.100000e+001
      vertex -5.992238e+000  1.945016e+000  2.100000e+001
    endloop
  endfacet
  facet normal -8.912100e-001  4.535910e-001  0.000000e+000
    outer loop
      vertex -5.992238e+000  1.945016e+000  1.000000e+000
      vertex -5.992238e+000  1.945016e+000  2.100000e+001
      vertex -5.099020e+000  3.700000e+000  1.000000e+000
    endloop
  endfacet
  facet normal -8.912100e-001  4.535910e-001  0.000000e+000
    outer loop
      vertex -5.099020e+000  3.700000e+000  1.000000e+000
      vertex -5.992238e+000  1.945016e+000  2.100000e+001
      vertex -5.099020e+000  3.700000e+000  2.100000e+001
    endloop
  endfacet
  facet normal  0.000000e+000  1.000000e+000  0.000000e+000
    outer loop
      vertex -5.099020e+000  3.700000e+000  2.100000e+001
      vertex  5.099020e+000  3.700000e+000  2.100000e+001
      vertex -5.099020e+000  3.700000e+000  1.000000e+000
    endloop
  endfacet
  facet normal  0.000000e+000  1.000000e+000  0.000000e+000
    outer loop
      vertex -5.099020e+000  3.700000e+000  1.000000e+000
      vertex  5.099020e+000  3.700000e+000  2.100000e+001
      vertex  5.099020e+000  3.700000e+000  1.000000e+000
    endloop
  endfacet
  facet normal -8.912100e-001 -4.535910e-001  -0.000000e+000
    outer loop
      vertex -5.099020e+000 -3.700000e+000  1.000000e+000
      vertex -5.099020e+000 -3.700000e+000  2.100000e+001
      vertex -5.992238e+000 -1.945016e+000  1.000000e+000
    endloop
  endfacet
  facet normal -8.912100e-001 -4.535910e-001  0.000000e+000
    outer loop
      vertex -5.992238e+000 -1.945016e+000  1.000000e+000
      vertex -5.099020e+000 -3.700000e+000  2.100000e+001
      vertex -5.992238e+000 -1.945016e+000  2.100000e+001
    endloop
  endfacet
  facet normal -9.877117e-001 -1.562870e-001  -0.000000e+000
    outer loop
      vertex -5.992238e+000 -1.945016e+000  1.000000e+000
      vertex -5.992238e+000 -1.945016e+000  2.100000e+001
      vertex -6.300000e+000  7.715020e-016  1.000000e+000
    endloop
  endfacet
  facet normal -9.877117e-001 -1.562870e-001  0.000000e+000
    outer loop
      vertex -6.300000e+000  7.715020e-016  1.000000e+000
      vertex -5.992238e+000 -1.945016e+000  2.100000e+001
      vertex -6.300000e+000  7.715020e-016  2.100000e+001
    endloop
  endfacet
  facet normal  8.912100e-001  4.535910e-001  0.000000e+000
    outer loop
      vertex  5.099020e+000  3.700000e+000  1.000000e+000
      vertex  5.099020e+000  3.700000e+000  2.100000e+001
      vertex  5.992238e+000  1.945016e+000  1.000000e+000
    endloop
  endfacet
  facet normal  8.912100e-001  4.535910e-001  -0.000000e+000
    outer loop
      vertex  5.992238e+000  1.945016e+000  1.000000e+000
      vertex  5.099020e+000  3.700000e+000  2.100000e+001
      vertex  5.992238e+000  1.945016e+000  2.100000e+001
    endloop
  endfacet
  facet normal  9.877117e-001  1.562870e-001  0.000000e+000
    outer loop
      vertex  5.992238e+000  1.945016e+000  1.000000e+000
      vertex  5.992238e+000  1.945016e+000  2.100000e+001
      vertex  6.300000e+000  0.000000e+000  1.000000e+000
    endloop
  endfacet
  facet normal  9.877117e-001  1.562870e-001  -0.000000e+000
    outer loop
      vertex  6.300000e+000  0.000000e+000  1.000000e+000
      vertex  5.992238e+000  1.945016e+000  2.100000e+001
      vertex  6.300000e+000  0.000000e+000  2.100000e+001
    endloop
  endfacet
  facet normal  9.877117e-001 -1.562870e-001  0.000000e+000
    outer loop
      vertex  6.300000e+000  0.000000e+000  1.000000e+000
      vertex  6.300000e+000  0.000000e+000  2.100000e+001
      vertex  5.992238e+000 -1.945016e+000  1.000000e+000
    endloop
  endfacet
  facet normal  9.877117e-001 -1.562870e-001  0.000000e+000
    outer loop
      vertex  5.992238e+000 -1.945016e+000  1.000000e+000
      vertex  6.300000e+000  0.000000e+000  2.100000e+001
      vertex  5.992238e+000 -1.945016e+000  2.100000e+001
    endloop
  endfacet
  facet normal  8.912100e-001 -4.535910e-001  0.000000e+000
    outer loop
      vertex  5.992238e+000 -1.945016e+000  1.000000e+000
      vertex  5.992238e+000 -1.945016e+000  2.100000e+001
      vertex  5.099020e+000 -3.700000e+000  1.000000e+000
    endloop
  endfacet
  facet normal  8.912100e-001 -4.535910e-001  0.000000e+000
    outer loop
      vertex  5.099020e+000 -3.700000e+000  1.000000e+000
      vertex  5.992238e+000 -1.945016e+000  2.100000e+001
      vertex  5.099020e+000 -3.700000e+000  2.100000e+001
    endloop
  endfacet
  facet normal  0.000000e+000 -1.000000e+000  0.000000e+000
    outer loop
      vertex -5.099020e+000 -3.700000e+000  2.100000e+001
      vertex -5.099020e+000 -3.700000e+000  1.000000e+000
      vertex  5.099020e+000 -3.700000e+000  2.100000e+001
    endloop
  endfacet
  facet normal  0.000000e+000 -1.000000e+000  -0.000000e+000
    outer loop
      vertex  5.099020e+000 -3.700000e+000  2.100000e+001
      vertex -5.099020e+000 -3.700000e+000  1.000000e+000
      vertex  5.099020e+000 -3.700000e+000  1.000000e+000
    endloop
  endfacet
  facet normal -9.807853e-001  1.950902e-001  0.000000e+000
    outer loop
      vertex -9.300000e+000  1.138884e-015  0.000000e+000
      vertex -9.300000e+000  1.138884e-015  1.000000e+000
      vertex -8.592080e+000  3.558956e+000  0.000000e+000
    endloop
  endfacet
  facet normal -9.807853e-001  1.950902e-001  0.000000e+000
    outer loop
      vertex -8.592080e+000  3.558956e+000  0.000000e+000
      vertex -9.300000e+000  1.138884e-015  1.000000e+000
      vertex -8.592080e+000  3.558956e+000  1.000000e+000
    endloop
  endfacet
  facet normal -8.314696e-001  5.555703e-001  0.000000e+000
    outer loop
      vertex -8.592080e+000  3.558956e+000  0.000000e+000
      vertex -8.592080e+000  3.558956e+000  1.000000e+000
      vertex -6.576093e+000  6.576093e+000  0.000000e+000
    endloop
  endfacet
  facet normal -8.314696e-001  5.555703e-001  0.000000e+000
    outer loop
      vertex -6.576093e+000  6.576093e+000  0.000000e+000
      vertex -8.592080e+000  3.558956e+000  1.000000e+000
      vertex -6.576093e+000  6.576093e+000  1.000000e+000
    endloop
  endfacet
  facet normal -5.555703e-001  8.314696e-001  0.000000e+000
    outer loop
      vertex -6.576093e+000  6.576093e+000  0.000000e+000
      vertex -6.576093e+000  6.576093e+000  1.000000e+000
      vertex -3.558956e+000  8.592080e+000  0.000000e+000
    endloop
  endfacet
  facet normal -5.555703e-001  8.314696e-001  0.000000e+000
    outer loop
      vertex -3.558956e+000  8.592080e+000  0.000000e+000
      vertex -6.576093e+000  6.576093e+000  1.000000e+000
      vertex -3.558956e+000  8.592080e+000  1.000000e+000
    endloop
  endfacet
  facet normal -1.950902e-001  9.807853e-001  0.000000e+000
    outer loop
      vertex -3.558956e+000  8.592080e+000  0.000000e+000
      vertex -3.558956e+000  8.592080e+000  1.000000e+000
      vertex  5.694419e-016  9.300000e+000  0.000000e+000
    endloop
  endfacet
  facet normal -1.950902e-001  9.807853e-001  0.000000e+000
    outer loop
      vertex  5.694419e-016  9.300000e+000  0.000000e+000
      vertex -3.558956e+000  8.592080e+000  1.000000e+000
      vertex  5.694419e-016  9.300000e+000  1.000000e+000
    endloop
  endfacet
  facet normal  1.950902e-001  9.807853e-001  0.000000e+000
    outer loop
      vertex  5.694419e-016  9.300000e+000  0.000000e+000
      vertex  5.694419e-016  9.300000e+000  1.000000e+000
      vertex  3.558956e+000  8.592080e+000  0.000000e+000
    endloop
  endfacet
  facet normal  1.950902e-001  9.807853e-001  -0.000000e+000
    outer loop
      vertex  3.558956e+000  8.592080e+000  0.000000e+000
      vertex  5.694419e-016  9.300000e+000  1.000000e+000
      vertex  3.558956e+000  8.592080e+000  1.000000e+000
    endloop
  endfacet
  facet normal  5.555703e-001  8.314696e-001  0.000000e+000
    outer loop
      vertex  3.558956e+000  8.592080e+000  0.000000e+000
      vertex  3.558956e+000  8.592080e+000  1.000000e+000
      vertex  6.576093e+000  6.576093e+000  0.000000e+000
    endloop
  endfacet
  facet normal  5.555703e-001  8.314696e-001  -0.000000e+000
    outer loop
      vertex  6.576093e+000  6.576093e+000  0.000000e+000
      vertex  3.558956e+000  8.592080e+000  1.000000e+000
      vertex  6.576093e+000  6.576093e+000  1.000000e+000
    endloop
  endfacet
  facet normal  8.314696e-001  5.555703e-001  0.000000e+000
    outer loop
      vertex  6.576093e+000  6.576093e+000  0.000000e+000
      vertex  6.576093e+000  6.576093e+000  1.000000e+000
      vertex  8.592080e+000  3.558956e+000  0.000000e+000
    endloop
  endfacet
  facet normal  8.314696e-001  5.555703e-001  -0.000000e+000
    outer loop
      vertex  8.592080e+000  3.558956e+000  0.000000e+000
      vertex  6.576093e+000  6.576093e+000  1.000000e+000
      vertex  8.592080e+000  3.558956e+000  1.000000e+000
    endloop
  endfacet
  facet normal  9.807853e-001  1.950902e-001  0.000000e+000
    outer loop
      vertex  8.592080e+000  3.558956e+000  0.000000e+000
      vertex  8.592080e+000  3.558956e+000  1.000000e+000
      vertex  9.300000e+000  0.000000e+000  0.000000e+000
    endloop
  endfacet
  facet normal  9.807853e-001  1.950902e-001  -0.000000e+000
    outer loop
      vertex  9.300000e+000  0.000000e+000  0.000000e+000
      vertex  8.592080e+000  3.558956e+000  1.000000e+000
      vertex  9.300000e+000  0.000000e+000  1.000000e+000
    endloop
  endfacet
  facet normal  9.807853e-001 -1.950902e-001  0.000000e+000
    outer loop
      vertex  9.300000e+000  0.000000e+000  0.000000e+000
      vertex  9.300000e+000  0.000000e+000  1.000000e+000
      vertex  8.592080e+000 -3.558956e+000  0.000000e+000
    endloop
  endfacet
  facet normal  9.807853e-001 -1.950902e-001  0.000000e+000
    outer loop
      vertex  8.592080e+000 -3.558956e+000  0.000000e+000
      vertex  9.300000e+000  0.000000e+000  1.000000e+000
      vertex  8.592080e+000 -3.558956e+000  1.000000e+000
    endloop
  endfacet
  facet normal  8.314696e-001 -5.555703e-001  0.000000e+000
    outer loop
      vertex  8.592080e+000 -3.558956e+000  0.000000e+000
      vertex  8.592080e+000 -3.558956e+000  1.000000e+000
      vertex  6.576093e+000 -6.576093e+000  0.000000e+000
    endloop
  endfacet
  facet normal  8.314696e-001 -5.555703e-001  0.000000e+000
    outer loop
      vertex  6.576093e+000 -6.576093e+000  0.000000e+000
      vertex  8.592080e+000 -3.558956e+000  1.000000e+000
      vertex  6.576093e+000 -6.576093e+000  1.000000e+000
    endloop
  endfacet
  facet normal  5.555703e-001 -8.314696e-001  0.000000e+000
    outer loop
      vertex  6.576093e+000 -6.576093e+000  0.000000e+000
      vertex  6.576093e+000 -6.576093e+000  1.000000e+000
      vertex  3.558956e+000 -8.592080e+000  0.000000e+000
    endloop
  endfacet
  facet normal  5.555703e-001 -8.314696e-001  0.000000e+000
    outer loop
      vertex  3.558956e+000 -8.592080e+000  0.000000e+000
      vertex  6.576093e+000 -6.576093e+000  1.000000e+000
      vertex  3.558956e+000 -8.592080e+000  1.000000e+000
    endloop
  endfacet
  facet normal  1.950902e-001 -9.807853e-001  0.000000e+000
    outer loop
      vertex  3.558956e+000 -8.592080e+000  0.000000e+000
      vertex  3.558956e+000 -8.592080e+000  1.000000e+000
      vertex  6.551733e-015 -9.300000e+000  0.000000e+000
    endloop
  endfacet
  facet normal  1.950902e-001 -9.807853e-001  0.000000e+000
    outer loop
      vertex  6.551733e-015 -9.300000e+000  0.000000e+000
      vertex  3.558956e+000 -8.592080e+000  1.000000e+000
      vertex  6.551733e-015 -9.300000e+000  1.000000e+000
    endloop
  endfacet
  facet normal -1.950902e-001 -9.807853e-001  -0.000000e+000
    outer loop
      vertex  6.551733e-015 -9.300000e+000  0.000000e+000
      vertex  6.551733e-015 -9.300000e+000  1.000000e+000
      vertex -3.558956e+000 -8.592080e+000  0.000000e+000
    endloop
  endfacet
  facet normal -1.950902e-001 -9.807853e-001  0.000000e+000
    outer loop
      vertex -3.558956e+000 -8.592080e+000  0.000000e+000
      vertex  6.551733e-015 -9.300000e+000  1.000000e+000
      vertex -3.558956e+000 -8.592080e+000  1.000000e+000
    endloop
  endfacet
  facet normal -5.555703e-001 -8.314696e-001  -0.000000e+000
    outer loop
      vertex -3.558956e+000 -8.592080e+000  0.000000e+000
      vertex -3.558956e+000 -8.592080e+000  1.000000e+000
      vertex -6.576093e+000 -6.576093e+000  0.000000e+000
    endloop
  endfacet
  facet normal -5.555703e-001 -8.314696e-001  0.000000e+000
    outer loop
      vertex -6.576093e+000 -6.576093e+000  0.000000e+000
      vertex -3.558956e+000 -8.592080e+000  1.000000e+000
      vertex -6.576093e+000 -6.576093e+000  1.000000e+000
    endloop
  endfacet
  facet normal -8.314696e-001 -5.555703e-001  -0.000000e+000
    outer loop
      vertex -6.576093e+000 -6.576093e+000  0.000000e+000
      vertex -6.576093e+000 -6.576093e+000  1.000000e+000
      vertex -8.592080e+000 -3.558956e+000  0.000000e+000
    endloop
  endfacet
  facet normal -8.314696e-001 -5.555703e-001  0.000000e+000
    outer loop
      vertex -8.592080e+000 -3.558956e+000  0.000000e+000
      vertex -6.576093e+000 -6.576093e+000  1.000000e+000
      vertex -8.592080e+000 -3.558956e+000  1.000000e+000
    endloop
  endfacet
  facet normal -9.807853e-001 -1.950902e-001  -0.000000e+000
    outer loop
      vertex -8.592080e+000 -3.558956e+000  0.000000e+000
      vertex -8.592080e+000 -3.558956e+000  1.000000e+000
      vertex -9.300000e+000  1.138884e-015  0.000000e+000
    endloop
  endfacet
  facet normal -9.807853e-001 -1.950902e-001  0.000000e+000
    outer loop
      vertex -9.300000e+000  1.138884e-015  0.000000e+000
      vertex -8.592080e+000 -3.558956e+000  1.000000e+000
      vertex -9.300000e+000  1.138884e-015  1.000000e+000
    endloop
  endfacet
endsolid CATIA STL
