solid CATIA STL
  facet normal  0.000000e+000  0.000000e+000 -1.000000e+000
    outer loop
      vertex -6.009419e+000 -9.863538e+000  3.552714e-015
      vertex -9.020535e+000 -7.213352e+000  3.552714e-015
      vertex -1.094364e+001 -3.693128e+000  3.552714e-015
    endloop
  endfacet
  facet normal -6.178592e-016 -9.397086e-017 -1.000000e+000
    outer loop
      vertex -1.154678e+001  2.725406e-001  3.552714e-015
      vertex -5.500000e+000 -1.678575e+000  0.000000e+000
      vertex -1.094364e+001 -3.693128e+000  3.552714e-015
    endloop
  endfacet
  facet normal -4.766486e-016 -4.755443e-016 -1.000000e+000
    outer loop
      vertex -1.094364e+001 -3.693128e+000  3.552714e-015
      vertex -5.500000e+000 -1.678575e+000  0.000000e+000
      vertex -4.480941e+000 -2.700000e+000  0.000000e+000
    endloop
  endfacet
  facet normal -4.895659e-016 -3.914857e-016 -9.999999e-001
    outer loop
      vertex -1.094364e+001 -3.693128e+000  3.552714e-015
      vertex -4.480941e+000 -2.700000e+000  0.000000e+000
      vertex -6.009419e+000 -9.863538e+000  3.552714e-015
    endloop
  endfacet
  facet normal -5.875377e-016  0.000000e+000 -1.000000e+000
    outer loop
      vertex -5.500000e+000 -1.678575e+000  0.000000e+000
      vertex -1.154678e+001  2.725406e-001  3.552714e-015
      vertex -5.500000e+000  1.678575e+000  0.000000e+000
    endloop
  endfacet
  facet normal -6.163090e-016  1.237337e-016 -1.000000e+000
    outer loop
      vertex -5.500000e+000  1.678575e+000  0.000000e+000
      vertex -1.154678e+001  2.725406e-001  3.552714e-015
      vertex -1.075721e+001  4.205337e+000  3.552714e-015
    endloop
  endfacet
  facet normal -4.567573e-016  4.556989e-016 -1.000000e+000
    outer loop
      vertex -5.500000e+000  1.678575e+000  0.000000e+000
      vertex -1.075721e+001  4.205337e+000  3.552714e-015
      vertex -4.480941e+000  2.700000e+000  0.000000e+000
    endloop
  endfacet
  facet normal -4.938846e-016  3.009021e-016 -1.000000e+000
    outer loop
      vertex -4.480941e+000  2.700000e+000  0.000000e+000
      vertex -1.075721e+001  4.205337e+000  3.552714e-015
      vertex -8.670164e+000  7.630908e+000  3.552714e-015
    endloop
  endfacet
  facet normal -1.742573e-016  5.724526e-016 -1.000000e+000
    outer loop
      vertex -4.480941e+000  2.700000e+000  0.000000e+000
      vertex -8.670164e+000  7.630908e+000  3.552714e-015
      vertex -5.537365e+000  1.013608e+001  4.440892e-015
    endloop
  endfacet
  facet normal -5.528624e-016  3.368347e-016 -1.000000e+000
    outer loop
      vertex  5.537365e+000 -1.013608e+001  4.440892e-015
      vertex  1.075721e+001 -4.205337e+000  3.552714e-015
      vertex  8.670164e+000 -7.630908e+000  3.552714e-015
    endloop
  endfacet
  facet normal  4.377321e-016 -5.350214e-016 -1.000000e+000
    outer loop
      vertex  1.075721e+001 -4.205337e+000  3.552714e-015
      vertex  5.537365e+000 -1.013608e+001  4.440892e-015
      vertex  4.480941e+000 -2.700000e+000  0.000000e+000
    endloop
  endfacet
  facet normal  4.153162e-016 -5.382060e-016 -1.000000e+000
    outer loop
      vertex  4.480941e+000 -2.700000e+000  0.000000e+000
      vertex  5.537365e+000 -1.013608e+001  4.440892e-015
      vertex  1.736678e+000 -1.141869e+001  3.552714e-015
    endloop
  endfacet
  facet normal  0.000000e+000 -4.074826e-016 -1.000000e+000
    outer loop
      vertex  4.480941e+000 -2.700000e+000  0.000000e+000
      vertex  1.736678e+000 -1.141869e+001  3.552714e-015
      vertex -4.480941e+000 -2.700000e+000  0.000000e+000
    endloop
  endfacet
  facet normal -9.782519e-018 -4.144588e-016 -9.999999e-001
    outer loop
      vertex -4.480941e+000 -2.700000e+000  0.000000e+000
      vertex  1.736678e+000 -1.141869e+001  3.552714e-015
      vertex -2.273478e+000 -1.132404e+001  3.552714e-015
    endloop
  endfacet
  facet normal -1.789534e-016 -4.577609e-016 -1.000000e+000
    outer loop
      vertex -4.480941e+000 -2.700000e+000  0.000000e+000
      vertex -2.273478e+000 -1.132404e+001  3.552714e-015
      vertex -6.009419e+000 -9.863538e+000  3.552714e-015
    endloop
  endfacet
  facet normal  5.071503e-016  2.770574e-016 -1.000000e+000
    outer loop
      vertex  4.480941e+000  2.700000e+000  0.000000e+000
      vertex  9.020535e+000  7.213352e+000  3.552714e-015
      vertex  1.094364e+001  3.693128e+000  3.552714e-015
    endloop
  endfacet
  facet normal  3.674858e-016  4.175339e-016 -1.000000e+000
    outer loop
      vertex  9.020535e+000  7.213352e+000  3.552714e-015
      vertex  4.480941e+000  2.700000e+000  0.000000e+000
      vertex  6.009419e+000  9.863538e+000  3.552714e-015
    endloop
  endfacet
  facet normal  0.000000e+000  4.959440e-016 -1.000000e+000
    outer loop
      vertex  6.009419e+000  9.863538e+000  3.552714e-015
      vertex  4.480941e+000  2.700000e+000  0.000000e+000
      vertex -4.480941e+000  2.700000e+000  0.000000e+000
    endloop
  endfacet
  facet normal  1.232955e-016  3.153887e-016 -1.000000e+000
    outer loop
      vertex  6.009419e+000  9.863538e+000  3.552714e-015
      vertex -4.480941e+000  2.700000e+000  0.000000e+000
      vertex  2.273478e+000  1.132404e+001  3.552714e-015
    endloop
  endfacet
  facet normal -2.002149e-016  5.687648e-016 -1.000000e+000
    outer loop
      vertex  2.273478e+000  1.132404e+001  3.552714e-015
      vertex -4.480941e+000  2.700000e+000  0.000000e+000
      vertex -5.537365e+000  1.013608e+001  4.440892e-015
    endloop
  endfacet
  facet normal -1.527618e-017 -6.472103e-016 -9.999999e-001
    outer loop
      vertex  2.273478e+000  1.132404e+001  3.552714e-015
      vertex -5.537365e+000  1.013608e+001  4.440892e-015
      vertex -1.736678e+000  1.141869e+001  3.552714e-015
    endloop
  endfacet
  facet normal  5.875377e-016  0.000000e+000 -1.000000e+000
    outer loop
      vertex  5.500000e+000 -1.678575e+000  0.000000e+000
      vertex  5.500000e+000  1.678575e+000  0.000000e+000
      vertex  1.154678e+001 -2.725406e-001  3.552714e-015
    endloop
  endfacet
  facet normal  8.664754e-016  8.644678e-016 -1.000000e+000
    outer loop
      vertex  1.154678e+001 -2.725406e-001  3.552714e-015
      vertex  5.500000e+000  1.678575e+000  0.000000e+000
      vertex  4.480941e+000  2.700000e+000  0.000000e+000
    endloop
  endfacet
  facet normal  5.371711e-016  8.169892e-017 -1.000000e+000
    outer loop
      vertex  1.154678e+001 -2.725406e-001  3.552714e-015
      vertex  4.480941e+000  2.700000e+000  0.000000e+000
      vertex  1.094364e+001  3.693128e+000  3.552714e-015
    endloop
  endfacet
  facet normal  7.650102e-016 -7.632376e-016 -1.000000e+000
    outer loop
      vertex  5.500000e+000 -1.678575e+000  0.000000e+000
      vertex  1.154678e+001 -2.725406e-001  3.552714e-015
      vertex  4.480941e+000 -2.700000e+000  0.000000e+000
    endloop
  endfacet
  facet normal  5.400498e-016 -1.084235e-016 -9.999999e-001
    outer loop
      vertex  4.480941e+000 -2.700000e+000  0.000000e+000
      vertex  1.154678e+001 -2.725406e-001  3.552714e-015
      vertex  1.075721e+001 -4.205337e+000  3.552714e-015
    endloop
  endfacet
  facet normal  0.000000e+000  -0.000000e+000  1.000000e+000
    outer loop
      vertex  4.480941e+000 -2.700000e+000  2.000000e+000
      vertex  4.950735e+000 -4.288674e+000  2.000000e+000
      vertex  6.137174e+000 -2.288579e+000  2.000000e+000
    endloop
  endfacet
  facet normal  0.000000e+000  0.000000e+000  1.000000e+000
    outer loop
      vertex -4.480941e+000  2.700000e+000  2.000000e+000
      vertex  4.480941e+000  2.700000e+000  2.000000e+000
      vertex  4.428557e+000  4.826011e+000  2.000000e+000
    endloop
  endfacet
  facet normal  0.000000e+000  0.000000e+000  1.000000e+000
    outer loop
      vertex -4.480941e+000  2.700000e+000  2.000000e+000
      vertex  4.428557e+000  4.826011e+000  2.000000e+000
      vertex  2.112060e+000  6.200138e+000  2.000000e+000
    endloop
  endfacet
  facet normal  0.000000e+000  0.000000e+000  1.000000e+000
    outer loop
      vertex -4.480941e+000  2.700000e+000  2.000000e+000
      vertex  2.112060e+000  6.200138e+000  2.000000e+000
      vertex -5.615665e-001  6.525883e+000  2.000000e+000
    endloop
  endfacet
  facet normal  0.000000e+000  0.000000e+000  1.000000e+000
    outer loop
      vertex -4.480941e+000  2.700000e+000  2.000000e+000
      vertex -5.615665e-001  6.525883e+000  2.000000e+000
      vertex -3.140237e+000  5.748166e+000  2.000000e+000
    endloop
  endfacet
  facet normal  0.000000e+000  0.000000e+000  9.999999e-001
    outer loop
      vertex -4.480941e+000  2.700000e+000  2.000000e+000
      vertex -3.140237e+000  5.748166e+000  2.000000e+000
      vertex -4.950735e+000  4.288674e+000  2.000000e+000
    endloop
  endfacet
  facet normal  0.000000e+000  0.000000e+000  1.000000e+000
    outer loop
      vertex -4.480941e+000  2.700000e+000  2.000000e+000
      vertex -4.950735e+000  4.288674e+000  2.000000e+000
      vertex -6.137174e+000  2.288579e+000  2.000000e+000
    endloop
  endfacet
  facet normal  -0.000000e+000  0.000000e+000  1.000000e+000
    outer loop
      vertex -4.480941e+000  2.700000e+000  2.000000e+000
      vertex -6.137174e+000  2.288579e+000  2.000000e+000
      vertex -5.500000e+000  1.678575e+000  2.000000e+000
    endloop
  endfacet
  facet normal  0.000000e+000  0.000000e+000  1.000000e+000
    outer loop
      vertex -4.480941e+000 -2.700000e+000  2.000000e+000
      vertex -5.500000e+000 -1.678575e+000  2.000000e+000
      vertex -5.996230e+000 -2.635854e+000  2.000000e+000
    endloop
  endfacet
  facet normal  0.000000e+000  0.000000e+000  9.999999e-001
    outer loop
      vertex -4.480941e+000 -2.700000e+000  2.000000e+000
      vertex -5.996230e+000 -2.635854e+000  2.000000e+000
      vertex -4.428557e+000 -4.826011e+000  2.000000e+000
    endloop
  endfacet
  facet normal  -0.000000e+000  -0.000000e+000  1.000000e+000
    outer loop
      vertex -4.480941e+000 -2.700000e+000  2.000000e+000
      vertex -4.428557e+000 -4.826011e+000  2.000000e+000
      vertex -2.112060e+000 -6.200138e+000  2.000000e+000
    endloop
  endfacet
  facet normal  -0.000000e+000  -0.000000e+000  1.000000e+000
    outer loop
      vertex -4.480941e+000 -2.700000e+000  2.000000e+000
      vertex -2.112060e+000 -6.200138e+000  2.000000e+000
      vertex  5.615665e-001 -6.525883e+000  2.000000e+000
    endloop
  endfacet
  facet normal  0.000000e+000  -0.000000e+000  1.000000e+000
    outer loop
      vertex -4.480941e+000 -2.700000e+000  2.000000e+000
      vertex  5.615665e-001 -6.525883e+000  2.000000e+000
      vertex  3.140237e+000 -5.748166e+000  2.000000e+000
    endloop
  endfacet
  facet normal  0.000000e+000  -0.000000e+000  1.000000e+000
    outer loop
      vertex -4.480941e+000 -2.700000e+000  2.000000e+000
      vertex  3.140237e+000 -5.748166e+000  2.000000e+000
      vertex  4.950735e+000 -4.288674e+000  2.000000e+000
    endloop
  endfacet
  facet normal  0.000000e+000  0.000000e+000  9.999999e-001
    outer loop
      vertex -4.480941e+000 -2.700000e+000  2.000000e+000
      vertex  4.950735e+000 -4.288674e+000  2.000000e+000
      vertex  4.480941e+000 -2.700000e+000  2.000000e+000
    endloop
  endfacet
  facet normal  0.000000e+000  0.000000e+000  1.000000e+000
    outer loop
      vertex  5.500000e+000 -1.678575e+000  2.000000e+000
      vertex  4.480941e+000 -2.700000e+000  2.000000e+000
      vertex  6.137174e+000 -2.288579e+000  2.000000e+000
    endloop
  endfacet
  facet normal  0.000000e+000  -0.000000e+000  9.999999e-001
    outer loop
      vertex  5.500000e+000 -1.678575e+000  2.000000e+000
      vertex  6.137174e+000 -2.288579e+000  2.000000e+000
      vertex  6.550000e+000 -1.604234e-015  2.000000e+000
    endloop
  endfacet
  facet normal  0.000000e+000  0.000000e+000  9.999999e-001
    outer loop
      vertex  5.500000e+000 -1.678575e+000  2.000000e+000
      vertex  6.550000e+000 -1.604234e-015  2.000000e+000
      vertex  5.996230e+000  2.635854e+000  2.000000e+000
    endloop
  endfacet
  facet normal  0.000000e+000  0.000000e+000  1.000000e+000
    outer loop
      vertex  5.500000e+000 -1.678575e+000  2.000000e+000
      vertex  5.996230e+000  2.635854e+000  2.000000e+000
      vertex  5.500000e+000  1.678575e+000  2.000000e+000
    endloop
  endfacet
  facet normal  0.000000e+000  0.000000e+000  1.000000e+000
    outer loop
      vertex -5.500000e+000  1.678575e+000  2.000000e+000
      vertex -6.137174e+000  2.288579e+000  2.000000e+000
      vertex -5.500000e+000 -1.678575e+000  2.000000e+000
    endloop
  endfacet
  facet normal  0.000000e+000  0.000000e+000  9.999999e-001
    outer loop
      vertex -5.500000e+000 -1.678575e+000  2.000000e+000
      vertex -6.137174e+000  2.288579e+000  2.000000e+000
      vertex -6.550000e+000  8.021172e-016  2.000000e+000
    endloop
  endfacet
  facet normal  0.000000e+000  0.000000e+000  9.999999e-001
    outer loop
      vertex -5.500000e+000 -1.678575e+000  2.000000e+000
      vertex -6.550000e+000  8.021172e-016  2.000000e+000
      vertex -5.996230e+000 -2.635854e+000  2.000000e+000
    endloop
  endfacet
  facet normal  0.000000e+000  0.000000e+000  1.000000e+000
    outer loop
      vertex  5.500000e+000  1.678575e+000  2.000000e+000
      vertex  5.996230e+000  2.635854e+000  2.000000e+000
      vertex  4.480941e+000  2.700000e+000  2.000000e+000
    endloop
  endfacet
  facet normal  -0.000000e+000  -0.000000e+000  9.999999e-001
    outer loop
      vertex  4.480941e+000  2.700000e+000  2.000000e+000
      vertex  5.996230e+000  2.635854e+000  2.000000e+000
      vertex  4.428557e+000  4.826011e+000  2.000000e+000
    endloop
  endfacet
  facet normal -5.825785e-001 -8.126033e-001 -1.667499e-002
    outer loop
      vertex  4.428557e+000  4.826011e+000  2.000000e+000
      vertex  4.905279e+000  4.340592e+000  9.000000e+000
      vertex  2.536191e+000  6.039059e+000  9.000000e+000
    endloop
  endfacet
  facet normal -8.130664e-001 -5.819774e-001  1.501479e-002
    outer loop
      vertex  4.905279e+000  4.340592e+000  9.000000e+000
      vertex  4.428557e+000  4.826011e+000  2.000000e+000
      vertex  5.996230e+000  2.635854e+000  2.000000e+000
    endloop
  endfacet
  facet normal -8.774068e-001 -4.793296e-001 -2.001095e-002
    outer loop
      vertex  5.996230e+000  2.635854e+000  2.000000e+000
      vertex  6.302816e+000  1.782418e+000  9.000000e+000
      vertex  4.905279e+000  4.340592e+000  9.000000e+000
    endloop
  endfacet
  facet normal -9.217566e-001  3.871051e-001 -2.268086e-002
    outer loop
      vertex  6.137174e+000 -2.288579e+000  2.000000e+000
      vertex  5.323292e+000 -3.816421e+000  9.000000e+000
      vertex  6.452003e+000 -1.128786e+000  9.000000e+000
    endloop
  endfacet
  facet normal -9.840087e-001  1.775007e-001  1.484719e-002
    outer loop
      vertex  6.550000e+000 -1.604234e-015  2.000000e+000
      vertex  6.137174e+000 -2.288579e+000  2.000000e+000
      vertex  6.452003e+000 -1.128786e+000  9.000000e+000
    endloop
  endfacet
  facet normal -9.984427e-001 -5.116603e-002 -2.222859e-002
    outer loop
      vertex  6.550000e+000 -1.604234e-015  2.000000e+000
      vertex  6.452003e+000 -1.128786e+000  9.000000e+000
      vertex  6.302816e+000  1.782418e+000  9.000000e+000
    endloop
  endfacet
  facet normal -9.784806e-001 -2.055703e-001  1.779245e-002
    outer loop
      vertex  6.550000e+000 -1.604234e-015  2.000000e+000
      vertex  6.302816e+000  1.782418e+000  9.000000e+000
      vertex  5.996230e+000  2.635854e+000  2.000000e+000
    endloop
  endfacet
  facet normal -5.101521e-001 -8.600124e-001  1.112029e-002
    outer loop
      vertex  4.428557e+000  4.826011e+000  2.000000e+000
      vertex  2.536191e+000  6.039059e+000  9.000000e+000
      vertex  2.112060e+000  6.200138e+000  2.000000e+000
    endloop
  endfacet
  facet normal -1.723209e-001 -9.849650e-001 -1.222428e-002
    outer loop
      vertex  2.112060e+000  6.200138e+000  2.000000e+000
      vertex  2.536191e+000  6.039059e+000  9.000000e+000
      vertex -3.352204e-001  6.541416e+000  9.000000e+000
    endloop
  endfacet
  facet normal -1.209399e-001 -9.926410e-001  6.113344e-003
    outer loop
      vertex  2.112060e+000  6.200138e+000  2.000000e+000
      vertex -3.352204e-001  6.541416e+000  9.000000e+000
      vertex -5.615665e-001  6.525883e+000  2.000000e+000
    endloop
  endfacet
  facet normal  2.721188e-001 -9.622406e-001 -6.663734e-003
    outer loop
      vertex -5.615665e-001  6.525883e+000  2.000000e+000
      vertex -3.352204e-001  6.541416e+000  9.000000e+000
      vertex -3.140237e+000  5.748166e+000  9.000000e+000
    endloop
  endfacet
  facet normal  2.887495e-001 -9.574047e-001  0.000000e+000
    outer loop
      vertex -5.615665e-001  6.525883e+000  2.000000e+000
      vertex -3.140237e+000  5.748166e+000  9.000000e+000
      vertex -3.140237e+000  5.748166e+000  2.000000e+000
    endloop
  endfacet
  facet normal -8.600101e-001  5.101505e-001  1.135461e-002
    outer loop
      vertex  6.137174e+000 -2.288579e+000  2.000000e+000
      vertex  4.950735e+000 -4.288674e+000  2.000000e+000
      vertex  5.323292e+000 -3.816421e+000  9.000000e+000
    endloop
  endfacet
  facet normal -6.274847e-001  7.783941e-001 -1.911794e-002
    outer loop
      vertex  5.323292e+000 -3.816421e+000  9.000000e+000
      vertex  4.950735e+000 -4.288674e+000  2.000000e+000
      vertex  3.140237e+000 -5.748166e+000  2.000000e+000
    endloop
  endfacet
  facet normal -6.626858e-001  7.488976e-001  0.000000e+000
    outer loop
      vertex  5.323292e+000 -3.816421e+000  9.000000e+000
      vertex  3.140237e+000 -5.748166e+000  2.000000e+000
      vertex  3.140237e+000 -5.748166e+000  9.000000e+000
    endloop
  endfacet
  facet normal  5.825785e-001  8.126033e-001 -1.667499e-002
    outer loop
      vertex -4.428557e+000 -4.826011e+000  2.000000e+000
      vertex -4.905279e+000 -4.340592e+000  9.000000e+000
      vertex -2.536191e+000 -6.039059e+000  9.000000e+000
    endloop
  endfacet
  facet normal  8.130664e-001  5.819774e-001  1.501479e-002
    outer loop
      vertex -4.905279e+000 -4.340592e+000  9.000000e+000
      vertex -4.428557e+000 -4.826011e+000  2.000000e+000
      vertex -5.996230e+000 -2.635854e+000  2.000000e+000
    endloop
  endfacet
  facet normal  8.774068e-001  4.793296e-001 -2.001095e-002
    outer loop
      vertex -5.996230e+000 -2.635854e+000  2.000000e+000
      vertex -6.302816e+000 -1.782418e+000  9.000000e+000
      vertex -4.905279e+000 -4.340592e+000  9.000000e+000
    endloop
  endfacet
  facet normal  9.217566e-001 -3.871051e-001 -2.268086e-002
    outer loop
      vertex -6.137174e+000  2.288579e+000  2.000000e+000
      vertex -5.323292e+000  3.816421e+000  9.000000e+000
      vertex -6.452003e+000  1.128786e+000  9.000000e+000
    endloop
  endfacet
  facet normal  9.840087e-001 -1.775007e-001  1.484719e-002
    outer loop
      vertex -6.550000e+000  8.021172e-016  2.000000e+000
      vertex -6.137174e+000  2.288579e+000  2.000000e+000
      vertex -6.452003e+000  1.128786e+000  9.000000e+000
    endloop
  endfacet
  facet normal  9.984427e-001  5.116603e-002 -2.222859e-002
    outer loop
      vertex -6.550000e+000  8.021172e-016  2.000000e+000
      vertex -6.452003e+000  1.128786e+000  9.000000e+000
      vertex -6.302816e+000 -1.782418e+000  9.000000e+000
    endloop
  endfacet
  facet normal  9.784806e-001  2.055703e-001  1.779245e-002
    outer loop
      vertex -6.550000e+000  8.021172e-016  2.000000e+000
      vertex -6.302816e+000 -1.782418e+000  9.000000e+000
      vertex -5.996230e+000 -2.635854e+000  2.000000e+000
    endloop
  endfacet
  facet normal  5.101521e-001  8.600124e-001  1.112029e-002
    outer loop
      vertex -4.428557e+000 -4.826011e+000  2.000000e+000
      vertex -2.536191e+000 -6.039059e+000  9.000000e+000
      vertex -2.112060e+000 -6.200138e+000  2.000000e+000
    endloop
  endfacet
  facet normal  1.723209e-001  9.849650e-001 -1.222428e-002
    outer loop
      vertex -2.112060e+000 -6.200138e+000  2.000000e+000
      vertex -2.536191e+000 -6.039059e+000  9.000000e+000
      vertex  3.352204e-001 -6.541416e+000  9.000000e+000
    endloop
  endfacet
  facet normal  1.209399e-001  9.926410e-001  6.113344e-003
    outer loop
      vertex -2.112060e+000 -6.200138e+000  2.000000e+000
      vertex  3.352204e-001 -6.541416e+000  9.000000e+000
      vertex  5.615665e-001 -6.525883e+000  2.000000e+000
    endloop
  endfacet
  facet normal -2.721188e-001  9.622406e-001 -6.663734e-003
    outer loop
      vertex  5.615665e-001 -6.525883e+000  2.000000e+000
      vertex  3.352204e-001 -6.541416e+000  9.000000e+000
      vertex  3.140237e+000 -5.748166e+000  9.000000e+000
    endloop
  endfacet
  facet normal -2.887495e-001  9.574047e-001  0.000000e+000
    outer loop
      vertex  5.615665e-001 -6.525883e+000  2.000000e+000
      vertex  3.140237e+000 -5.748166e+000  9.000000e+000
      vertex  3.140237e+000 -5.748166e+000  2.000000e+000
    endloop
  endfacet
  facet normal  8.600101e-001 -5.101505e-001  1.135461e-002
    outer loop
      vertex -6.137174e+000  2.288579e+000  2.000000e+000
      vertex -4.950735e+000  4.288674e+000  2.000000e+000
      vertex -5.323292e+000  3.816421e+000  9.000000e+000
    endloop
  endfacet
  facet normal  6.274847e-001 -7.783941e-001 -1.911794e-002
    outer loop
      vertex -5.323292e+000  3.816421e+000  9.000000e+000
      vertex -4.950735e+000  4.288674e+000  2.000000e+000
      vertex -3.140237e+000  5.748166e+000  2.000000e+000
    endloop
  endfacet
  facet normal  6.626858e-001 -7.488976e-001  0.000000e+000
    outer loop
      vertex -5.323292e+000  3.816421e+000  9.000000e+000
      vertex -3.140237e+000  5.748166e+000  2.000000e+000
      vertex -3.140237e+000  5.748166e+000  9.000000e+000
    endloop
  endfacet
  facet normal  7.079265e-001 -7.062862e-001  0.000000e+000
    outer loop
      vertex -5.500000e+000  1.678575e+000  0.000000e+000
      vertex -4.480941e+000  2.700000e+000  0.000000e+000
      vertex -5.500000e+000  1.678575e+000  2.000000e+000
    endloop
  endfacet
  facet normal  7.079265e-001 -7.062862e-001  0.000000e+000
    outer loop
      vertex -5.500000e+000  1.678575e+000  2.000000e+000
      vertex -4.480941e+000  2.700000e+000  0.000000e+000
      vertex -4.480941e+000  2.700000e+000  2.000000e+000
    endloop
  endfacet
  facet normal  1.000000e+000  -0.000000e+000  0.000000e+000
    outer loop
      vertex -5.500000e+000  1.678575e+000  2.000000e+000
      vertex -5.500000e+000 -1.678575e+000  2.000000e+000
      vertex -5.500000e+000  1.678575e+000  0.000000e+000
    endloop
  endfacet
  facet normal  1.000000e+000  0.000000e+000  0.000000e+000
    outer loop
      vertex -5.500000e+000  1.678575e+000  0.000000e+000
      vertex -5.500000e+000 -1.678575e+000  2.000000e+000
      vertex -5.500000e+000 -1.678575e+000  0.000000e+000
    endloop
  endfacet
  facet normal  7.079265e-001  7.062862e-001  0.000000e+000
    outer loop
      vertex -5.500000e+000 -1.678575e+000  0.000000e+000
      vertex -5.500000e+000 -1.678575e+000  2.000000e+000
      vertex -4.480941e+000 -2.700000e+000  0.000000e+000
    endloop
  endfacet
  facet normal  7.079265e-001  7.062862e-001  -0.000000e+000
    outer loop
      vertex -4.480941e+000 -2.700000e+000  0.000000e+000
      vertex -5.500000e+000 -1.678575e+000  2.000000e+000
      vertex -4.480941e+000 -2.700000e+000  2.000000e+000
    endloop
  endfacet
  facet normal  0.000000e+000  1.000000e+000  -0.000000e+000
    outer loop
      vertex  4.480941e+000 -2.700000e+000  2.000000e+000
      vertex  4.480941e+000 -2.700000e+000  0.000000e+000
      vertex -4.480941e+000 -2.700000e+000  2.000000e+000
    endloop
  endfacet
  facet normal  0.000000e+000  1.000000e+000  0.000000e+000
    outer loop
      vertex -4.480941e+000 -2.700000e+000  2.000000e+000
      vertex  4.480941e+000 -2.700000e+000  0.000000e+000
      vertex -4.480941e+000 -2.700000e+000  0.000000e+000
    endloop
  endfacet
  facet normal -7.079265e-001  7.062862e-001  0.000000e+000
    outer loop
      vertex  5.500000e+000 -1.678575e+000  0.000000e+000
      vertex  4.480941e+000 -2.700000e+000  0.000000e+000
      vertex  5.500000e+000 -1.678575e+000  2.000000e+000
    endloop
  endfacet
  facet normal -7.079265e-001  7.062862e-001  0.000000e+000
    outer loop
      vertex  5.500000e+000 -1.678575e+000  2.000000e+000
      vertex  4.480941e+000 -2.700000e+000  0.000000e+000
      vertex  4.480941e+000 -2.700000e+000  2.000000e+000
    endloop
  endfacet
  facet normal -1.000000e+000  -0.000000e+000  0.000000e+000
    outer loop
      vertex  5.500000e+000 -1.678575e+000  2.000000e+000
      vertex  5.500000e+000  1.678575e+000  2.000000e+000
      vertex  5.500000e+000 -1.678575e+000  0.000000e+000
    endloop
  endfacet
  facet normal -1.000000e+000  0.000000e+000  0.000000e+000
    outer loop
      vertex  5.500000e+000 -1.678575e+000  0.000000e+000
      vertex  5.500000e+000  1.678575e+000  2.000000e+000
      vertex  5.500000e+000  1.678575e+000  0.000000e+000
    endloop
  endfacet
  facet normal -7.079265e-001 -7.062862e-001  -0.000000e+000
    outer loop
      vertex  5.500000e+000  1.678575e+000  0.000000e+000
      vertex  5.500000e+000  1.678575e+000  2.000000e+000
      vertex  4.480941e+000  2.700000e+000  0.000000e+000
    endloop
  endfacet
  facet normal -7.079265e-001 -7.062862e-001  0.000000e+000
    outer loop
      vertex  4.480941e+000  2.700000e+000  0.000000e+000
      vertex  5.500000e+000  1.678575e+000  2.000000e+000
      vertex  4.480941e+000  2.700000e+000  2.000000e+000
    endloop
  endfacet
  facet normal  0.000000e+000 -1.000000e+000  0.000000e+000
    outer loop
      vertex -4.480941e+000  2.700000e+000  2.000000e+000
      vertex -4.480941e+000  2.700000e+000  0.000000e+000
      vertex  4.480941e+000  2.700000e+000  2.000000e+000
    endloop
  endfacet
  facet normal  0.000000e+000 -1.000000e+000  -0.000000e+000
    outer loop
      vertex  4.480941e+000  2.700000e+000  2.000000e+000
      vertex -4.480941e+000  2.700000e+000  0.000000e+000
      vertex  4.480941e+000  2.700000e+000  0.000000e+000
    endloop
  endfacet
  facet normal  0.000000e+000  0.000000e+000  9.999999e-001
    outer loop
      vertex  1.736678e+000 -1.141869e+001  2.000000e+000
      vertex  5.537365e+000 -1.013608e+001  2.000000e+000
      vertex -2.273478e+000 -1.132404e+001  2.000000e+000
    endloop
  endfacet
  facet normal  0.000000e+000  0.000000e+000  1.000000e+000
    outer loop
      vertex -2.273478e+000 -1.132404e+001  2.000000e+000
      vertex  5.537365e+000 -1.013608e+001  2.000000e+000
      vertex  9.156634e-001 -8.500827e+000  2.000000e+000
    endloop
  endfacet
  facet normal  0.000000e+000  0.000000e+000  9.999999e-001
    outer loop
      vertex -2.273478e+000 -1.132404e+001  2.000000e+000
      vertex  9.156634e-001 -8.500827e+000  2.000000e+000
      vertex -6.009419e+000 -9.863538e+000  2.000000e+000
    endloop
  endfacet
  facet normal  0.000000e+000  0.000000e+000  9.999999e-001
    outer loop
      vertex -6.009419e+000 -9.863538e+000  2.000000e+000
      vertex  9.156634e-001 -8.500827e+000  2.000000e+000
      vertex -2.407163e+000 -8.204149e+000  2.000000e+000
    endloop
  endfacet
  facet normal  0.000000e+000  0.000000e+000  1.000000e+000
    outer loop
      vertex -6.009419e+000 -9.863538e+000  2.000000e+000
      vertex -2.407163e+000 -8.204149e+000  2.000000e+000
      vertex -9.020535e+000 -7.213352e+000  2.000000e+000
    endloop
  endfacet
  facet normal  -0.000000e+000  0.000000e+000  1.000000e+000
    outer loop
      vertex -9.020535e+000 -7.213352e+000  2.000000e+000
      vertex -2.407163e+000 -8.204149e+000  2.000000e+000
      vertex -5.363521e+000 -6.658464e+000  2.000000e+000
    endloop
  endfacet
  facet normal  0.000000e+000  0.000000e+000  1.000000e+000
    outer loop
      vertex -9.020535e+000 -7.213352e+000  2.000000e+000
      vertex -5.363521e+000 -6.658464e+000  2.000000e+000
      vertex -1.094364e+001 -3.693128e+000  2.000000e+000
    endloop
  endfacet
  facet normal  0.000000e+000  0.000000e+000  9.999999e-001
    outer loop
      vertex -1.094364e+001 -3.693128e+000  2.000000e+000
      vertex -5.363521e+000 -6.658464e+000  2.000000e+000
      vertex -7.503331e+000 -4.099088e+000  2.000000e+000
    endloop
  endfacet
  facet normal  0.000000e+000  0.000000e+000  1.000000e+000
    outer loop
      vertex -1.094364e+001 -3.693128e+000  2.000000e+000
      vertex -7.503331e+000 -4.099088e+000  2.000000e+000
      vertex -1.154678e+001  2.725406e-001  2.000000e+000
    endloop
  endfacet
  facet normal  0.000000e+000  0.000000e+000  1.000000e+000
    outer loop
      vertex -1.154678e+001  2.725406e-001  2.000000e+000
      vertex -7.503331e+000 -4.099088e+000  2.000000e+000
      vertex -8.500827e+000 -9.156634e-001  2.000000e+000
    endloop
  endfacet
  facet normal  0.000000e+000  -0.000000e+000  1.000000e+000
    outer loop
      vertex -1.154678e+001  2.725406e-001  2.000000e+000
      vertex -8.500827e+000 -9.156634e-001  2.000000e+000
      vertex -8.204149e+000  2.407163e+000  2.000000e+000
    endloop
  endfacet
  facet normal  0.000000e+000  0.000000e+000  1.000000e+000
    outer loop
      vertex  8.204149e+000 -2.407163e+000  2.000000e+000
      vertex  1.075721e+001 -4.205337e+000  2.000000e+000
      vertex  8.500827e+000  9.156634e-001  2.000000e+000
    endloop
  endfacet
  facet normal  0.000000e+000  0.000000e+000  1.000000e+000
    outer loop
      vertex  8.500827e+000  9.156634e-001  2.000000e+000
      vertex  1.075721e+001 -4.205337e+000  2.000000e+000
      vertex  1.154678e+001 -2.725406e-001  2.000000e+000
    endloop
  endfacet
  facet normal  0.000000e+000  0.000000e+000  1.000000e+000
    outer loop
      vertex  8.500827e+000  9.156634e-001  2.000000e+000
      vertex  1.154678e+001 -2.725406e-001  2.000000e+000
      vertex  7.503331e+000  4.099088e+000  2.000000e+000
    endloop
  endfacet
  facet normal  0.000000e+000  0.000000e+000  1.000000e+000
    outer loop
      vertex  7.503331e+000  4.099088e+000  2.000000e+000
      vertex  1.154678e+001 -2.725406e-001  2.000000e+000
      vertex  1.094364e+001  3.693128e+000  2.000000e+000
    endloop
  endfacet
  facet normal  0.000000e+000  0.000000e+000  9.999999e-001
    outer loop
      vertex  7.503331e+000  4.099088e+000  2.000000e+000
      vertex  1.094364e+001  3.693128e+000  2.000000e+000
      vertex  5.363521e+000  6.658464e+000  2.000000e+000
    endloop
  endfacet
  facet normal  -0.000000e+000  0.000000e+000  1.000000e+000
    outer loop
      vertex  5.363521e+000  6.658464e+000  2.000000e+000
      vertex  1.094364e+001  3.693128e+000  2.000000e+000
      vertex  9.020535e+000  7.213352e+000  2.000000e+000
    endloop
  endfacet
  facet normal  0.000000e+000  0.000000e+000  1.000000e+000
    outer loop
      vertex  5.363521e+000  6.658464e+000  2.000000e+000
      vertex  9.020535e+000  7.213352e+000  2.000000e+000
      vertex  2.407163e+000  8.204149e+000  2.000000e+000
    endloop
  endfacet
  facet normal  -0.000000e+000  0.000000e+000  1.000000e+000
    outer loop
      vertex  2.407163e+000  8.204149e+000  2.000000e+000
      vertex  9.020535e+000  7.213352e+000  2.000000e+000
      vertex  6.009419e+000  9.863538e+000  2.000000e+000
    endloop
  endfacet
  facet normal  0.000000e+000  0.000000e+000  9.999999e-001
    outer loop
      vertex  2.407163e+000  8.204149e+000  2.000000e+000
      vertex  6.009419e+000  9.863538e+000  2.000000e+000
      vertex -9.156634e-001  8.500827e+000  2.000000e+000
    endloop
  endfacet
  facet normal  0.000000e+000  0.000000e+000  9.999999e-001
    outer loop
      vertex -9.156634e-001  8.500827e+000  2.000000e+000
      vertex  6.009419e+000  9.863538e+000  2.000000e+000
      vertex  2.273478e+000  1.132404e+001  2.000000e+000
    endloop
  endfacet
  facet normal  0.000000e+000  0.000000e+000  1.000000e+000
    outer loop
      vertex -9.156634e-001  8.500827e+000  2.000000e+000
      vertex  2.273478e+000  1.132404e+001  2.000000e+000
      vertex -1.736678e+000  1.141869e+001  2.000000e+000
    endloop
  endfacet
  facet normal  0.000000e+000  0.000000e+000  1.000000e+000
    outer loop
      vertex -1.154678e+001  2.725406e-001  2.000000e+000
      vertex -8.204149e+000  2.407163e+000  2.000000e+000
      vertex -1.075721e+001  4.205337e+000  2.000000e+000
    endloop
  endfacet
  facet normal  -0.000000e+000  0.000000e+000  1.000000e+000
    outer loop
      vertex -1.075721e+001  4.205337e+000  2.000000e+000
      vertex -8.204149e+000  2.407163e+000  2.000000e+000
      vertex -6.658464e+000  5.363521e+000  2.000000e+000
    endloop
  endfacet
  facet normal  0.000000e+000  0.000000e+000  1.000000e+000
    outer loop
      vertex -1.075721e+001  4.205337e+000  2.000000e+000
      vertex -6.658464e+000  5.363521e+000  2.000000e+000
      vertex -8.670164e+000  7.630908e+000  2.000000e+000
    endloop
  endfacet
  facet normal  0.000000e+000  0.000000e+000  1.000000e+000
    outer loop
      vertex -8.670164e+000  7.630908e+000  2.000000e+000
      vertex -6.658464e+000  5.363521e+000  2.000000e+000
      vertex -4.099088e+000  7.503331e+000  2.000000e+000
    endloop
  endfacet
  facet normal  0.000000e+000  0.000000e+000  1.000000e+000
    outer loop
      vertex -8.670164e+000  7.630908e+000  2.000000e+000
      vertex -4.099088e+000  7.503331e+000  2.000000e+000
      vertex -5.537365e+000  1.013608e+001  2.000000e+000
    endloop
  endfacet
  facet normal  0.000000e+000  0.000000e+000  1.000000e+000
    outer loop
      vertex -5.537365e+000  1.013608e+001  2.000000e+000
      vertex -4.099088e+000  7.503331e+000  2.000000e+000
      vertex -9.156634e-001  8.500827e+000  2.000000e+000
    endloop
  endfacet
  facet normal  0.000000e+000  0.000000e+000  1.000000e+000
    outer loop
      vertex -5.537365e+000  1.013608e+001  2.000000e+000
      vertex -9.156634e-001  8.500827e+000  2.000000e+000
      vertex -1.736678e+000  1.141869e+001  2.000000e+000
    endloop
  endfacet
  facet normal  0.000000e+000  0.000000e+000  1.000000e+000
    outer loop
      vertex  9.156634e-001 -8.500827e+000  2.000000e+000
      vertex  5.537365e+000 -1.013608e+001  2.000000e+000
      vertex  4.099088e+000 -7.503331e+000  2.000000e+000
    endloop
  endfacet
  facet normal  0.000000e+000  0.000000e+000  1.000000e+000
    outer loop
      vertex  4.099088e+000 -7.503331e+000  2.000000e+000
      vertex  5.537365e+000 -1.013608e+001  2.000000e+000
      vertex  8.670164e+000 -7.630908e+000  2.000000e+000
    endloop
  endfacet
  facet normal  0.000000e+000  0.000000e+000  1.000000e+000
    outer loop
      vertex  4.099088e+000 -7.503331e+000  2.000000e+000
      vertex  8.670164e+000 -7.630908e+000  2.000000e+000
      vertex  6.658464e+000 -5.363521e+000  2.000000e+000
    endloop
  endfacet
  facet normal  -0.000000e+000  0.000000e+000  1.000000e+000
    outer loop
      vertex  6.658464e+000 -5.363521e+000  2.000000e+000
      vertex  8.670164e+000 -7.630908e+000  2.000000e+000
      vertex  1.075721e+001 -4.205337e+000  2.000000e+000
    endloop
  endfacet
  facet normal  0.000000e+000  0.000000e+000  1.000000e+000
    outer loop
      vertex  6.658464e+000 -5.363521e+000  2.000000e+000
      vertex  1.075721e+001 -4.205337e+000  2.000000e+000
      vertex  8.204149e+000 -2.407163e+000  2.000000e+000
    endloop
  endfacet
  facet normal  0.000000e+000  0.000000e+000  1.000000e+000
    outer loop
      vertex  9.156634e-001 -8.500827e+000  9.000000e+000
      vertex  4.099088e+000 -7.503331e+000  9.000000e+000
      vertex -2.407163e+000 -8.204149e+000  9.000000e+000
    endloop
  endfacet
  facet normal  0.000000e+000  0.000000e+000  1.000000e+000
    outer loop
      vertex -2.407163e+000 -8.204149e+000  9.000000e+000
      vertex  4.099088e+000 -7.503331e+000  9.000000e+000
      vertex  3.352204e-001 -6.541416e+000  9.000000e+000
    endloop
  endfacet
  facet normal  0.000000e+000  0.000000e+000  1.000000e+000
    outer loop
      vertex -2.407163e+000 -8.204149e+000  9.000000e+000
      vertex  3.352204e-001 -6.541416e+000  9.000000e+000
      vertex -5.363521e+000 -6.658464e+000  9.000000e+000
    endloop
  endfacet
  facet normal  0.000000e+000  0.000000e+000  1.000000e+000
    outer loop
      vertex -5.363521e+000 -6.658464e+000  9.000000e+000
      vertex  3.352204e-001 -6.541416e+000  9.000000e+000
      vertex -2.536191e+000 -6.039059e+000  9.000000e+000
    endloop
  endfacet
  facet normal  0.000000e+000  0.000000e+000  1.000000e+000
    outer loop
      vertex -5.363521e+000 -6.658464e+000  9.000000e+000
      vertex -2.536191e+000 -6.039059e+000  9.000000e+000
      vertex -7.503331e+000 -4.099088e+000  9.000000e+000
    endloop
  endfacet
  facet normal  0.000000e+000  0.000000e+000  1.000000e+000
    outer loop
      vertex -7.503331e+000 -4.099088e+000  9.000000e+000
      vertex -2.536191e+000 -6.039059e+000  9.000000e+000
      vertex -4.905279e+000 -4.340592e+000  9.000000e+000
    endloop
  endfacet
  facet normal  0.000000e+000  0.000000e+000  1.000000e+000
    outer loop
      vertex -7.503331e+000 -4.099088e+000  9.000000e+000
      vertex -4.905279e+000 -4.340592e+000  9.000000e+000
      vertex -8.500827e+000 -9.156634e-001  9.000000e+000
    endloop
  endfacet
  facet normal  0.000000e+000  0.000000e+000  9.999999e-001
    outer loop
      vertex -8.500827e+000 -9.156634e-001  9.000000e+000
      vertex -4.905279e+000 -4.340592e+000  9.000000e+000
      vertex -6.302816e+000 -1.782418e+000  9.000000e+000
    endloop
  endfacet
  facet normal  0.000000e+000  0.000000e+000  1.000000e+000
    outer loop
      vertex -8.500827e+000 -9.156634e-001  9.000000e+000
      vertex -6.302816e+000 -1.782418e+000  9.000000e+000
      vertex -8.204149e+000  2.407163e+000  9.000000e+000
    endloop
  endfacet
  facet normal  0.000000e+000  0.000000e+000  1.000000e+000
    outer loop
      vertex -8.204149e+000  2.407163e+000  9.000000e+000
      vertex -6.302816e+000 -1.782418e+000  9.000000e+000
      vertex -6.452003e+000  1.128786e+000  9.000000e+000
    endloop
  endfacet
  facet normal  0.000000e+000  -0.000000e+000  1.000000e+000
    outer loop
      vertex -8.204149e+000  2.407163e+000  9.000000e+000
      vertex -6.452003e+000  1.128786e+000  9.000000e+000
      vertex -5.323292e+000  3.816421e+000  9.000000e+000
    endloop
  endfacet
  facet normal  0.000000e+000  0.000000e+000  1.000000e+000
    outer loop
      vertex  5.323292e+000 -3.816421e+000  9.000000e+000
      vertex  6.658464e+000 -5.363521e+000  9.000000e+000
      vertex  6.452003e+000 -1.128786e+000  9.000000e+000
    endloop
  endfacet
  facet normal  0.000000e+000  0.000000e+000  1.000000e+000
    outer loop
      vertex  6.452003e+000 -1.128786e+000  9.000000e+000
      vertex  6.658464e+000 -5.363521e+000  9.000000e+000
      vertex  8.204149e+000 -2.407163e+000  9.000000e+000
    endloop
  endfacet
  facet normal  0.000000e+000  0.000000e+000  1.000000e+000
    outer loop
      vertex  6.452003e+000 -1.128786e+000  9.000000e+000
      vertex  8.204149e+000 -2.407163e+000  9.000000e+000
      vertex  6.302816e+000  1.782418e+000  9.000000e+000
    endloop
  endfacet
  facet normal  0.000000e+000  0.000000e+000  1.000000e+000
    outer loop
      vertex  6.302816e+000  1.782418e+000  9.000000e+000
      vertex  8.204149e+000 -2.407163e+000  9.000000e+000
      vertex  8.500827e+000  9.156634e-001  9.000000e+000
    endloop
  endfacet
  facet normal  0.000000e+000  0.000000e+000  9.999999e-001
    outer loop
      vertex  6.302816e+000  1.782418e+000  9.000000e+000
      vertex  8.500827e+000  9.156634e-001  9.000000e+000
      vertex  4.905279e+000  4.340592e+000  9.000000e+000
    endloop
  endfacet
  facet normal  0.000000e+000  0.000000e+000  1.000000e+000
    outer loop
      vertex  4.905279e+000  4.340592e+000  9.000000e+000
      vertex  8.500827e+000  9.156634e-001  9.000000e+000
      vertex  7.503331e+000  4.099088e+000  9.000000e+000
    endloop
  endfacet
  facet normal  0.000000e+000  0.000000e+000  1.000000e+000
    outer loop
      vertex  4.905279e+000  4.340592e+000  9.000000e+000
      vertex  7.503331e+000  4.099088e+000  9.000000e+000
      vertex  2.536191e+000  6.039059e+000  9.000000e+000
    endloop
  endfacet
  facet normal  -0.000000e+000  0.000000e+000  1.000000e+000
    outer loop
      vertex  2.536191e+000  6.039059e+000  9.000000e+000
      vertex  7.503331e+000  4.099088e+000  9.000000e+000
      vertex  5.363521e+000  6.658464e+000  9.000000e+000
    endloop
  endfacet
  facet normal  0.000000e+000  0.000000e+000  1.000000e+000
    outer loop
      vertex  2.536191e+000  6.039059e+000  9.000000e+000
      vertex  5.363521e+000  6.658464e+000  9.000000e+000
      vertex -3.352204e-001  6.541416e+000  9.000000e+000
    endloop
  endfacet
  facet normal  0.000000e+000  0.000000e+000  1.000000e+000
    outer loop
      vertex -3.352204e-001  6.541416e+000  9.000000e+000
      vertex  5.363521e+000  6.658464e+000  9.000000e+000
      vertex  2.407163e+000  8.204149e+000  9.000000e+000
    endloop
  endfacet
  facet normal  0.000000e+000  0.000000e+000  1.000000e+000
    outer loop
      vertex -3.352204e-001  6.541416e+000  9.000000e+000
      vertex  2.407163e+000  8.204149e+000  9.000000e+000
      vertex -9.156634e-001  8.500827e+000  9.000000e+000
    endloop
  endfacet
  facet normal  0.000000e+000  0.000000e+000  1.000000e+000
    outer loop
      vertex -8.204149e+000  2.407163e+000  9.000000e+000
      vertex -5.323292e+000  3.816421e+000  9.000000e+000
      vertex -6.658464e+000  5.363521e+000  9.000000e+000
    endloop
  endfacet
  facet normal  -0.000000e+000  0.000000e+000  1.000000e+000
    outer loop
      vertex -6.658464e+000  5.363521e+000  9.000000e+000
      vertex -5.323292e+000  3.816421e+000  9.000000e+000
      vertex -3.140237e+000  5.748166e+000  9.000000e+000
    endloop
  endfacet
  facet normal  0.000000e+000  0.000000e+000  1.000000e+000
    outer loop
      vertex -6.658464e+000  5.363521e+000  9.000000e+000
      vertex -3.140237e+000  5.748166e+000  9.000000e+000
      vertex -4.099088e+000  7.503331e+000  9.000000e+000
    endloop
  endfacet
  facet normal  0.000000e+000  0.000000e+000  1.000000e+000
    outer loop
      vertex -4.099088e+000  7.503331e+000  9.000000e+000
      vertex -3.140237e+000  5.748166e+000  9.000000e+000
      vertex -3.352204e-001  6.541416e+000  9.000000e+000
    endloop
  endfacet
  facet normal  0.000000e+000  0.000000e+000  1.000000e+000
    outer loop
      vertex -4.099088e+000  7.503331e+000  9.000000e+000
      vertex -3.352204e-001  6.541416e+000  9.000000e+000
      vertex -9.156634e-001  8.500827e+000  9.000000e+000
    endloop
  endfacet
  facet normal  0.000000e+000  0.000000e+000  1.000000e+000
    outer loop
      vertex  3.352204e-001 -6.541416e+000  9.000000e+000
      vertex  4.099088e+000 -7.503331e+000  9.000000e+000
      vertex  3.140237e+000 -5.748166e+000  9.000000e+000
    endloop
  endfacet
  facet normal  -0.000000e+000  0.000000e+000  1.000000e+000
    outer loop
      vertex  3.140237e+000 -5.748166e+000  9.000000e+000
      vertex  4.099088e+000 -7.503331e+000  9.000000e+000
      vertex  6.658464e+000 -5.363521e+000  9.000000e+000
    endloop
  endfacet
  facet normal  0.000000e+000  0.000000e+000  1.000000e+000
    outer loop
      vertex  3.140237e+000 -5.748166e+000  9.000000e+000
      vertex  6.658464e+000 -5.363521e+000  9.000000e+000
      vertex  5.323292e+000 -3.816421e+000  9.000000e+000
    endloop
  endfacet
  facet normal  3.197514e-001 -9.475014e-001  0.000000e+000
    outer loop
      vertex  5.537365e+000 -1.013608e+001  4.440892e-015
      vertex  5.537365e+000 -1.013608e+001  2.000000e+000
      vertex  1.736678e+000 -1.141869e+001  3.552714e-015
    endloop
  endfacet
  facet normal  3.197514e-001 -9.475014e-001  0.000000e+000
    outer loop
      vertex  1.736678e+000 -1.141869e+001  3.552714e-015
      vertex  5.537365e+000 -1.013608e+001  2.000000e+000
      vertex  1.736678e+000 -1.141869e+001  2.000000e+000
    endloop
  endfacet
  facet normal -2.359654e-002 -9.997216e-001  -0.000000e+000
    outer loop
      vertex  1.736678e+000 -1.141869e+001  3.552714e-015
      vertex  1.736678e+000 -1.141869e+001  2.000000e+000
      vertex -2.273478e+000 -1.132404e+001  3.552714e-015
    endloop
  endfacet
  facet normal -2.359654e-002 -9.997216e-001  0.000000e+000
    outer loop
      vertex -2.273478e+000 -1.132404e+001  3.552714e-015
      vertex  1.736678e+000 -1.141869e+001  2.000000e+000
      vertex -2.273478e+000 -1.132404e+001  2.000000e+000
    endloop
  endfacet
  facet normal -3.640986e-001 -9.313605e-001  -0.000000e+000
    outer loop
      vertex -2.273478e+000 -1.132404e+001  3.552714e-015
      vertex -2.273478e+000 -1.132404e+001  2.000000e+000
      vertex -6.009419e+000 -9.863538e+000  3.552714e-015
    endloop
  endfacet
  facet normal -3.640986e-001 -9.313605e-001  0.000000e+000
    outer loop
      vertex -6.009419e+000 -9.863538e+000  3.552714e-015
      vertex -2.273478e+000 -1.132404e+001  2.000000e+000
      vertex -6.009419e+000 -9.863538e+000  2.000000e+000
    endloop
  endfacet
  facet normal -6.606846e-001 -7.506636e-001  -0.000000e+000
    outer loop
      vertex -6.009419e+000 -9.863538e+000  3.552714e-015
      vertex -6.009419e+000 -9.863538e+000  2.000000e+000
      vertex -9.020535e+000 -7.213352e+000  3.552714e-015
    endloop
  endfacet
  facet normal -6.606846e-001 -7.506636e-001  0.000000e+000
    outer loop
      vertex -9.020535e+000 -7.213352e+000  3.552714e-015
      vertex -6.009419e+000 -9.863538e+000  2.000000e+000
      vertex -9.020535e+000 -7.213352e+000  2.000000e+000
    endloop
  endfacet
  facet normal -8.775826e-001 -4.794254e-001  -0.000000e+000
    outer loop
      vertex -9.020535e+000 -7.213352e+000  3.552714e-015
      vertex -9.020535e+000 -7.213352e+000  2.000000e+000
      vertex -1.094364e+001 -3.693128e+000  3.552714e-015
    endloop
  endfacet
  facet normal -8.775826e-001 -4.794254e-001  0.000000e+000
    outer loop
      vertex -1.094364e+001 -3.693128e+000  3.552714e-015
      vertex -9.020535e+000 -7.213352e+000  2.000000e+000
      vertex -1.094364e+001 -3.693128e+000  2.000000e+000
    endloop
  endfacet
  facet normal -9.886311e-001 -1.503619e-001  -0.000000e+000
    outer loop
      vertex -1.094364e+001 -3.693128e+000  3.552714e-015
      vertex -1.094364e+001 -3.693128e+000  2.000000e+000
      vertex -1.154678e+001  2.725406e-001  3.552714e-015
    endloop
  endfacet
  facet normal -9.886311e-001 -1.503619e-001  0.000000e+000
    outer loop
      vertex -1.154678e+001  2.725406e-001  3.552714e-015
      vertex -1.094364e+001 -3.693128e+000  2.000000e+000
      vertex -1.154678e+001  2.725406e-001  2.000000e+000
    endloop
  endfacet
  facet normal -9.804360e-001  1.968380e-001  0.000000e+000
    outer loop
      vertex -1.154678e+001  2.725406e-001  3.552714e-015
      vertex -1.154678e+001  2.725406e-001  2.000000e+000
      vertex -1.075721e+001  4.205337e+000  3.552714e-015
    endloop
  endfacet
  facet normal -9.804360e-001  1.968380e-001  0.000000e+000
    outer loop
      vertex -1.075721e+001  4.205337e+000  3.552714e-015
      vertex -1.154678e+001  2.725406e-001  2.000000e+000
      vertex -1.075721e+001  4.205337e+000  2.000000e+000
    endloop
  endfacet
  facet normal -8.539860e-001  5.202960e-001  0.000000e+000
    outer loop
      vertex -1.075721e+001  4.205337e+000  3.552714e-015
      vertex -1.075721e+001  4.205337e+000  2.000000e+000
      vertex -8.670164e+000  7.630908e+000  3.552714e-015
    endloop
  endfacet
  facet normal -8.539860e-001  5.202960e-001  0.000000e+000
    outer loop
      vertex -8.670164e+000  7.630908e+000  3.552714e-015
      vertex -1.075721e+001  4.205337e+000  2.000000e+000
      vertex -8.670164e+000  7.630908e+000  2.000000e+000
    endloop
  endfacet
  facet normal -6.245326e-001  7.809988e-001  0.000000e+000
    outer loop
      vertex -8.670164e+000  7.630908e+000  3.552714e-015
      vertex -8.670164e+000  7.630908e+000  2.000000e+000
      vertex -5.537365e+000  1.013608e+001  4.440892e-015
    endloop
  endfacet
  facet normal -6.245326e-001  7.809988e-001  0.000000e+000
    outer loop
      vertex -5.537365e+000  1.013608e+001  4.440892e-015
      vertex -8.670164e+000  7.630908e+000  2.000000e+000
      vertex -5.537365e+000  1.013608e+001  2.000000e+000
    endloop
  endfacet
  facet normal  2.990057e-001 -9.542513e-001  0.000000e+000
    outer loop
      vertex  4.099088e+000 -7.503331e+000  2.000000e+000
      vertex  4.099088e+000 -7.503331e+000  9.000000e+000
      vertex  9.156634e-001 -8.500827e+000  2.000000e+000
    endloop
  endfacet
  facet normal  2.990057e-001 -9.542513e-001  0.000000e+000
    outer loop
      vertex  9.156634e-001 -8.500827e+000  2.000000e+000
      vertex  4.099088e+000 -7.503331e+000  9.000000e+000
      vertex  9.156634e-001 -8.500827e+000  9.000000e+000
    endloop
  endfacet
  facet normal -8.893094e-002 -9.960378e-001  -0.000000e+000
    outer loop
      vertex  9.156634e-001 -8.500827e+000  2.000000e+000
      vertex  9.156634e-001 -8.500827e+000  9.000000e+000
      vertex -2.407163e+000 -8.204149e+000  2.000000e+000
    endloop
  endfacet
  facet normal -8.893094e-002 -9.960378e-001  0.000000e+000
    outer loop
      vertex -2.407163e+000 -8.204149e+000  2.000000e+000
      vertex  9.156634e-001 -8.500827e+000  9.000000e+000
      vertex -2.407163e+000 -8.204149e+000  9.000000e+000
    endloop
  endfacet
  facet normal -4.633286e-001 -8.861865e-001  -0.000000e+000
    outer loop
      vertex -2.407163e+000 -8.204149e+000  2.000000e+000
      vertex -2.407163e+000 -8.204149e+000  9.000000e+000
      vertex -5.363521e+000 -6.658464e+000  2.000000e+000
    endloop
  endfacet
  facet normal -4.633286e-001 -8.861865e-001  0.000000e+000
    outer loop
      vertex -5.363521e+000 -6.658464e+000  2.000000e+000
      vertex -2.407163e+000 -8.204149e+000  9.000000e+000
      vertex -5.363521e+000 -6.658464e+000  9.000000e+000
    endloop
  endfacet
  facet normal -7.671889e-001 -6.414213e-001  -0.000000e+000
    outer loop
      vertex -5.363521e+000 -6.658464e+000  2.000000e+000
      vertex -5.363521e+000 -6.658464e+000  9.000000e+000
      vertex -7.503331e+000 -4.099088e+000  2.000000e+000
    endloop
  endfacet
  facet normal -7.671889e-001 -6.414213e-001  0.000000e+000
    outer loop
      vertex -7.503331e+000 -4.099088e+000  2.000000e+000
      vertex -5.363521e+000 -6.658464e+000  9.000000e+000
      vertex -7.503331e+000 -4.099088e+000  9.000000e+000
    endloop
  endfacet
  facet normal -9.542513e-001 -2.990057e-001  -0.000000e+000
    outer loop
      vertex -7.503331e+000 -4.099088e+000  2.000000e+000
      vertex -7.503331e+000 -4.099088e+000  9.000000e+000
      vertex -8.500827e+000 -9.156634e-001  2.000000e+000
    endloop
  endfacet
  facet normal -9.542513e-001 -2.990057e-001  0.000000e+000
    outer loop
      vertex -8.500827e+000 -9.156634e-001  2.000000e+000
      vertex -7.503331e+000 -4.099088e+000  9.000000e+000
      vertex -8.500827e+000 -9.156634e-001  9.000000e+000
    endloop
  endfacet
  facet normal -9.960378e-001  8.893094e-002  0.000000e+000
    outer loop
      vertex -8.500827e+000 -9.156634e-001  2.000000e+000
      vertex -8.500827e+000 -9.156634e-001  9.000000e+000
      vertex -8.204149e+000  2.407163e+000  2.000000e+000
    endloop
  endfacet
  facet normal -9.960378e-001  8.893094e-002  0.000000e+000
    outer loop
      vertex -8.204149e+000  2.407163e+000  2.000000e+000
      vertex -8.500827e+000 -9.156634e-001  9.000000e+000
      vertex -8.204149e+000  2.407163e+000  9.000000e+000
    endloop
  endfacet
  facet normal -8.861865e-001  4.633286e-001  0.000000e+000
    outer loop
      vertex -8.204149e+000  2.407163e+000  2.000000e+000
      vertex -8.204149e+000  2.407163e+000  9.000000e+000
      vertex -6.658464e+000  5.363521e+000  2.000000e+000
    endloop
  endfacet
  facet normal -8.861865e-001  4.633286e-001  0.000000e+000
    outer loop
      vertex -6.658464e+000  5.363521e+000  2.000000e+000
      vertex -8.204149e+000  2.407163e+000  9.000000e+000
      vertex -6.658464e+000  5.363521e+000  9.000000e+000
    endloop
  endfacet
  facet normal -6.414213e-001  7.671889e-001  0.000000e+000
    outer loop
      vertex -6.658464e+000  5.363521e+000  2.000000e+000
      vertex -6.658464e+000  5.363521e+000  9.000000e+000
      vertex -4.099088e+000  7.503331e+000  2.000000e+000
    endloop
  endfacet
  facet normal -6.414213e-001  7.671889e-001  0.000000e+000
    outer loop
      vertex -4.099088e+000  7.503331e+000  2.000000e+000
      vertex -6.658464e+000  5.363521e+000  9.000000e+000
      vertex -4.099088e+000  7.503331e+000  9.000000e+000
    endloop
  endfacet
  facet normal -3.197514e-001  9.475014e-001  0.000000e+000
    outer loop
      vertex -5.537365e+000  1.013608e+001  4.440892e-015
      vertex -5.537365e+000  1.013608e+001  2.000000e+000
      vertex -1.736678e+000  1.141869e+001  3.552714e-015
    endloop
  endfacet
  facet normal -3.197514e-001  9.475014e-001  0.000000e+000
    outer loop
      vertex -1.736678e+000  1.141869e+001  3.552714e-015
      vertex -5.537365e+000  1.013608e+001  2.000000e+000
      vertex -1.736678e+000  1.141869e+001  2.000000e+000
    endloop
  endfacet
  facet normal  2.359654e-002  9.997216e-001  0.000000e+000
    outer loop
      vertex -1.736678e+000  1.141869e+001  3.552714e-015
      vertex -1.736678e+000  1.141869e+001  2.000000e+000
      vertex  2.273478e+000  1.132404e+001  3.552714e-015
    endloop
  endfacet
  facet normal  2.359654e-002  9.997216e-001  -0.000000e+000
    outer loop
      vertex  2.273478e+000  1.132404e+001  3.552714e-015
      vertex -1.736678e+000  1.141869e+001  2.000000e+000
      vertex  2.273478e+000  1.132404e+001  2.000000e+000
    endloop
  endfacet
  facet normal  3.640986e-001  9.313605e-001  0.000000e+000
    outer loop
      vertex  2.273478e+000  1.132404e+001  3.552714e-015
      vertex  2.273478e+000  1.132404e+001  2.000000e+000
      vertex  6.009419e+000  9.863538e+000  3.552714e-015
    endloop
  endfacet
  facet normal  3.640986e-001  9.313605e-001  -0.000000e+000
    outer loop
      vertex  6.009419e+000  9.863538e+000  3.552714e-015
      vertex  2.273478e+000  1.132404e+001  2.000000e+000
      vertex  6.009419e+000  9.863538e+000  2.000000e+000
    endloop
  endfacet
  facet normal  6.606846e-001  7.506636e-001  0.000000e+000
    outer loop
      vertex  6.009419e+000  9.863538e+000  3.552714e-015
      vertex  6.009419e+000  9.863538e+000  2.000000e+000
      vertex  9.020535e+000  7.213352e+000  3.552714e-015
    endloop
  endfacet
  facet normal  6.606846e-001  7.506636e-001  -0.000000e+000
    outer loop
      vertex  9.020535e+000  7.213352e+000  3.552714e-015
      vertex  6.009419e+000  9.863538e+000  2.000000e+000
      vertex  9.020535e+000  7.213352e+000  2.000000e+000
    endloop
  endfacet
  facet normal  8.775826e-001  4.794254e-001  0.000000e+000
    outer loop
      vertex  9.020535e+000  7.213352e+000  3.552714e-015
      vertex  9.020535e+000  7.213352e+000  2.000000e+000
      vertex  1.094364e+001  3.693128e+000  3.552714e-015
    endloop
  endfacet
  facet normal  8.775826e-001  4.794254e-001  -0.000000e+000
    outer loop
      vertex  1.094364e+001  3.693128e+000  3.552714e-015
      vertex  9.020535e+000  7.213352e+000  2.000000e+000
      vertex  1.094364e+001  3.693128e+000  2.000000e+000
    endloop
  endfacet
  facet normal  9.886311e-001  1.503619e-001  0.000000e+000
    outer loop
      vertex  1.094364e+001  3.693128e+000  3.552714e-015
      vertex  1.094364e+001  3.693128e+000  2.000000e+000
      vertex  1.154678e+001 -2.725406e-001  3.552714e-015
    endloop
  endfacet
  facet normal  9.886311e-001  1.503619e-001  -0.000000e+000
    outer loop
      vertex  1.154678e+001 -2.725406e-001  3.552714e-015
      vertex  1.094364e+001  3.693128e+000  2.000000e+000
      vertex  1.154678e+001 -2.725406e-001  2.000000e+000
    endloop
  endfacet
  facet normal  9.804360e-001 -1.968380e-001  0.000000e+000
    outer loop
      vertex  1.154678e+001 -2.725406e-001  3.552714e-015
      vertex  1.154678e+001 -2.725406e-001  2.000000e+000
      vertex  1.075721e+001 -4.205337e+000  3.552714e-015
    endloop
  endfacet
  facet normal  9.804360e-001 -1.968380e-001  0.000000e+000
    outer loop
      vertex  1.075721e+001 -4.205337e+000  3.552714e-015
      vertex  1.154678e+001 -2.725406e-001  2.000000e+000
      vertex  1.075721e+001 -4.205337e+000  2.000000e+000
    endloop
  endfacet
  facet normal  8.539860e-001 -5.202960e-001  0.000000e+000
    outer loop
      vertex  1.075721e+001 -4.205337e+000  3.552714e-015
      vertex  1.075721e+001 -4.205337e+000  2.000000e+000
      vertex  8.670164e+000 -7.630908e+000  3.552714e-015
    endloop
  endfacet
  facet normal  8.539860e-001 -5.202960e-001  0.000000e+000
    outer loop
      vertex  8.670164e+000 -7.630908e+000  3.552714e-015
      vertex  1.075721e+001 -4.205337e+000  2.000000e+000
      vertex  8.670164e+000 -7.630908e+000  2.000000e+000
    endloop
  endfacet
  facet normal  6.245326e-001 -7.809988e-001  0.000000e+000
    outer loop
      vertex  8.670164e+000 -7.630908e+000  3.552714e-015
      vertex  8.670164e+000 -7.630908e+000  2.000000e+000
      vertex  5.537365e+000 -1.013608e+001  4.440892e-015
    endloop
  endfacet
  facet normal  6.245326e-001 -7.809988e-001  0.000000e+000
    outer loop
      vertex  5.537365e+000 -1.013608e+001  4.440892e-015
      vertex  8.670164e+000 -7.630908e+000  2.000000e+000
      vertex  5.537365e+000 -1.013608e+001  2.000000e+000
    endloop
  endfacet
  facet normal -2.990057e-001  9.542513e-001  0.000000e+000
    outer loop
      vertex -4.099088e+000  7.503331e+000  2.000000e+000
      vertex -4.099088e+000  7.503331e+000  9.000000e+000
      vertex -9.156634e-001  8.500827e+000  2.000000e+000
    endloop
  endfacet
  facet normal -2.990057e-001  9.542513e-001  0.000000e+000
    outer loop
      vertex -9.156634e-001  8.500827e+000  2.000000e+000
      vertex -4.099088e+000  7.503331e+000  9.000000e+000
      vertex -9.156634e-001  8.500827e+000  9.000000e+000
    endloop
  endfacet
  facet normal  8.893094e-002  9.960378e-001  0.000000e+000
    outer loop
      vertex -9.156634e-001  8.500827e+000  2.000000e+000
      vertex -9.156634e-001  8.500827e+000  9.000000e+000
      vertex  2.407163e+000  8.204149e+000  2.000000e+000
    endloop
  endfacet
  facet normal  8.893094e-002  9.960378e-001  -0.000000e+000
    outer loop
      vertex  2.407163e+000  8.204149e+000  2.000000e+000
      vertex -9.156634e-001  8.500827e+000  9.000000e+000
      vertex  2.407163e+000  8.204149e+000  9.000000e+000
    endloop
  endfacet
  facet normal  4.633286e-001  8.861865e-001  0.000000e+000
    outer loop
      vertex  2.407163e+000  8.204149e+000  2.000000e+000
      vertex  2.407163e+000  8.204149e+000  9.000000e+000
      vertex  5.363521e+000  6.658464e+000  2.000000e+000
    endloop
  endfacet
  facet normal  4.633286e-001  8.861865e-001  -0.000000e+000
    outer loop
      vertex  5.363521e+000  6.658464e+000  2.000000e+000
      vertex  2.407163e+000  8.204149e+000  9.000000e+000
      vertex  5.363521e+000  6.658464e+000  9.000000e+000
    endloop
  endfacet
  facet normal  7.671889e-001  6.414213e-001  0.000000e+000
    outer loop
      vertex  5.363521e+000  6.658464e+000  2.000000e+000
      vertex  5.363521e+000  6.658464e+000  9.000000e+000
      vertex  7.503331e+000  4.099088e+000  2.000000e+000
    endloop
  endfacet
  facet normal  7.671889e-001  6.414213e-001  -0.000000e+000
    outer loop
      vertex  7.503331e+000  4.099088e+000  2.000000e+000
      vertex  5.363521e+000  6.658464e+000  9.000000e+000
      vertex  7.503331e+000  4.099088e+000  9.000000e+000
    endloop
  endfacet
  facet normal  9.542513e-001  2.990057e-001  0.000000e+000
    outer loop
      vertex  7.503331e+000  4.099088e+000  2.000000e+000
      vertex  7.503331e+000  4.099088e+000  9.000000e+000
      vertex  8.500827e+000  9.156634e-001  2.000000e+000
    endloop
  endfacet
  facet normal  9.542513e-001  2.990057e-001  -0.000000e+000
    outer loop
      vertex  8.500827e+000  9.156634e-001  2.000000e+000
      vertex  7.503331e+000  4.099088e+000  9.000000e+000
      vertex  8.500827e+000  9.156634e-001  9.000000e+000
    endloop
  endfacet
  facet normal  9.960378e-001 -8.893094e-002  0.000000e+000
    outer loop
      vertex  8.500827e+000  9.156634e-001  2.000000e+000
      vertex  8.500827e+000  9.156634e-001  9.000000e+000
      vertex  8.204149e+000 -2.407163e+000  2.000000e+000
    endloop
  endfacet
  facet normal  9.960378e-001 -8.893094e-002  0.000000e+000
    outer loop
      vertex  8.204149e+000 -2.407163e+000  2.000000e+000
      vertex  8.500827e+000  9.156634e-001  9.000000e+000
      vertex  8.204149e+000 -2.407163e+000  9.000000e+000
    endloop
  endfacet
  facet normal  8.861865e-001 -4.633286e-001  0.000000e+000
    outer loop
      vertex  8.204149e+000 -2.407163e+000  2.000000e+000
      vertex  8.204149e+000 -2.407163e+000  9.000000e+000
      vertex  6.658464e+000 -5.363521e+000  2.000000e+000
    endloop
  endfacet
  facet normal  8.861865e-001 -4.633286e-001  0.000000e+000
    outer loop
      vertex  6.658464e+000 -5.363521e+000  2.000000e+000
      vertex  8.204149e+000 -2.407163e+000  9.000000e+000
      vertex  6.658464e+000 -5.363521e+000  9.000000e+000
    endloop
  endfacet
  facet normal  6.414213e-001 -7.671889e-001  0.000000e+000
    outer loop
      vertex  6.658464e+000 -5.363521e+000  2.000000e+000
      vertex  6.658464e+000 -5.363521e+000  9.000000e+000
      vertex  4.099088e+000 -7.503331e+000  2.000000e+000
    endloop
  endfacet
  facet normal  6.414213e-001 -7.671889e-001  0.000000e+000
    outer loop
      vertex  4.099088e+000 -7.503331e+000  2.000000e+000
      vertex  6.658464e+000 -5.363521e+000  9.000000e+000
      vertex  4.099088e+000 -7.503331e+000  9.000000e+000
    endloop
  endfacet
endsolid CATIA STL
